<svg width="16" height="16" viewBox="0 0 16 16" fill="none" xmlns="http://www.w3.org/2000/svg">
<path fill-rule="evenodd" clip-rule="evenodd" d="M11.7066 4.04469C11.8853 4.12576 12 4.30382 12 4.50001L12 11.5C12 11.6962 11.8853 11.8743 11.7066 11.9553C11.528 12.0364 11.3184 12.0055 11.1707 11.8763L7.17075 8.3763C7.06224 8.28135 7 8.14419 7 8.00001C7 7.85583 7.06224 7.71866 7.17075 7.62372L11.1707 4.12372C11.3184 3.99453 11.528 3.96362 11.7066 4.04469Z" fill="#6F6E77"/>
<path d="M4 2.75C4 2.33579 4.33579 2 4.75 2C5.16421 2 5.5 2.33579 5.5 2.75V13.25C5.5 13.6642 5.16421 14 4.75 14C4.33579 14 4 13.6642 4 13.25V2.75Z" fill="#6F6E77"/>
</svg>
