<svg width="16" height="16" viewBox="0 0 16 16" fill="none" xmlns="http://www.w3.org/2000/svg">
<path d="M7 2C7 1.44772 7.44772 1 8 1C8.55228 1 9 1.44772 9 2V3C9 3.55228 8.55228 4 8 4C7.44772 4 7 3.55228 7 3V2Z" fill="#1A1523"/>
<path fill-rule="evenodd" clip-rule="evenodd" d="M8 5C6.34315 5 5 6.34315 5 8C5 9.65685 6.34315 11 8 11C9.65685 11 11 9.65685 11 8C11 6.34315 9.65685 5 8 5ZM6.5 8C6.5 8.82843 7.17157 9.5 8 9.5C8.82843 9.5 9.5 8.82843 9.5 8C9.5 7.17157 8.82843 6.5 8 6.5C7.17157 6.5 6.5 7.17157 6.5 8Z" fill="#1A1523"/>
<path d="M8 12C7.44772 12 7 12.4477 7 13V14C7 14.5523 7.44772 15 8 15C8.55228 15 9 14.5523 9 14V13C9 12.4477 8.55228 12 8 12Z" fill="#1A1523"/>
<path d="M1.99609 9.00098C1.44381 9.00098 0.996094 8.55326 0.996094 8.00098C0.996094 7.44869 1.44381 7.00098 1.99609 7.00098H2.99609C3.54838 7.00098 3.99609 7.44869 3.99609 8.00098C3.99609 8.55326 3.54838 9.00098 2.99609 9.00098H1.99609Z" fill="#1A1523"/>
<path d="M11.9961 8.00098C11.9961 8.55326 12.4438 9.00098 12.9961 9.00098H13.9961C14.5484 9.00098 14.9961 8.55326 14.9961 8.00098C14.9961 7.44869 14.5484 7.00098 13.9961 7.00098H12.9961C12.4438 7.00098 11.9961 7.44869 11.9961 8.00098Z" fill="#1A1523"/>
<path d="M3.04485 12.9501C2.65432 12.5596 2.65432 11.9264 3.04485 11.5359L3.75195 10.8288C4.14248 10.4383 4.77564 10.4383 5.16617 10.8288C5.55669 11.2193 5.55669 11.8525 5.16617 12.243L4.45906 12.9501C4.06854 13.3406 3.43537 13.3406 3.04485 12.9501Z" fill="#1A1523"/>
<path d="M10.8241 3.75759C10.4336 4.14811 10.4336 4.78128 10.8241 5.1718C11.2147 5.56232 11.8478 5.56232 12.2384 5.1718L12.9455 4.46469C13.336 4.07417 13.336 3.441 12.9455 3.05048C12.5549 2.65995 11.9218 2.65995 11.5312 3.05048L10.8241 3.75759Z" fill="#1A1523"/>
<path d="M11.533 12.9503L10.8259 12.2432C10.4353 11.8526 10.4353 11.2195 10.8259 10.829C11.2164 10.4384 11.8496 10.4384 12.2401 10.829L12.9472 11.5361C13.3377 11.9266 13.3377 12.5597 12.9472 12.9503C12.5567 13.3408 11.9235 13.3408 11.533 12.9503Z" fill="#1A1523"/>
<path d="M5.16985 5.17195C5.56037 4.78143 5.56037 4.14826 5.16985 3.75774L4.46274 3.05063C4.07222 2.66011 3.43905 2.66011 3.04853 3.05063C2.658 3.44115 2.658 4.07432 3.04853 4.46484L3.75563 5.17195C4.14616 5.56247 4.77932 5.56247 5.16985 5.17195Z" fill="#1A1523"/>
</svg>
