<svg width="16" height="16" viewBox="0 0 16 16" fill="none" xmlns="http://www.w3.org/2000/svg">
<path d="M4.29332 4.29241C4.68385 3.90188 5.31701 3.90188 5.70753 4.2924L8.00043 6.5853L10.2933 4.2924C10.6838 3.90188 11.317 3.90188 11.7075 4.29241C12.0981 4.68293 12.0981 5.31609 11.7075 5.70662L9.41464 7.99951L11.708 10.2928C12.0985 10.6834 12.0985 11.3165 11.708 11.707C11.3174 12.0976 10.6843 12.0976 10.2937 11.707L8.00043 9.41373L5.70711 11.707C5.31658 12.0976 4.68342 12.0976 4.29289 11.707C3.90237 11.3165 3.90237 10.6834 4.29289 10.2928L6.58621 7.99951L4.29332 5.70662C3.9028 5.31609 3.9028 4.68293 4.29332 4.29241Z" fill="#A09FA6"/>
</svg>
