<svg width="16" height="16" viewBox="0 0 16 16" fill="none"
  xmlns="http://www.w3.org/2000/svg">
  <path d="M3.05024 3.03033C3.34313 2.73744 3.818 2.73744 4.1109 3.03033L12.9497 11.8692C13.2426 12.1621 13.2426 12.6369 12.9497 12.9298C12.6568 13.2227 12.182 13.2227 11.8891 12.9298L3.05024 4.09099C2.75734 3.7981 2.75734 3.32322 3.05024 3.03033Z" fill="#A09FA6"/>
  <path d="M3.05035 13.0303C2.75746 12.7374 2.75746 12.2626 3.05035 11.9697L11.8892 3.13084C12.1821 2.83794 12.657 2.83794 12.9498 3.13084C13.2427 3.42373 13.2427 3.8986 12.9498 4.1915L4.11101 13.0303C3.81812 13.3232 3.34324 13.3232 3.05035 13.0303Z" fill="#A09FA6"/>
</svg>
