<svg width="36" height="37" viewBox="0 0 36 37" fill="none" xmlns="http://www.w3.org/2000/svg">
<path d="M18 12.0205C19.6976 11.9991 21.3346 12.651 22.5527 13.8336C23.7709 15.0161 24.471 16.633 24.5 18.3305C24.5006 20.0586 23.8955 21.7323 22.79 23.0605C21.2918 24.9865 20.4852 27.3605 20.5 29.8005C20.5 30.8005 20.22 32.0205 18 32.0205C15.78 32.0205 15.5 30.8305 15.5 29.8005C15.5148 27.3605 14.7082 24.9865 13.21 23.0605C12.1045 21.7323 11.4994 20.0586 11.5 18.3305C11.529 16.633 12.2291 15.0161 13.4473 13.8336C14.6654 12.651 16.3024 11.9991 18 12.0205ZM18 10.5005C15.9038 10.4765 13.8838 11.2856 12.3838 12.75C10.8837 14.2144 10.0264 16.2144 10 18.3105C10 23.6905 14 24.1105 14 29.7805C14 32.5005 15.79 33.5005 18 33.5005C20.21 33.5005 22 32.5005 22 29.8005C22 24.1305 26 23.7105 26 18.3305C25.9896 17.2909 25.7743 16.2636 25.3664 15.3072C24.9586 14.3509 24.3662 13.4843 23.6232 12.7571C22.8802 12.0298 22.0011 11.4562 21.0362 11.069C20.0714 10.6818 19.0396 10.4887 18 10.5005Z" fill="#A09FA6"/>
<path fill-rule="evenodd" clip-rule="evenodd" d="M14.75 29.5C14.75 29.0858 15.0858 28.75 15.5 28.75H20.5C20.9142 28.75 21.25 29.0858 21.25 29.5C21.25 29.9142 20.9142 30.25 20.5 30.25H15.5C15.0858 30.25 14.75 29.9142 14.75 29.5Z" fill="#A09FA6"/>
<path fill-rule="evenodd" clip-rule="evenodd" d="M18 3.77002C18.4142 3.77002 18.75 4.10581 18.75 4.52002V7.52002C18.75 7.93423 18.4142 8.27002 18 8.27002C17.5858 8.27002 17.25 7.93423 17.25 7.52002V4.52002C17.25 4.10581 17.5858 3.77002 18 3.77002Z" fill="#A09FA6"/>
<path fill-rule="evenodd" clip-rule="evenodd" d="M7.56967 8.08969C7.86256 7.7968 8.33744 7.7968 8.63033 8.08969L10.4603 9.91969C10.7532 10.2126 10.7532 10.6875 10.4603 10.9803C10.1674 11.2732 9.69256 11.2732 9.39967 10.9803L7.56967 9.15035C7.27678 8.85746 7.27678 8.38258 7.56967 8.08969Z" fill="#A09FA6"/>
<path fill-rule="evenodd" clip-rule="evenodd" d="M3.25 18.52C3.25 18.1058 3.58579 17.77 4 17.77H7C7.41421 17.77 7.75 18.1058 7.75 18.52C7.75 18.9342 7.41421 19.27 7 19.27H4C3.58579 19.27 3.25 18.9342 3.25 18.52Z" fill="#A09FA6"/>
<path fill-rule="evenodd" clip-rule="evenodd" d="M10.4603 26.0597C10.7532 26.3526 10.7532 26.8275 10.4603 27.1203L8.63033 28.9503C8.33744 29.2432 7.86256 29.2432 7.56967 28.9503C7.27678 28.6575 7.27678 28.1826 7.56967 27.8897L9.39967 26.0597C9.69256 25.7668 10.1674 25.7668 10.4603 26.0597Z" fill="#A09FA6"/>
<path fill-rule="evenodd" clip-rule="evenodd" d="M25.5397 26.0597C25.8326 25.7668 26.3074 25.7668 26.6003 26.0597L28.4303 27.8897C28.7232 28.1826 28.7232 28.6575 28.4303 28.9503C28.1374 29.2432 27.6626 29.2432 27.3697 28.9503L25.5397 27.1203C25.2468 26.8275 25.2468 26.3526 25.5397 26.0597Z" fill="#A09FA6"/>
<path fill-rule="evenodd" clip-rule="evenodd" d="M28.25 18.52C28.25 18.1058 28.5858 17.77 29 17.77H32C32.4142 17.77 32.75 18.1058 32.75 18.52C32.75 18.9342 32.4142 19.27 32 19.27H29C28.5858 19.27 28.25 18.9342 28.25 18.52Z" fill="#A09FA6"/>
<path fill-rule="evenodd" clip-rule="evenodd" d="M28.4303 8.08969C28.7232 8.38258 28.7232 8.85746 28.4303 9.15035L26.6003 10.9803C26.3074 11.2732 25.8326 11.2732 25.5397 10.9803C25.2468 10.6875 25.2468 10.2126 25.5397 9.91969L27.3697 8.08969C27.6626 7.7968 28.1374 7.7968 28.4303 8.08969Z" fill="#A09FA6"/>
<path fill-rule="evenodd" clip-rule="evenodd" d="M14.25 27C14.25 26.5858 14.5858 26.25 15 26.25H21C21.4142 26.25 21.75 26.5858 21.75 27C21.75 27.4142 21.4142 27.75 21 27.75H18H15C14.5858 27.75 14.25 27.4142 14.25 27Z" fill="#A09FA6"/>
</svg>
