<svg width="83" height="32" viewBox="0 0 83 32" fill="none" xmlns="http://www.w3.org/2000/svg">
<path d="M41.6583 10.8546C41.5748 10.9983 41.463 11.1248 41.3291 11.2269C41.2016 11.3091 41.0503 11.3499 40.8971 11.3436C40.7018 11.3359 40.5124 11.2766 40.3494 11.1723C40.154 11.0556 39.9252 10.9241 39.6629 10.7975C39.3733 10.6512 39.0724 10.5267 38.7629 10.4252C38.3799 10.3031 37.9782 10.2444 37.5749 10.2514C36.7744 10.2514 36.1744 10.4243 35.775 10.7702C35.5787 10.9396 35.4233 11.1486 35.3198 11.3823C35.2163 11.6161 35.1671 11.8689 35.1759 12.123C35.164 12.4481 35.2818 12.7653 35.505 13.0091C35.7511 13.2615 36.0442 13.467 36.369 13.6147C36.7616 13.7989 37.1693 13.9516 37.5878 14.0715C38.0404 14.2055 38.5058 14.3519 38.984 14.5108C39.46 14.6712 39.9254 14.8594 40.3777 15.0743C40.8239 15.2842 41.2348 15.5578 41.5965 15.8859C41.9637 16.2266 42.2573 16.634 42.4605 17.0848C42.6941 17.6295 42.8062 18.2156 42.7897 18.8049C42.7946 19.5116 42.6593 20.2126 42.3911 20.8701C42.1335 21.5009 41.743 22.0731 41.2443 22.5505C40.7146 23.047 40.0843 23.4324 39.3929 23.6824C38.594 23.9669 37.7475 24.1066 36.8961 24.0944C36.3631 24.0944 35.8315 24.042 35.3096 23.938C34.7892 23.8363 34.279 23.6909 33.7848 23.5037C33.3054 23.3218 32.8441 23.0983 32.4065 22.836C31.9961 22.5903 31.6172 22.2987 31.2777 21.9672L32.2934 20.3861C32.3795 20.2639 32.4939 20.1627 32.6276 20.0907C32.7598 20.0146 32.9108 19.9743 33.0648 19.974C33.3023 19.9837 33.5315 20.0614 33.723 20.1974C33.9545 20.3439 34.2193 20.5077 34.5176 20.6939C34.8489 20.8902 35.1984 21.0564 35.5616 21.1903C36.018 21.349 36.501 21.4248 36.9861 21.4137C37.7935 21.4137 38.4183 21.2358 38.8606 20.88C39.3029 20.5242 39.524 19.9931 39.524 19.2865C39.5425 18.9284 39.4266 18.5758 39.1975 18.2936C38.9585 18.027 38.6653 17.8107 38.3361 17.6582C37.9482 17.4739 37.5426 17.3268 37.125 17.2188C36.6724 17.0964 36.207 16.9607 35.7287 16.8118C35.2525 16.6636 34.7869 16.4854 34.335 16.2781C33.8846 16.0737 33.4748 15.7948 33.1239 15.454C32.7543 15.0891 32.4618 14.6583 32.2625 14.1856C32.0261 13.5845 31.9143 12.9444 31.9334 12.3017C31.9325 11.6907 32.0614 11.086 32.3121 10.525C32.5629 9.96404 32.9302 9.45866 33.3913 9.04013C33.902 8.58211 34.4991 8.22313 35.1501 7.98273C35.9149 7.70496 36.7271 7.56937 37.5441 7.5831C38.4939 7.57392 39.4381 7.72513 40.334 8.02989C41.1374 8.29825 41.8764 8.72037 42.5068 9.27097L41.6583 10.8546Z" fill="white"/>
<path d="M53.4713 14.9972C53.3937 15.0998 53.301 15.1909 53.1962 15.2677C53.0788 15.3389 52.9412 15.3727 52.8028 15.3645C52.6449 15.3624 52.4908 15.3177 52.3579 15.2355C52.2165 15.1511 52.0519 15.0567 51.8694 14.9575C51.6593 14.8453 51.439 14.7523 51.2111 14.6795C50.9054 14.5855 50.5855 14.5419 50.2648 14.5504C49.8374 14.5399 49.4133 14.6249 49.0255 14.7986C48.6777 14.9641 48.3781 15.2107 48.1538 15.5159C47.9086 15.8597 47.7341 16.2456 47.6395 16.6528C47.5229 17.1461 47.4668 17.651 47.4724 18.157C47.4724 19.3285 47.7166 20.2263 48.2052 20.8501C48.4347 21.1519 48.7372 21.395 49.0864 21.5581C49.4355 21.7212 49.8207 21.7994 50.2083 21.7859C50.4614 21.7892 50.7141 21.7651 50.9617 21.7139C51.1534 21.6731 51.3397 21.6115 51.5171 21.5302C51.6623 21.4621 51.7994 21.3788 51.9259 21.282C52.0417 21.1926 52.1522 21.1107 52.2551 21.0338C52.3529 20.9629 52.457 20.9006 52.5662 20.8476C52.6766 20.7986 52.797 20.774 52.9185 20.7756C53.0299 20.7712 53.1408 20.7934 53.2412 20.8401C53.3417 20.8869 53.4287 20.9568 53.4945 21.0437L54.4073 22.1582C54.0902 22.5167 53.7254 22.833 53.3222 23.0989C52.9502 23.3402 52.5496 23.5377 52.1291 23.6872C51.7241 23.8311 51.3043 23.9326 50.8768 23.99C50.46 24.0441 50.04 24.0715 49.6194 24.0719C48.9045 24.0788 48.1954 23.9471 47.5341 23.6847C46.8832 23.423 46.2977 23.0304 45.8164 22.533C45.302 21.9938 44.9042 21.3609 44.6464 20.6714C44.3438 19.8659 44.1965 19.0137 44.2119 18.157C44.2054 17.3627 44.3339 16.5728 44.5924 15.8188C44.8286 15.1276 45.2093 14.4905 45.711 13.9472C46.2202 13.4096 46.8451 12.9861 47.5418 12.7061C48.3412 12.3917 49.1987 12.238 50.0617 12.2544C50.8784 12.2384 51.6901 12.3819 52.4479 12.6763C53.1407 12.9642 53.7681 13.3808 54.2942 13.9025L53.4713 14.9972Z" fill="white"/>
<path d="M55.7436 14.0267C56.4174 13.4335 57.203 12.9709 58.0578 12.664C58.9373 12.3575 59.8664 12.2045 60.8014 12.2123C61.4507 12.2018 62.0957 12.3157 62.6991 12.5474C63.2359 12.7547 63.72 13.0714 64.1185 13.4757C64.5141 13.8849 64.8187 14.3682 65.0133 14.8955C65.2252 15.4749 65.3305 16.0856 65.3245 16.7V23.9156H63.8716C63.636 23.9286 63.4006 23.8869 63.1851 23.794C62.9954 23.6738 62.8574 23.4912 62.7968 23.2802L62.5397 22.5356C62.2637 22.7754 61.9754 23.0016 61.6757 23.2132C61.4034 23.407 61.1114 23.5733 60.804 23.7096C60.4962 23.8432 60.1735 23.9423 59.8423 24.005C59.4636 24.0758 59.0786 24.1099 58.6929 24.1068C58.2084 24.1121 57.726 24.0442 57.2632 23.9057C56.8535 23.7834 56.4744 23.5806 56.1498 23.31C55.8334 23.0374 55.5869 22.6975 55.4299 22.3171C55.252 21.8854 55.1646 21.4239 55.1727 20.9594C55.1774 20.5161 55.292 20.0803 55.507 19.6885C55.7806 19.2152 56.1766 18.8183 56.6564 18.5368C57.3263 18.1396 58.0583 17.8496 58.8241 17.678C59.9378 17.4277 61.0773 17.2995 62.2208 17.2957V16.705C62.2208 15.9852 62.0631 15.4565 61.7477 15.1189C61.5715 14.9462 61.3587 14.8124 61.1239 14.7267C60.8891 14.6411 60.6379 14.6055 60.3874 14.6224C60.0163 14.6126 59.646 14.663 59.292 14.7714C59.0267 14.8596 58.7688 14.9675 58.5206 15.0941L57.9035 15.4167C57.6977 15.5214 57.4675 15.5735 57.235 15.5681C57.0357 15.5748 56.8396 15.5181 56.677 15.4068C56.5291 15.3012 56.4019 15.1709 56.3016 15.0221L55.7436 14.0267ZM62.226 19.1152C61.576 19.1401 60.9284 19.2056 60.2872 19.3112C59.8628 19.3762 59.45 19.4982 59.0606 19.6736C58.8039 19.7824 58.5807 19.9534 58.4126 20.1701C58.2878 20.3536 58.2216 20.5686 58.2224 20.7881C58.2036 20.9643 58.2291 21.1422 58.2967 21.3068C58.3643 21.4714 58.472 21.6179 58.6106 21.7338C58.9292 21.9365 59.3072 22.0341 59.688 22.0118C60.1631 22.0245 60.6348 21.9311 61.0663 21.7388C61.5022 21.5239 61.895 21.2355 62.226 20.8874V19.1152Z" fill="white"/>
<path d="M71.0282 7.30255V23.9057H67.8474V7.30255H71.0282Z" fill="white"/>
<path d="M73.4165 14.0267C74.0902 13.4333 74.8759 12.9707 75.7308 12.664C76.6112 12.3575 77.5411 12.2046 78.477 12.2123C79.1262 12.2018 79.7712 12.3157 80.3746 12.5474C80.9114 12.7547 81.3955 13.0714 81.794 13.4757C82.1898 13.8844 82.4936 14.3678 82.6863 14.8955C82.9003 15.4744 83.0065 16.0853 83 16.7V23.9156H81.5446C81.309 23.9281 81.0737 23.8864 80.858 23.794C80.67 23.6727 80.5332 23.4905 80.4723 23.2802L80.2152 22.5356C79.9379 22.7728 79.6478 22.9956 79.3461 23.2033C79.0738 23.397 78.7817 23.5634 78.4744 23.6997C78.1655 23.8329 77.842 23.932 77.5101 23.9951C77.1323 24.0657 76.7481 24.0998 76.3633 24.0968C75.8788 24.1025 75.3964 24.0346 74.9336 23.8958C74.5239 23.7735 74.1448 23.5707 73.8202 23.3001C73.503 23.0276 73.2556 22.6877 73.0977 22.3072C72.9211 21.8751 72.8337 21.4139 72.8405 20.9495C72.8452 20.5061 72.9598 20.0704 73.1748 19.6786C73.4473 19.2053 73.8425 18.8084 74.3216 18.5269C74.9927 18.1301 75.7254 17.8402 76.4919 17.668C77.6056 17.4176 78.7451 17.2894 79.8886 17.2858V16.695C79.8886 15.9752 79.7292 15.454 79.4155 15.1089C79.239 14.9361 79.0257 14.8022 78.7905 14.7165C78.5552 14.6308 78.3035 14.5953 78.0527 14.6125C77.6815 14.6031 77.3113 14.6534 76.9573 14.7614C76.6919 14.8496 76.434 14.9574 76.1859 15.0841L75.5688 15.4068C75.3628 15.5111 75.1327 15.5632 74.9002 15.5582C74.7002 15.5645 74.5034 15.5079 74.3396 15.3969C74.1923 15.2907 74.0652 15.1605 73.9642 15.0121L73.4165 14.0267ZM79.8989 19.1151C79.2489 19.1399 78.6013 19.2054 77.9601 19.3112C77.535 19.3763 77.1213 19.4982 76.731 19.6736C76.475 19.7824 76.2526 19.9534 76.0856 20.1701C75.9608 20.3536 75.8946 20.5686 75.8953 20.7881C75.8767 20.964 75.902 21.1417 75.9691 21.3062C76.0362 21.4708 76.1432 21.6174 76.281 21.7338C76.6006 21.9364 76.9794 22.0339 77.361 22.0118C77.836 22.0239 78.3075 21.9305 78.7392 21.7388C79.1749 21.5234 79.5675 21.2351 79.8989 20.8874V19.1151Z" fill="white"/>
<path d="M0 14.7692V22.1538C0 21.5384 20 20.3076 20 17.2308V9.84614C20 12.923 0 14.1538 0 14.7692Z" fill="white"/>
<path d="M0 4.92302V12.3076C0 11.6923 20 10.4614 20 7.38453V0C20 3.07698 0 4.30773 0 4.92302Z" fill="white"/>
<path d="M0 24.6154V32C0 31.3846 20 30.1538 20 27.077V19.6924C20 22.7692 0 24 0 24.6154Z" fill="white"/>
</svg>
