<svg width="16" height="16" viewBox="0 0 16 16" fill="none" xmlns="http://www.w3.org/2000/svg">
<path d="M1 3.75C1 3.33579 1.33579 3 1.75 3H14.25C14.6642 3 15 3.33579 15 3.75C15 4.16421 14.6642 4.5 14.25 4.5H1.75C1.33579 4.5 1 4.16421 1 3.75Z" fill="#6F6E77"/>
<path d="M1 8C1 7.58579 1.33579 7.25 1.75 7.25H14.25C14.6642 7.25 15 7.58579 15 8C15 8.41421 14.6642 8.75 14.25 8.75H1.75C1.33579 8.75 1 8.41421 1 8Z" fill="#6F6E77"/>
<path d="M1 12.25C1 11.8358 1.33579 11.5 1.75 11.5H14.25C14.6642 11.5 15 11.8358 15 12.25C15 12.6642 14.6642 13 14.25 13H1.75C1.33579 13 1 12.6642 1 12.25Z" fill="#6F6E77"/>
</svg>
