<svg width="64px" height="109px" viewBox="0 0 64 109" version="1.1" xmlns="http://www.w3.org/2000/svg" xmlns:xlink="http://www.w3.org/1999/xlink">
    <g id="Page-1" stroke="none" stroke-width="1" fill="none" fill-rule="evenodd">
        <g id="logo-background" transform="translate(0.000000, 16.000000)" fill="#7F0C1D">
            <path d="M0.5,59.5 C0.5,59.5 63.4,65.8 63.4,76.3 L63.4,51.1 C63.4,51.1 63.4,40.6 0.5,34.3 L0.5,59.5 L0.5,59.5 Z" id="logo-background-bottom"></path>
            <path d="M0.5,25.9 C0.5,25.9 63.4,32.2 63.4,42.7 L63.4,17.5 C63.4,17.5 63.4,7 0.5,0.7 L0.5,10.5 L0.5,25.9 L0.5,25.9 Z" id="logo-background-top"></path>
        </g>
        <g id="logo-foreground" fill="#F11205">
            <path d="M0.5,109 L0.5,83.8 C0.5,83.8 63.4,77.5 63.4,67 L63.4,92.2 C63.5,92.3 63.5,102.7 0.5,109" id="Logo_Foreground_Bottom"></path>
            <path d="M0.5,50.3 C0.5,50.3 63.4,44 63.4,33.5 L63.4,58.7 C63.4,58.7 63.4,69.2 0.5,75.5 L0.5,50.3 L0.5,50.3 Z" id="Logo_Foreground_Middle"></path>
            <path d="M63.5,0 L63.5,25.2 C63.5,25.2 63.5,35.7 0.6,42 L0.6,16.7 C0.5,16.7 63.5,10.5 63.5,0" id="logo-foreground-top"></path>
        </g>
    </g>
</svg>
