<svg width="16" height="17" viewBox="0 0 16 17" fill="none" xmlns="http://www.w3.org/2000/svg">
<path fill-rule="evenodd" clip-rule="evenodd" d="M8 15.5C11.866 15.5 15 12.366 15 8.5C15 4.63401 11.866 1.5 8 1.5C4.13401 1.5 1 4.63401 1 8.5C1 12.366 4.13401 15.5 8 15.5ZM8.75781 12.5C8.75781 12.9142 8.42203 13.25 8.00781 13.25C7.5936 13.25 7.25781 12.9142 7.25781 12.5L7.25781 8.25C7.25781 7.83579 7.5936 7.5 8.00781 7.5C8.42203 7.5 8.75781 7.83579 8.75781 8.25L8.75781 12.5ZM8.75781 5.75C8.75781 6.16421 8.42203 6.5 8.00781 6.5C7.5936 6.5 7.25781 6.16421 7.25781 5.75V5.5C7.25781 5.08579 7.5936 4.75 8.00781 4.75C8.42203 4.75 8.75781 5.08579 8.75781 5.5V5.75Z" fill="#6F6E77"/>
<path fill-rule="evenodd" clip-rule="evenodd" d="M8 15.5C11.866 15.5 15 12.366 15 8.5C15 4.63401 11.866 1.5 8 1.5C4.13401 1.5 1 4.63401 1 8.5C1 12.366 4.13401 15.5 8 15.5ZM8.75781 12.5C8.75781 12.9142 8.42203 13.25 8.00781 13.25C7.5936 13.25 7.25781 12.9142 7.25781 12.5L7.25781 8.25C7.25781 7.83579 7.5936 7.5 8.00781 7.5C8.42203 7.5 8.75781 7.83579 8.75781 8.25L8.75781 12.5ZM8.75781 5.75C8.75781 6.16421 8.42203 6.5 8.00781 6.5C7.5936 6.5 7.25781 6.16421 7.25781 5.75V5.5C7.25781 5.08579 7.5936 4.75 8.00781 4.75C8.42203 4.75 8.75781 5.08579 8.75781 5.5V5.75Z" fill="#6F6E77"/>
</svg>
