<svg width="16" height="16" viewBox="0 0 16 16" fill="none"
  xmlns="http://www.w3.org/2000/svg">
  <path fill-rule="evenodd" clip-rule="evenodd" d="M8 1.5C8.41421 1.5 8.75 1.83579 8.75 2.25V7.25L13.75 7.25C14.1642 7.25 14.5 7.58579 14.5 8C14.5 8.41421 14.1642 8.75 13.75 8.75H8.75V13.75C8.75 14.1642 8.41421 14.5 8 14.5C7.58579 14.5 7.25 14.1642 7.25 13.75L7.25 8.75H2.25C1.83579 8.75 1.5 8.41421 1.5 8C1.5 7.58579 1.83579 7.25 2.25 7.25H7.25V2.25C7.25 1.83579 7.58579 1.5 8 1.5Z" fill="#CCCCCC"/>
</svg>
