<svg width="125" height="26" xmlns="http://www.w3.org/2000/svg" xmlns:xlink="http://www.w3.org/1999/xlink">
 <defs>
  <linearGradient id="a">
   <stop stop-color="#656565" offset="0"/>
   <stop stop-color="#010101" offset="1"/>
  </linearGradient>
  <linearGradient y2="0.49648" y1="0.49648" xlink:href="#a" x2="0.998187" x1="0.001707" id="b"/>
  <linearGradient y2="0.4982" y1="0.4982" xlink:href="#a" x2="0.998187" x1="0.001707" id="c"/>
  <linearGradient id="d">
   <stop stop-color="#9f1c20" offset="0"/>
   <stop stop-color="#ed2224" offset="1"/>
  </linearGradient>
  <linearGradient y2="0.50052" y1="0.50052" xlink:href="#d" x2="0.998187" x1="0.001707" id="e"/>
  <linearGradient y2="0.5026" y1="0.5026" xlink:href="#d" x2="0.998187" x1="0.001707" id="f"/>
  <linearGradient y2="0.5044" y1="0.5044" xlink:href="#d" x2="0.998187" x1="0.001707" id="g"/>
 </defs>
 <g>
  <title>background</title>
  <rect fill="none" id="canvas_background" height="28" width="127" y="-1" x="-1"/>
 </g>
 <g>
  <title>Layer 1</title>
  <g stroke="null" id="svg_2" transform="matrix(0.2210007283098479,0,0,0.18307433864603173,1.1714558573744585,18.727665505867453) ">
   <path stroke="null" id="svg_3" fill="url(#b)" d="m-0.956854,-46.037755s75,7.5 75,20l0,-30s0,-12.5 -75,-20l0,30z"/>
   <path stroke="null" id="svg_4" fill="url(#c)" d="m-0.956854,-6.037755s75,7.5 75,20l0,-30s0,-12.5 -75,-20l0,30z"/>
   <path stroke="null" id="svg_5" fill="url(#e)" d="m74.043146,-96.037755l0,30s0,12.5 -75,20l0,-30s75,-7.5 75,-20"/>
   <path stroke="null" id="svg_6" fill="url(#f)" d="m-0.956854,-36.037755s75,-7.5 75,-20l0,30s0,12.5 -75,20l0,-30z"/>
   <path stroke="null" id="svg_7" fill="url(#g)" d="m-0.956854,33.962245l0,-30s75,-7.5 75,-20l0,30s0,12.5 -75,20"/>
  </g>
  <path stroke="null" id="svg_8" fill="#231f20" d="m21.388269,22.765522l1.445313,-4.361296c1.715949,0.329507 3.310976,0.80262 4.998134,0.946226s3.433338,0.061967 5.119057,-0.061967c0.964502,-0.061967 1.626697,-0.576391 1.74618,-1.296389c0.090692,-0.688522 -0.42179,-1.19311 -1.266808,-1.481306l-3.218844,-1.006226l-4.275478,-1.398683c-2.799934,-1.131143 -4.487092,-2.777695 -4.304269,-5.101949c0.179944,-2.345893 1.929003,-4.0131 4.880091,-5.081293c2.830165,-1.028849 5.902174,-1.255077 9.033206,-1.008193c2.015377,0.164262 3.973171,0.597047 6.051888,0.946226l-1.684279,4.361296c-1.776411,-0.370818 -3.462129,-0.740653 -5.211188,-0.865571c-1.204907,-0.082623 -2.529298,0 -3.673744,0.245901c-1.715949,0.370818 -1.929003,1.666223 -0.42179,2.345893c1.053754,0.472129 2.317683,0.761309 3.49236,1.111471c1.536005,0.493769 3.161262,0.865571 4.577784,1.481306c5.751021,2.427532 5.419924,8.043905 -0.541273,10.246192c-3.100801,1.131143 -6.443447,1.398683 -9.875346,1.19311c-2.303288,-0.164262 -4.577784,-0.493769 -6.866676,-1.213766l-0.004319,-0.000984zm65.129775,0.885243l-6.986159,0l-0.571503,-1.318028c-1.74618,1.19311 -3.764436,1.645568 -6.051888,1.645568c-3.52259,0 -6.112349,-1.275733 -6.986159,-3.435725c-0.90404,-2.262287 0.512481,-4.547197 3.49236,-5.740307c2.438606,-0.966882 5.119057,-1.19311 7.859969,-1.3377c0.331098,-0.019672 0.633404,-0.019672 0.964502,-0.041311c-0.151153,-0.865571 -0.87381,-1.255077 -2.408375,-1.3377c-2.499067,-0.143606 -4.81819,0.226229 -7.226565,1.049504l-1.475544,-3.560643c1.929003,-0.370818 3.734205,-0.885243 5.628659,-1.028849c2.317683,-0.164262 4.727498,-0.164262 7.01639,0.103278c3.823457,0.472129 6.172811,2.572122 6.352755,5.409816c0.120923,1.975075 0.090692,3.970805 0.090692,5.94588c0.028791,1.19311 0.028791,2.6754 0.302306,3.641298l-0.00144,0.004918zm-7.979452,-6.789811c-1.475544,-0.123934 -2.769703,0.041311 -4.004841,0.514424c-0.843579,0.329507 -1.32439,0.885243 -1.114215,1.522617c0.151153,0.411146 0.542712,0.924587 1.053754,1.131143c1.566236,0.617703 3.764436,-0.164262 4.004841,-1.398683c0.151153,-0.576391 0.060461,-1.150816 0.060461,-1.770485l0,0.000984zm45.135799,6.769156l-6.986159,0l-0.571503,-1.318028c-1.74618,1.19311 -3.764436,1.645568 -6.051888,1.645568c-3.52259,0 -6.112349,-1.275733 -6.986159,-3.435725c-0.90404,-2.262287 0.512481,-4.547197 3.49236,-5.740307c2.438606,-0.966882 5.119057,-1.19311 7.859969,-1.3377c0.331098,-0.019672 0.633404,-0.019672 0.964502,-0.041311c-0.151153,-0.865571 -0.87381,-1.255077 -2.408375,-1.3377c-2.499067,-0.143606 -4.81819,0.226229 -7.226565,1.049504l-1.475544,-3.560643c1.929003,-0.370818 3.734205,-0.885243 5.628659,-1.028849c2.317683,-0.164262 4.727498,-0.164262 7.01639,0.103278c3.823457,0.472129 6.172811,2.572122 6.352755,5.409816c0.120923,1.975075 0.090692,3.970805 0.090692,5.94588c0,1.213766 0.028791,2.6754 0.302306,3.641298l-0.00144,0.004918zm-7.979452,-6.789811c-1.475544,-0.123934 -2.769703,0.041311 -4.004841,0.514424c-0.843579,0.329507 -1.32439,0.885243 -1.114215,1.522617c0.151153,0.411146 0.542712,0.924587 1.053754,1.131143c1.566236,0.617703 3.764436,-0.164262 4.004841,-1.398683c0.151153,-0.555736 0.060461,-1.150816 0.060461,-1.770485l0,0.000984zm-53.295195,-3.971789c-2.890626,-0.39049 -5.599868,-0.761309 -7.618124,1.091799c-1.266808,1.172455 -1.266808,3.250808 0,4.381951c2.047047,1.871797 4.880091,1.501962 7.859969,1.150816c0.270636,1.213766 0.783118,3.970805 0.783118,3.970805s-0.028791,0 -0.359889,0.082623c-5.419924,1.008193 -11.772679,0.288196 -14.634513,-1.996714c-2.951087,-2.345893 -3.310976,-5.101949 -1.986586,-7.962266c1.295599,-2.819006 4.3964,-4.381951 8.493373,-4.978998a16.151804,11.036026 0 0 1 7.858529,0.143606a27.538682,18.816325 0 0 1 0.662195,0.123934l-1.053754,3.991461l-0.004319,0.000984zm28.93505,-10.8216l7.769277,0l0,21.560578l-7.769277,0l0,-21.560578z"/>
 </g>
</svg>