<svg width="14" height="14" viewBox="0 0 14 14" fill="none" xmlns="http://www.w3.org/2000/svg">
<path fill-rule="evenodd" clip-rule="evenodd" d="M14 7C14 10.866 10.866 14 7 14C3.13401 14 0 10.866 0 7C0 3.13401 3.13401 0 7 0C10.866 0 14 3.13401 14 7ZM6.25 4C6.25 3.58579 6.58579 3.25 7 3.25C7.41421 3.25 7.75 3.58579 7.75 4V8.25C7.75 8.66421 7.41421 9 7 9C6.58579 9 6.25 8.66421 6.25 8.25V4ZM6.25 10.75C6.25 10.3358 6.58579 10 7 10C7.41421 10 7.75 10.3358 7.75 10.75V11C7.75 11.4142 7.41421 11.75 7 11.75C6.58579 11.75 6.25 11.4142 6.25 11V10.75Z" fill="#FF6369"/>
</svg>
