<svg width="14" height="14" viewBox="0 0 14 14" fill="none" xmlns="http://www.w3.org/2000/svg">
<path fill-rule="evenodd" clip-rule="evenodd" d="M7 14C10.866 14 14 10.866 14 7C14 3.13401 10.866 0 7 0C3.13401 0 0 3.13401 0 7C0 10.866 3.13401 14 7 14ZM7.75781 11C7.75781 11.4142 7.42203 11.75 7.00781 11.75C6.5936 11.75 6.25781 11.4142 6.25781 11L6.25781 6.75C6.25781 6.33579 6.5936 6 7.00781 6C7.42203 6 7.75781 6.33579 7.75781 6.75L7.75781 11ZM7.75781 4.25C7.75781 4.66421 7.42203 5 7.00781 5C6.5936 5 6.25781 4.66421 6.25781 4.25V4C6.25781 3.58579 6.5936 3.25 7.00781 3.25C7.42203 3.25 7.75781 3.58579 7.75781 4V4.25Z" fill="#2EC8EE"/>
<path fill-rule="evenodd" clip-rule="evenodd" d="M7 14C10.866 14 14 10.866 14 7C14 3.13401 10.866 0 7 0C3.13401 0 0 3.13401 0 7C0 10.866 3.13401 14 7 14ZM7.75781 11C7.75781 11.4142 7.42203 11.75 7.00781 11.75C6.5936 11.75 6.25781 11.4142 6.25781 11L6.25781 6.75C6.25781 6.33579 6.5936 6 7.00781 6C7.42203 6 7.75781 6.33579 7.75781 6.75L7.75781 11ZM7.75781 4.25C7.75781 4.66421 7.42203 5 7.00781 5C6.5936 5 6.25781 4.66421 6.25781 4.25V4C6.25781 3.58579 6.5936 3.25 7.00781 3.25C7.42203 3.25 7.75781 3.58579 7.75781 4V4.25Z" fill="#2EC8EE"/>
</svg>
