<svg width="16" height="16" viewBox="0 0 16 16" fill="none" xmlns="http://www.w3.org/2000/svg">
<path fill-rule="evenodd" clip-rule="evenodd" d="M8 15C11.866 15 15 11.866 15 8C15 4.13401 11.866 1 8 1C4.13401 1 1 4.13401 1 8C1 11.866 4.13401 15 8 15ZM8.75781 12C8.75781 12.4142 8.42203 12.75 8.00781 12.75C7.5936 12.75 7.25781 12.4142 7.25781 12L7.25781 7.75C7.25781 7.33579 7.5936 7 8.00781 7C8.42203 7 8.75781 7.33579 8.75781 7.75L8.75781 12ZM8.75781 5.25C8.75781 5.66421 8.42203 6 8.00781 6C7.5936 6 7.25781 5.66421 7.25781 5.25V5C7.25781 4.58579 7.5936 4.25 8.00781 4.25C8.42203 4.25 8.75781 4.58579 8.75781 5V5.25Z" fill="#A0A0A0"/>
<path fill-rule="evenodd" clip-rule="evenodd" d="M8 15C11.866 15 15 11.866 15 8C15 4.13401 11.866 1 8 1C4.13401 1 1 4.13401 1 8C1 11.866 4.13401 15 8 15ZM8.75781 12C8.75781 12.4142 8.42203 12.75 8.00781 12.75C7.5936 12.75 7.25781 12.4142 7.25781 12L7.25781 7.75C7.25781 7.33579 7.5936 7 8.00781 7C8.42203 7 8.75781 7.33579 8.75781 7.75L8.75781 12ZM8.75781 5.25C8.75781 5.66421 8.42203 6 8.00781 6C7.5936 6 7.25781 5.66421 7.25781 5.25V5C7.25781 4.58579 7.5936 4.25 8.00781 4.25C8.42203 4.25 8.75781 4.58579 8.75781 5V5.25Z" fill="#A0A0A0"/>
</svg>
