<svg width="14" height="14" viewBox="0 0 14 14" fill="none" xmlns="http://www.w3.org/2000/svg">
<path fill-rule="evenodd" clip-rule="evenodd" d="M7 14C10.866 14 14 10.866 14 7C14 3.13401 10.866 0 7 0C3.13401 0 0 3.13401 0 7C0 10.866 3.13401 14 7 14ZM10.5857 5.46855C10.8444 5.1451 10.792 4.67313 10.4685 4.41438C10.1451 4.15562 9.67311 4.20806 9.41435 4.53151L5.93781 8.87718L4.53033 7.4697C4.23744 7.1768 3.76256 7.1768 3.46967 7.4697C3.17678 7.76259 3.17678 8.23746 3.46967 8.53036L5.46967 10.5304C5.62052 10.6812 5.82847 10.7607 6.04148 10.7489C6.25448 10.7371 6.45238 10.6351 6.58565 10.4685L10.5857 5.46855Z" fill="#63C174"/>
</svg>
