<svg width="14" height="13" viewBox="0 0 14 13" fill="none" xmlns="http://www.w3.org/2000/svg">
<path fill-rule="evenodd" clip-rule="evenodd" d="M0.0910318 11.8919C-0.0352699 12.1243 -0.0298225 12.406 0.105368 12.6333C0.240559 12.8607 0.485501 13 0.75 13H13.25C13.5145 13 13.7594 12.8607 13.8946 12.6333C14.0298 12.406 14.0353 12.1243 13.909 11.8919L7.65897 0.391865C7.52772 0.150359 7.27487 0 7 0C6.72513 0 6.47228 0.150359 6.34103 0.391865L0.0910318 11.8919ZM7 3.25C6.58579 3.25 6.25 3.58579 6.25 4V8.25C6.25 8.66421 6.58579 9 7 9C7.41421 9 7.75 8.66421 7.75 8.25V4C7.75 3.58579 7.41421 3.25 7 3.25ZM7 10C6.58579 10 6.25 10.3358 6.25 10.75V11C6.25 11.4142 6.58579 11.75 7 11.75C7.41421 11.75 7.75 11.4142 7.75 11V10.75C7.75 10.3358 7.41421 10 7 10Z" fill="#F0C000"/>
</svg>
