<svg width="16" height="16" viewBox="0 0 16 16" fill="none" xmlns="http://www.w3.org/2000/svg">
<path fill-rule="evenodd" clip-rule="evenodd" d="M1 7C1 3.68629 3.68629 1 7 1C10.3137 1 13 3.68629 13 7C13 8.38653 12.5297 9.66322 11.7399 10.6792L14.5303 13.4697C14.8232 13.7626 14.8232 14.2374 14.5303 14.5303C14.2374 14.8232 13.7626 14.8232 13.4697 14.5303L10.6792 11.7399C9.66322 12.5297 8.38653 13 7 13C3.68629 13 1 10.3137 1 7ZM7 11.5C4.51472 11.5 2.5 9.48528 2.5 7C2.5 4.51472 4.51472 2.5 7 2.5C9.48528 2.5 11.5 4.51472 11.5 7C11.5 9.48528 9.48528 11.5 7 11.5Z" fill="#6F6E77"/>
</svg>
