<?xml version="1.0" encoding="UTF-8" standalone="no"?>
<svg
   xmlns:dc="http://purl.org/dc/elements/1.1/"
   xmlns:cc="http://creativecommons.org/ns#"
   xmlns:rdf="http://www.w3.org/1999/02/22-rdf-syntax-ns#"
   xmlns:svg="http://www.w3.org/2000/svg"
   xmlns="http://www.w3.org/2000/svg"
   xmlns:sodipodi="http://sodipodi.sourceforge.net/DTD/sodipodi-0.dtd"
   xmlns:inkscape="http://www.inkscape.org/namespaces/inkscape"
   width="126"
   height="218"
   viewBox="0 0 126 218"
   version="1.1"
   id="svg31"
   sodipodi:docname="dotty-logo.svg"
   inkscape:version="0.92.1 r15371">
  <metadata
     id="metadata37">
    <rdf:RDF>
      <cc:Work
         rdf:about="">
        <dc:format>image/svg+xml</dc:format>
        <dc:type
           rdf:resource="http://purl.org/dc/dcmitype/StillImage" />
        <dc:title></dc:title>
      </cc:Work>
    </rdf:RDF>
  </metadata>
  <defs
     id="defs35" />
  <sodipodi:namedview
     pagecolor="#ffffff"
     bordercolor="#666666"
     borderopacity="1"
     objecttolerance="10"
     gridtolerance="10"
     guidetolerance="10"
     inkscape:pageopacity="0"
     inkscape:pageshadow="2"
     inkscape:window-width="3840"
     inkscape:window-height="2007"
     id="namedview33"
     showgrid="false"
     scale-x="1"
     fit-margin-top="0"
     fit-margin-left="0"
     fit-margin-right="0"
     fit-margin-bottom="0"
     inkscape:zoom="6.123934"
     inkscape:cx="86.743093"
     inkscape:cy="116.03617"
     inkscape:window-x="0"
     inkscape:window-y="0"
     inkscape:window-maximized="1"
     inkscape:current-layer="svg31" />
  <g
     id="Page-1"
     transform="matrix(2,0,0,2,-1,0)"
     style="fill:none;fill-rule:evenodd;stroke:none;stroke-width:1">
    <g
       id="logo-background"
       transform="translate(0,16)"
       style="opacity:0.45;fill:#ca445e">
      <path
         d="m 0.5,59.5 c 0,0 62.9,6.3 62.9,16.8 V 51.1 c 0,0 0,-10.5 -62.9,-16.8 z"
         id="logo-background-bottom"
         inkscape:connector-curvature="0" />
      <path
         d="m 0.5,25.9 c 0,0 62.9,6.3 62.9,16.8 V 17.5 c 0,0 0,-10.5 -62.9,-16.8 v 9.8 z"
         id="logo-background-top"
         inkscape:connector-curvature="0" />
    </g>
    <g
       id="logo-foreground"
       style="fill:#ca445e">
      <path
         d="M 0.5,109 V 83.8 c 0,0 62.9,-6.3 62.9,-16.8 v 25.2 c 0.1,0.1 0.1,10.5 -62.9,16.8"
         id="Logo_Foreground_Bottom"
         inkscape:connector-curvature="0" />
      <path
         d="m 0.5,50.3 c 0,0 62.9,-6.3 62.9,-16.8 v 25.2 c 0,0 0,10.5 -62.9,16.8 z"
         id="Logo_Foreground_Middle"
         inkscape:connector-curvature="0" />
      <path
         d="m 63.5,0 v 25.2 c 0,0 0,10.5 -62.9,16.8 V 16.7 C 0.5,16.7 63.5,10.5 63.5,0"
         id="logo-foreground-top"
         inkscape:connector-curvature="0" />
    </g>
    <g
       id="dots"
       transform="translate(4,10)"
       style="fill:#ffffff">
      <g
         id="bottom"
         transform="translate(0,67.5)">
        <path
           d="m 1.4471104,12.288554 c 0.00308,-3.68e-4 0.00308,-3.68e-4 0.00617,-7.35e-4 0.4644125,-0.05534 0.7960311,-0.476683 0.7406909,-0.941096 -0.05534,-0.464412 -0.476683,-0.796031 -0.9410955,-0.74069 -0.00307,3.65e-4 -0.00307,3.65e-4 -0.00613,7.3e-4 -0.4644136,0.05533 -0.79604082,0.476667 -0.74071012,0.941081 0.0553307,0.464413 0.47666671,0.79604 0.94108032,0.74071 z m 7.9014792,-0.158063 c 0.0055,-7.35e-4 0.0055,-7.35e-4 0.011004,-0.0015 0.8211344,-0.10968 1.3978824,-0.864254 1.2882024,-1.685389 -0.10968,-0.8211341 -0.8642544,-1.3978819 -1.6853889,-1.2882019 -0.00547,7.309e-4 -0.00547,7.309e-4 -0.010942,0.00146 -0.8211367,0.109663 -1.3979002,0.8642249 -1.2882372,1.6853619 0.109663,0.821136 0.8642253,1.3979 1.685362,1.288237 z m 7.6580694,-1.081178 c 0.0055,-8.15e-4 0.0055,-8.15e-4 0.01092,-0.0016 0.819358,-0.122246 1.384479,-0.885566 1.262234,-1.704924 -0.122245,-0.819358 -0.885566,-1.3844795 -1.704924,-1.2622341 -0.0054,8.094e-4 -0.0054,8.094e-4 -0.01085,0.00162 -0.819361,0.1222261 -1.3845,0.8855332 -1.262274,1.7048941 0.122226,0.819361 0.885533,1.3845 1.704894,1.262274 z m 7.815849,-0.626067 c 0.0073,-0.0012 0.0073,-0.0012 0.01452,-0.0024 1.085223,-0.182142 1.817315,-1.2095442 1.635173,-2.2947675 C 26.29006,7.0408182 25.262658,6.308726 24.177435,6.4908678 c -0.0072,0.00121 -0.0072,0.00121 -0.01441,0.00242 -1.085228,0.1821104 -1.81735,1.2094916 -1.63524,2.2947201 0.18211,1.0852286 1.209492,1.8173501 2.29472,1.6352401 z M 32.472526,9.05261 C 33.553211,8.8453299 34.261245,7.8012285 34.053965,6.7205442 33.846685,5.6398599 32.802583,4.9318259 31.721899,5.139106 c -0.0072,0.00138 -0.0072,0.00138 -0.01435,0.00275 -1.080692,0.2072385 -1.788766,1.2513128 -1.581528,2.332005 0.207239,1.0806923 1.251313,1.7887664 2.332005,1.5815279 0.0073,-0.00139 0.0073,-0.00139 0.0145,-0.00278 z m 7.399861,-2.1578412 c 0.0055,-0.00124 0.0055,-0.00124 0.01104,-0.00249 0.808148,-0.1821748 1.3156,-0.9849903 1.133426,-1.7931388 -0.182175,-0.8081484 -0.984991,-1.3156003 -1.793139,-1.1334255 -0.0054,0.00123 -0.0054,0.00123 -0.01088,0.00245 -0.808159,0.1821289 -1.315657,0.9849156 -1.133528,1.7930744 0.182129,0.8081587 0.984916,1.3156562 1.793075,1.1335274 z m 7.555225,-1.8864844 c 0.0054,-0.0015 0.0054,-0.0015 0.01074,-0.003 C 48.23629,4.7825897 48.702611,3.9552056 48.479914,3.1572722 48.257218,2.3593388 47.429834,1.8930173 46.6319,2.1157139 c -0.0052,0.00146 -0.0052,0.00146 -0.01047,0.00292 -0.797954,0.2226215 -1.264354,1.0499618 -1.041732,1.8479161 0.222621,0.7979544 1.049962,1.2643537 1.847916,1.0417321 z M 54.419759,2.3064387 C 54.855693,2.1369588 55.071697,1.6461737 54.902217,1.2102394 54.732738,0.77430511 54.241952,0.55830113 53.806018,0.727781 c -0.0028,0.001091 -0.0028,0.001091 -0.0056,0.002181 -0.43597,0.16938672 -0.652079,0.6601257 -0.482692,1.0960962 0.169386,0.4359705 0.660125,0.6520794 1.096096,0.4826926 0.003,-0.00116 0.003,-0.00116 0.0059,-0.00231 z"
           id="Shape"
           inkscape:connector-curvature="0" />
        <path
           d="m 1.6776035,20.096503 c 0.00546,-6.51e-4 0.00546,-6.51e-4 0.010923,-0.0013 0.8226074,-0.09802 1.4099988,-0.844343 1.3119755,-1.66695 -0.098023,-0.822607 -0.844342,-1.409999 -1.6669494,-1.311975 -0.00543,6.47e-4 -0.00543,6.47e-4 -0.010862,0.0013 -0.8226094,0.09801 -1.41001611,0.844313 -1.31200961,1.666922 0.09800651,0.82261 0.84431315,1.410016 1.66692251,1.31201 z m 7.6709861,-0.969082 c 0.0055,-7.35e-4 0.0055,-7.35e-4 0.011004,-0.0015 0.8211344,-0.10968 1.3978824,-0.864254 1.2882024,-1.685389 -0.10968,-0.821134 -0.8642544,-1.397882 -1.6853889,-1.288202 -0.00547,7.31e-4 -0.00547,7.31e-4 -0.010942,0.0015 -0.8211367,0.109663 -1.3979002,0.864226 -1.2882372,1.685362 0.109663,0.821137 0.8642253,1.397901 1.685362,1.288238 z m 7.8281534,-0.501798 c 0.0073,-0.0011 0.0073,-0.0011 0.01451,-0.0022 1.088381,-0.162383 1.839051,-1.176327 1.676668,-2.264708 -0.162382,-1.088382 -1.176327,-1.839052 -2.264708,-1.676669 -0.0072,0.0011 -0.0072,0.0011 -0.01441,0.0022 -1.088385,0.162357 -1.839079,1.176284 -1.676722,2.264669 0.162357,1.088385 1.176284,1.839079 2.264669,1.676722 z m 7.660286,-1.207885 c 1.085223,-0.182142 1.817315,-1.209544 1.635173,-2.294768 -0.182142,-1.085223 -1.209544,-1.817315 -2.294767,-1.635173 -0.0072,0.0012 -0.0072,0.0012 -0.01441,0.0024 -1.085228,0.18211 -1.81735,1.209491 -1.63524,2.29472 0.18211,1.085228 1.209492,1.81735 2.29472,1.63524 0.0073,-0.0012 0.0073,-0.0012 0.01452,-0.0024 z m 7.635497,-1.356653 c 1.080685,-0.207886 1.788719,-1.255039 1.581439,-2.338883 -0.20728,-1.083843 -1.251382,-1.793947 -2.332066,-1.586061 -0.0072,0.0014 -0.0072,0.0014 -0.01435,0.0028 -1.080692,0.207845 -1.788766,1.254971 -1.581528,2.338822 0.207239,1.083852 1.251313,1.793995 2.332005,1.586151 0.0073,-0.0014 0.0073,-0.0014 0.0145,-0.0028 z m 7.598197,-1.591537 c 0.0073,-0.0017 0.0073,-0.0017 0.01467,-0.0033 1.073376,-0.241963 1.74737,-1.308256 1.505407,-2.381632 -0.241964,-1.073377 -1.308257,-1.747371 -2.381633,-1.505407 -0.0072,0.0016 -0.0072,0.0016 -0.01445,0.0033 -1.073391,0.241902 -1.747445,1.308157 -1.505543,2.381547 0.241902,1.073391 1.308157,1.747445 2.381548,1.505543 z m 7.356889,-2.461263 c 0.0054,-0.0015 0.0054,-0.0015 0.01074,-0.003 0.797934,-0.222696 1.264255,-1.05008 1.041558,-1.848014 -0.222696,-0.7979332 -1.05008,-1.2642547 -1.848014,-1.0415581 -0.0052,0.00146 -0.0052,0.00146 -0.01047,0.00292 -0.797954,0.2226215 -1.264354,1.0499621 -1.041732,1.8479161 0.222621,0.797955 1.049962,1.264354 1.847916,1.041733 z m 7.47236,-2.4326553 c 0.0053,-0.00205 0.0053,-0.00205 0.01054,-0.0041 0.772128,-0.3001832 1.154715,-1.1694631 0.854532,-1.941591 -0.300183,-0.772128 -1.169463,-1.1547148 -1.941591,-0.8545316 -0.005,0.00193 -0.005,0.00193 -0.0099,0.00386 -0.772192,0.3000182 -1.154964,1.1692164 -0.854946,1.9414084 0.300018,0.7721921 1.169216,1.1549647 1.941408,0.8549465 z"
           id="path10"
           inkscape:connector-curvature="0" />
        <path
           d="m 1.453277,26.697817 c 0.093198,-0.01111 0.1810474,-0.03695 0.2614952,-0.07493 0.3204312,-0.151258 0.5234303,-0.494955 0.4791957,-0.86617 -0.05534,-0.464412 -0.476683,-0.796031 -0.9410955,-0.740691 -0.00307,3.66e-4 -0.00307,3.66e-4 -0.00613,7.31e-4 -0.4644136,0.05533 -0.79604082,0.476667 -0.74071012,0.94108 0.0553307,0.464414 0.47666671,0.796041 0.94108032,0.740711 0.00308,-3.68e-4 0.00308,-3.68e-4 0.00617,-7.35e-4 z m 7.8953126,-0.570396 c 0.0055,-7.35e-4 0.0055,-7.35e-4 0.011004,-0.0015 0.8211344,-0.10968 1.3978824,-0.864254 1.2882024,-1.685389 -0.10968,-0.821134 -0.8642544,-1.397882 -1.6853889,-1.288202 -0.00547,7.31e-4 -0.00547,7.31e-4 -0.010942,0.0015 -0.8211367,0.109663 -1.3979002,0.864226 -1.2882372,1.685362 0.109663,0.821137 0.8642253,1.397901 1.685362,1.288238 z m 7.6580694,-1.081178 c 0.0055,-8.15e-4 0.0055,-8.15e-4 0.01092,-0.0016 0.819358,-0.122246 1.384479,-0.885566 1.262234,-1.704924 -0.122245,-0.819358 -0.885566,-1.38448 -1.704924,-1.262234 -0.0054,8.09e-4 -0.0054,8.09e-4 -0.01085,0.0016 -0.819361,0.122226 -1.3845,0.885534 -1.262274,1.704894 0.122226,0.819361 0.885533,1.384501 1.704894,1.262275 z m 7.815849,-0.626068 c 0.0073,-0.0012 0.0073,-0.0012 0.01452,-0.0024 1.085223,-0.182142 1.817315,-1.209544 1.635173,-2.294768 -0.182142,-1.085223 -1.209544,-1.817315 -2.294767,-1.635173 -0.0072,0.0012 -0.0072,0.0012 -0.01441,0.0024 -1.085228,0.182111 -1.81735,1.209492 -1.63524,2.294721 0.18211,1.085228 1.209492,1.81735 2.29472,1.63524 z m 7.650018,-1.370635 c 1.080685,-0.20728 1.788719,-1.251382 1.581439,-2.332066 -0.20728,-1.080684 -1.251382,-1.788718 -2.332066,-1.581438 -0.0072,0.0014 -0.0072,0.0014 -0.01435,0.0028 -1.080692,0.207238 -1.788766,1.251313 -1.581528,2.332005 0.207239,1.080692 1.251313,1.788766 2.332005,1.581528 0.0073,-0.0014 0.0073,-0.0014 0.0145,-0.0028 z m 7.399861,-2.154771 c 0.0055,-0.0012 0.0055,-0.0012 0.01104,-0.0025 0.808148,-0.182174 1.3156,-0.98499 1.133426,-1.793138 -0.182175,-0.808149 -0.984991,-1.315601 -1.793139,-1.133426 -0.0054,0.0012 -0.0054,0.0012 -0.01088,0.0025 -0.808159,0.182129 -1.315657,0.984916 -1.133528,1.793074 0.182129,0.808159 0.984916,1.315657 1.793075,1.133528 z m 7.555225,-1.886485 c 0.0054,-0.0015 0.0054,-0.0015 0.01074,-0.003 0.797934,-0.222696 1.264255,-1.05008 1.041558,-1.848014 -0.222696,-0.797933 -1.05008,-1.264255 -1.848014,-1.041558 -0.0052,0.0015 -0.0052,0.0015 -0.01047,0.0029 -0.797954,0.222622 -1.264354,1.049962 -1.041732,1.847916 0.222621,0.797955 1.049962,1.264354 1.847916,1.041732 z m 6.986198,-3.299533 c 0.003,-0.0012 0.003,-0.0012 0.0059,-0.0023 0.435934,-0.169479 0.651938,-0.660265 0.482458,-1.096199 -0.169479,-0.435934 -0.660265,-0.651938 -1.096199,-0.482458 -0.0028,0.0011 -0.0028,0.0011 -0.0056,0.0022 -0.43597,0.169386 -0.652079,0.660125 -0.482692,1.096096 0.169386,0.43597 0.660125,0.652079 1.096096,0.482693 z"
           id="path12"
           inkscape:connector-curvature="0" />
      </g>
      <g
         id="middle"
         transform="translate(0,33.900002)">
        <path
           d="m 1.4471104,12.288554 c 0.00308,-3.68e-4 0.00308,-3.68e-4 0.00617,-7.35e-4 0.4644125,-0.05534 0.7960311,-0.476683 0.7406909,-0.941096 -0.05534,-0.464412 -0.476683,-0.796031 -0.9410955,-0.74069 -0.00307,3.65e-4 -0.00307,3.65e-4 -0.00613,7.3e-4 -0.4644136,0.05533 -0.79604082,0.476667 -0.74071012,0.941081 0.0553307,0.464413 0.47666671,0.79604 0.94108032,0.74071 z m 7.9014792,-0.158063 c 0.0055,-7.35e-4 0.0055,-7.35e-4 0.011004,-0.0015 0.8211344,-0.10968 1.3978824,-0.864254 1.2882024,-1.685389 -0.10968,-0.8211341 -0.8642544,-1.3978819 -1.6853889,-1.2882019 -0.00547,7.309e-4 -0.00547,7.309e-4 -0.010942,0.00146 -0.8211367,0.109663 -1.3979002,0.8642249 -1.2882372,1.6853619 0.109663,0.821136 0.8642253,1.3979 1.685362,1.288237 z m 7.6580694,-1.081178 c 0.0055,-8.15e-4 0.0055,-8.15e-4 0.01092,-0.0016 0.819358,-0.122246 1.384479,-0.885566 1.262234,-1.704924 -0.122245,-0.819358 -0.885566,-1.3844795 -1.704924,-1.2622341 -0.0054,8.094e-4 -0.0054,8.094e-4 -0.01085,0.00162 -0.819361,0.1222261 -1.3845,0.8855332 -1.262274,1.7048941 0.122226,0.819361 0.885533,1.3845 1.704894,1.262274 z m 7.815849,-0.626067 c 0.0073,-0.0012 0.0073,-0.0012 0.01452,-0.0024 1.085223,-0.182142 1.817315,-1.2095442 1.635173,-2.2947675 C 26.29006,7.0408182 25.262658,6.308726 24.177435,6.4908678 c -0.0072,0.00121 -0.0072,0.00121 -0.01441,0.00242 -1.085228,0.1821104 -1.81735,1.2094916 -1.63524,2.2947201 0.18211,1.0852286 1.209492,1.8173501 2.29472,1.6352401 z M 32.472526,9.05261 C 33.553211,8.8453299 34.261245,7.8012285 34.053965,6.7205442 33.846685,5.6398599 32.802583,4.9318259 31.721899,5.139106 c -0.0072,0.00138 -0.0072,0.00138 -0.01435,0.00275 -1.080692,0.2072385 -1.788766,1.2513128 -1.581528,2.332005 0.207239,1.0806923 1.251313,1.7887664 2.332005,1.5815279 0.0073,-0.00139 0.0073,-0.00139 0.0145,-0.00278 z m 7.399861,-2.1578412 c 0.0055,-0.00124 0.0055,-0.00124 0.01104,-0.00249 0.808148,-0.1821748 1.3156,-0.9849903 1.133426,-1.7931388 -0.182175,-0.8081484 -0.984991,-1.3156003 -1.793139,-1.1334255 -0.0054,0.00123 -0.0054,0.00123 -0.01088,0.00245 -0.808159,0.1821289 -1.315657,0.9849156 -1.133528,1.7930744 0.182129,0.8081587 0.984916,1.3156562 1.793075,1.1335274 z m 7.555225,-1.8864844 c 0.0054,-0.0015 0.0054,-0.0015 0.01074,-0.003 C 48.23629,4.7825897 48.702611,3.9552056 48.479914,3.1572722 48.257218,2.3593388 47.429834,1.8930173 46.6319,2.1157139 c -0.0052,0.00146 -0.0052,0.00146 -0.01047,0.00292 -0.797954,0.2226215 -1.264354,1.0499618 -1.041732,1.8479161 0.222621,0.7979544 1.049962,1.2643537 1.847916,1.0417321 z M 54.419759,2.3064387 C 54.855693,2.1369588 55.071697,1.6461737 54.902217,1.2102394 54.732738,0.77430511 54.241952,0.55830113 53.806018,0.727781 c -0.0028,0.001091 -0.0028,0.001091 -0.0056,0.002181 -0.43597,0.16938672 -0.652079,0.6601257 -0.482692,1.0960962 0.169386,0.4359705 0.660125,0.6520794 1.096096,0.4826926 0.003,-0.00116 0.003,-0.00116 0.0059,-0.00231 z"
           id="path15"
           inkscape:connector-curvature="0" />
        <path
           d="m 1.6776035,20.096503 c 0.00546,-6.51e-4 0.00546,-6.51e-4 0.010923,-0.0013 0.8226074,-0.09802 1.4099988,-0.844343 1.3119755,-1.66695 -0.098023,-0.822607 -0.844342,-1.409999 -1.6669494,-1.311975 -0.00543,6.47e-4 -0.00543,6.47e-4 -0.010862,0.0013 -0.8226094,0.09801 -1.41001611,0.844313 -1.31200961,1.666922 0.09800651,0.82261 0.84431315,1.410016 1.66692251,1.31201 z m 7.6709861,-0.969082 c 0.0055,-7.35e-4 0.0055,-7.35e-4 0.011004,-0.0015 0.8211344,-0.10968 1.3978824,-0.864254 1.2882024,-1.685389 -0.10968,-0.821134 -0.8642544,-1.397882 -1.6853889,-1.288202 -0.00547,7.31e-4 -0.00547,7.31e-4 -0.010942,0.0015 -0.8211367,0.109663 -1.3979002,0.864226 -1.2882372,1.685362 0.109663,0.821137 0.8642253,1.397901 1.685362,1.288238 z m 7.8281534,-0.501798 c 0.0073,-0.0011 0.0073,-0.0011 0.01451,-0.0022 1.088381,-0.162383 1.839051,-1.176327 1.676668,-2.264708 -0.162382,-1.088382 -1.176327,-1.839052 -2.264708,-1.676669 -0.0072,0.0011 -0.0072,0.0011 -0.01441,0.0022 -1.088385,0.162357 -1.839079,1.176284 -1.676722,2.264669 0.162357,1.088385 1.176284,1.839079 2.264669,1.676722 z m 7.660286,-1.207885 c 1.085223,-0.182142 1.817315,-1.209544 1.635173,-2.294768 -0.182142,-1.085223 -1.209544,-1.817315 -2.294767,-1.635173 -0.0072,0.0012 -0.0072,0.0012 -0.01441,0.0024 -1.085228,0.18211 -1.81735,1.209491 -1.63524,2.29472 0.18211,1.085228 1.209492,1.81735 2.29472,1.63524 0.0073,-0.0012 0.0073,-0.0012 0.01452,-0.0024 z m 7.635497,-1.356653 c 1.080685,-0.207886 1.788719,-1.255039 1.581439,-2.338883 -0.20728,-1.083843 -1.251382,-1.793947 -2.332066,-1.586061 -0.0072,0.0014 -0.0072,0.0014 -0.01435,0.0028 -1.080692,0.207845 -1.788766,1.254971 -1.581528,2.338822 0.207239,1.083852 1.251313,1.793995 2.332005,1.586151 0.0073,-0.0014 0.0073,-0.0014 0.0145,-0.0028 z m 7.598197,-1.591537 c 0.0073,-0.0017 0.0073,-0.0017 0.01467,-0.0033 1.073376,-0.241963 1.74737,-1.308256 1.505407,-2.381632 -0.241964,-1.073377 -1.308257,-1.747371 -2.381633,-1.505407 -0.0072,0.0016 -0.0072,0.0016 -0.01445,0.0033 -1.073391,0.241902 -1.747445,1.308157 -1.505543,2.381547 0.241902,1.073391 1.308157,1.747445 2.381548,1.505543 z m 7.356889,-2.461263 c 0.0054,-0.0015 0.0054,-0.0015 0.01074,-0.003 0.797934,-0.222696 1.264255,-1.05008 1.041558,-1.848014 -0.222696,-0.7979332 -1.05008,-1.2642547 -1.848014,-1.0415581 -0.0052,0.00146 -0.0052,0.00146 -0.01047,0.00292 -0.797954,0.2226215 -1.264354,1.0499621 -1.041732,1.8479161 0.222621,0.797955 1.049962,1.264354 1.847916,1.041733 z m 7.47236,-2.4326553 c 0.0053,-0.00205 0.0053,-0.00205 0.01054,-0.0041 0.772128,-0.3001832 1.154715,-1.1694631 0.854532,-1.941591 -0.300183,-0.772128 -1.169463,-1.1547148 -1.941591,-0.8545316 -0.005,0.00193 -0.005,0.00193 -0.0099,0.00386 -0.772192,0.3000182 -1.154964,1.1692164 -0.854946,1.9414084 0.300018,0.7721921 1.169216,1.1549647 1.941408,0.8549465 z"
           id="path17"
           inkscape:connector-curvature="0" />
        <path
           d="m 1.453277,26.697817 c 0.093198,-0.01111 0.1810474,-0.03695 0.2614952,-0.07493 0.3204312,-0.151258 0.5234303,-0.494955 0.4791957,-0.86617 -0.05534,-0.464412 -0.476683,-0.796031 -0.9410955,-0.740691 -0.00307,3.66e-4 -0.00307,3.66e-4 -0.00613,7.31e-4 -0.4644136,0.05533 -0.79604082,0.476667 -0.74071012,0.94108 0.0553307,0.464414 0.47666671,0.796041 0.94108032,0.740711 0.00308,-3.68e-4 0.00308,-3.68e-4 0.00617,-7.35e-4 z m 7.8953126,-0.570396 c 0.0055,-7.35e-4 0.0055,-7.35e-4 0.011004,-0.0015 0.8211344,-0.10968 1.3978824,-0.864254 1.2882024,-1.685389 -0.10968,-0.821134 -0.8642544,-1.397882 -1.6853889,-1.288202 -0.00547,7.31e-4 -0.00547,7.31e-4 -0.010942,0.0015 -0.8211367,0.109663 -1.3979002,0.864226 -1.2882372,1.685362 0.109663,0.821137 0.8642253,1.397901 1.685362,1.288238 z m 7.6580694,-1.081178 c 0.0055,-8.15e-4 0.0055,-8.15e-4 0.01092,-0.0016 0.819358,-0.122246 1.384479,-0.885566 1.262234,-1.704924 -0.122245,-0.819358 -0.885566,-1.38448 -1.704924,-1.262234 -0.0054,8.09e-4 -0.0054,8.09e-4 -0.01085,0.0016 -0.819361,0.122226 -1.3845,0.885534 -1.262274,1.704894 0.122226,0.819361 0.885533,1.384501 1.704894,1.262275 z m 7.815849,-0.626068 c 0.0073,-0.0012 0.0073,-0.0012 0.01452,-0.0024 1.085223,-0.182142 1.817315,-1.209544 1.635173,-2.294768 -0.182142,-1.085223 -1.209544,-1.817315 -2.294767,-1.635173 -0.0072,0.0012 -0.0072,0.0012 -0.01441,0.0024 -1.085228,0.182111 -1.81735,1.209492 -1.63524,2.294721 0.18211,1.085228 1.209492,1.81735 2.29472,1.63524 z m 7.650018,-1.370635 c 1.080685,-0.20728 1.788719,-1.251382 1.581439,-2.332066 -0.20728,-1.080684 -1.251382,-1.788718 -2.332066,-1.581438 -0.0072,0.0014 -0.0072,0.0014 -0.01435,0.0028 -1.080692,0.207238 -1.788766,1.251313 -1.581528,2.332005 0.207239,1.080692 1.251313,1.788766 2.332005,1.581528 0.0073,-0.0014 0.0073,-0.0014 0.0145,-0.0028 z m 7.399861,-2.154771 c 0.0055,-0.0012 0.0055,-0.0012 0.01104,-0.0025 0.808148,-0.182174 1.3156,-0.98499 1.133426,-1.793138 -0.182175,-0.808149 -0.984991,-1.315601 -1.793139,-1.133426 -0.0054,0.0012 -0.0054,0.0012 -0.01088,0.0025 -0.808159,0.182129 -1.315657,0.984916 -1.133528,1.793074 0.182129,0.808159 0.984916,1.315657 1.793075,1.133528 z m 7.555225,-1.886485 c 0.0054,-0.0015 0.0054,-0.0015 0.01074,-0.003 0.797934,-0.222696 1.264255,-1.05008 1.041558,-1.848014 -0.222696,-0.797933 -1.05008,-1.264255 -1.848014,-1.041558 -0.0052,0.0015 -0.0052,0.0015 -0.01047,0.0029 -0.797954,0.222622 -1.264354,1.049962 -1.041732,1.847916 0.222621,0.797955 1.049962,1.264354 1.847916,1.041732 z m 6.986198,-3.299533 c 0.003,-0.0012 0.003,-0.0012 0.0059,-0.0023 0.435934,-0.169479 0.651938,-0.660265 0.482458,-1.096199 -0.169479,-0.435934 -0.660265,-0.651938 -1.096199,-0.482458 -0.0028,0.0011 -0.0028,0.0011 -0.0056,0.0022 -0.43597,0.169386 -0.652079,0.660125 -0.482692,1.096096 0.169386,0.43597 0.660125,0.652079 1.096096,0.482693 z"
           id="path19"
           inkscape:connector-curvature="0" />
      </g>
      <g
         id="top">
        <path
           d="m 1.4471104,12.288554 c 0.00308,-3.68e-4 0.00308,-3.68e-4 0.00617,-7.35e-4 0.4644125,-0.05534 0.7960311,-0.476683 0.7406909,-0.941096 -0.05534,-0.464412 -0.476683,-0.796031 -0.9410955,-0.74069 -0.00307,3.65e-4 -0.00307,3.65e-4 -0.00613,7.3e-4 -0.4644136,0.05533 -0.79604082,0.476667 -0.74071012,0.941081 0.0553307,0.464413 0.47666671,0.79604 0.94108032,0.74071 z m 7.9014792,-0.158063 c 0.0055,-7.35e-4 0.0055,-7.35e-4 0.011004,-0.0015 0.8211344,-0.10968 1.3978824,-0.864254 1.2882024,-1.685389 -0.10968,-0.8211341 -0.8642544,-1.3978819 -1.6853889,-1.2882019 -0.00547,7.309e-4 -0.00547,7.309e-4 -0.010942,0.00146 -0.8211367,0.109663 -1.3979002,0.8642249 -1.2882372,1.6853619 0.109663,0.821136 0.8642253,1.3979 1.685362,1.288237 z m 7.6580694,-1.081178 c 0.0055,-8.15e-4 0.0055,-8.15e-4 0.01092,-0.0016 0.819358,-0.122246 1.384479,-0.885566 1.262234,-1.704924 -0.122245,-0.819358 -0.885566,-1.3844795 -1.704924,-1.2622341 -0.0054,8.094e-4 -0.0054,8.094e-4 -0.01085,0.00162 -0.819361,0.1222261 -1.3845,0.8855332 -1.262274,1.7048941 0.122226,0.819361 0.885533,1.3845 1.704894,1.262274 z m 7.815849,-0.626067 c 0.0073,-0.0012 0.0073,-0.0012 0.01452,-0.0024 1.085223,-0.182142 1.817315,-1.2095442 1.635173,-2.2947675 C 26.29006,7.0408182 25.262658,6.308726 24.177435,6.4908678 c -0.0072,0.00121 -0.0072,0.00121 -0.01441,0.00242 -1.085228,0.1821104 -1.81735,1.2094916 -1.63524,2.2947201 0.18211,1.0852286 1.209492,1.8173501 2.29472,1.6352401 z M 32.472526,9.05261 C 33.553211,8.8453299 34.261245,7.8012285 34.053965,6.7205442 33.846685,5.6398599 32.802583,4.9318259 31.721899,5.139106 c -0.0072,0.00138 -0.0072,0.00138 -0.01435,0.00275 -1.080692,0.2072385 -1.788766,1.2513128 -1.581528,2.332005 0.207239,1.0806923 1.251313,1.7887664 2.332005,1.5815279 0.0073,-0.00139 0.0073,-0.00139 0.0145,-0.00278 z m 7.399861,-2.1578412 c 0.0055,-0.00124 0.0055,-0.00124 0.01104,-0.00249 0.808148,-0.1821748 1.3156,-0.9849903 1.133426,-1.7931388 -0.182175,-0.8081484 -0.984991,-1.3156003 -1.793139,-1.1334255 -0.0054,0.00123 -0.0054,0.00123 -0.01088,0.00245 -0.808159,0.1821289 -1.315657,0.9849156 -1.133528,1.7930744 0.182129,0.8081587 0.984916,1.3156562 1.793075,1.1335274 z m 7.555225,-1.8864844 c 0.0054,-0.0015 0.0054,-0.0015 0.01074,-0.003 C 48.23629,4.7825897 48.702611,3.9552056 48.479914,3.1572722 48.257218,2.3593388 47.429834,1.8930173 46.6319,2.1157139 c -0.0052,0.00146 -0.0052,0.00146 -0.01047,0.00292 -0.797954,0.2226215 -1.264354,1.0499618 -1.041732,1.8479161 0.222621,0.7979544 1.049962,1.2643537 1.847916,1.0417321 z M 54.419759,2.3064387 C 54.855693,2.1369588 55.071697,1.6461737 54.902217,1.2102394 54.732738,0.77430511 54.241952,0.55830113 53.806018,0.727781 c -0.0028,0.001091 -0.0028,0.001091 -0.0056,0.002181 -0.43597,0.16938672 -0.652079,0.6601257 -0.482692,1.0960962 0.169386,0.4359705 0.660125,0.6520794 1.096096,0.4826926 0.003,-0.00116 0.003,-0.00116 0.0059,-0.00231 z"
           id="path22"
           inkscape:connector-curvature="0" />
        <path
           d="m 1.6776035,20.096503 c 0.00546,-6.51e-4 0.00546,-6.51e-4 0.010923,-0.0013 0.8226074,-0.09802 1.4099988,-0.844343 1.3119755,-1.66695 -0.098023,-0.822607 -0.844342,-1.409999 -1.6669494,-1.311975 -0.00543,6.47e-4 -0.00543,6.47e-4 -0.010862,0.0013 -0.8226094,0.09801 -1.41001611,0.844313 -1.31200961,1.666922 0.09800651,0.82261 0.84431315,1.410016 1.66692251,1.31201 z m 7.6709861,-0.969082 c 0.0055,-7.35e-4 0.0055,-7.35e-4 0.011004,-0.0015 0.8211344,-0.10968 1.3978824,-0.864254 1.2882024,-1.685389 -0.10968,-0.821134 -0.8642544,-1.397882 -1.6853889,-1.288202 -0.00547,7.31e-4 -0.00547,7.31e-4 -0.010942,0.0015 -0.8211367,0.109663 -1.3979002,0.864226 -1.2882372,1.685362 0.109663,0.821137 0.8642253,1.397901 1.685362,1.288238 z m 7.8281534,-0.501798 c 0.0073,-0.0011 0.0073,-0.0011 0.01451,-0.0022 1.088381,-0.162383 1.839051,-1.176327 1.676668,-2.264708 -0.162382,-1.088382 -1.176327,-1.839052 -2.264708,-1.676669 -0.0072,0.0011 -0.0072,0.0011 -0.01441,0.0022 -1.088385,0.162357 -1.839079,1.176284 -1.676722,2.264669 0.162357,1.088385 1.176284,1.839079 2.264669,1.676722 z m 7.660286,-1.207885 c 1.085223,-0.182142 1.817315,-1.209544 1.635173,-2.294768 -0.182142,-1.085223 -1.209544,-1.817315 -2.294767,-1.635173 -0.0072,0.0012 -0.0072,0.0012 -0.01441,0.0024 -1.085228,0.18211 -1.81735,1.209491 -1.63524,2.29472 0.18211,1.085228 1.209492,1.81735 2.29472,1.63524 0.0073,-0.0012 0.0073,-0.0012 0.01452,-0.0024 z m 7.635497,-1.356653 c 1.080685,-0.207886 1.788719,-1.255039 1.581439,-2.338883 -0.20728,-1.083843 -1.251382,-1.793947 -2.332066,-1.586061 -0.0072,0.0014 -0.0072,0.0014 -0.01435,0.0028 -1.080692,0.207845 -1.788766,1.254971 -1.581528,2.338822 0.207239,1.083852 1.251313,1.793995 2.332005,1.586151 0.0073,-0.0014 0.0073,-0.0014 0.0145,-0.0028 z m 7.598197,-1.591537 c 0.0073,-0.0017 0.0073,-0.0017 0.01467,-0.0033 1.073376,-0.241963 1.74737,-1.308256 1.505407,-2.381632 -0.241964,-1.073377 -1.308257,-1.747371 -2.381633,-1.505407 -0.0072,0.0016 -0.0072,0.0016 -0.01445,0.0033 -1.073391,0.241902 -1.747445,1.308157 -1.505543,2.381547 0.241902,1.073391 1.308157,1.747445 2.381548,1.505543 z m 7.356889,-2.461263 c 0.0054,-0.0015 0.0054,-0.0015 0.01074,-0.003 0.797934,-0.222696 1.264255,-1.05008 1.041558,-1.848014 -0.222696,-0.7979332 -1.05008,-1.2642547 -1.848014,-1.0415581 -0.0052,0.00146 -0.0052,0.00146 -0.01047,0.00292 -0.797954,0.2226215 -1.264354,1.0499621 -1.041732,1.8479161 0.222621,0.797955 1.049962,1.264354 1.847916,1.041733 z m 7.47236,-2.4326553 c 0.0053,-0.00205 0.0053,-0.00205 0.01054,-0.0041 0.772128,-0.3001832 1.154715,-1.1694631 0.854532,-1.941591 -0.300183,-0.772128 -1.169463,-1.1547148 -1.941591,-0.8545316 -0.005,0.00193 -0.005,0.00193 -0.0099,0.00386 -0.772192,0.3000182 -1.154964,1.1692164 -0.854946,1.9414084 0.300018,0.7721921 1.169216,1.1549647 1.941408,0.8549465 z"
           id="path24"
           inkscape:connector-curvature="0" />
        <path
           d="m 1.453277,26.697817 c 0.093198,-0.01111 0.1810474,-0.03695 0.2614952,-0.07493 0.3204312,-0.151258 0.5234303,-0.494955 0.4791957,-0.86617 -0.05534,-0.464412 -0.476683,-0.796031 -0.9410955,-0.740691 -0.00307,3.66e-4 -0.00307,3.66e-4 -0.00613,7.31e-4 -0.4644136,0.05533 -0.79604082,0.476667 -0.74071012,0.94108 0.0553307,0.464414 0.47666671,0.796041 0.94108032,0.740711 0.00308,-3.68e-4 0.00308,-3.68e-4 0.00617,-7.35e-4 z m 7.8953126,-0.570396 c 0.0055,-7.35e-4 0.0055,-7.35e-4 0.011004,-0.0015 0.8211344,-0.10968 1.3978824,-0.864254 1.2882024,-1.685389 -0.10968,-0.821134 -0.8642544,-1.397882 -1.6853889,-1.288202 -0.00547,7.31e-4 -0.00547,7.31e-4 -0.010942,0.0015 -0.8211367,0.109663 -1.3979002,0.864226 -1.2882372,1.685362 0.109663,0.821137 0.8642253,1.397901 1.685362,1.288238 z m 7.6580694,-1.081178 c 0.0055,-8.15e-4 0.0055,-8.15e-4 0.01092,-0.0016 0.819358,-0.122246 1.384479,-0.885566 1.262234,-1.704924 -0.122245,-0.819358 -0.885566,-1.38448 -1.704924,-1.262234 -0.0054,8.09e-4 -0.0054,8.09e-4 -0.01085,0.0016 -0.819361,0.122226 -1.3845,0.885534 -1.262274,1.704894 0.122226,0.819361 0.885533,1.384501 1.704894,1.262275 z m 7.815849,-0.626068 c 0.0073,-0.0012 0.0073,-0.0012 0.01452,-0.0024 1.085223,-0.182142 1.817315,-1.209544 1.635173,-2.294768 -0.182142,-1.085223 -1.209544,-1.817315 -2.294767,-1.635173 -0.0072,0.0012 -0.0072,0.0012 -0.01441,0.0024 -1.085228,0.182111 -1.81735,1.209492 -1.63524,2.294721 0.18211,1.085228 1.209492,1.81735 2.29472,1.63524 z m 7.650018,-1.370635 c 1.080685,-0.20728 1.788719,-1.251382 1.581439,-2.332066 -0.20728,-1.080684 -1.251382,-1.788718 -2.332066,-1.581438 -0.0072,0.0014 -0.0072,0.0014 -0.01435,0.0028 -1.080692,0.207238 -1.788766,1.251313 -1.581528,2.332005 0.207239,1.080692 1.251313,1.788766 2.332005,1.581528 0.0073,-0.0014 0.0073,-0.0014 0.0145,-0.0028 z m 7.399861,-2.154771 c 0.0055,-0.0012 0.0055,-0.0012 0.01104,-0.0025 0.808148,-0.182174 1.3156,-0.98499 1.133426,-1.793138 -0.182175,-0.808149 -0.984991,-1.315601 -1.793139,-1.133426 -0.0054,0.0012 -0.0054,0.0012 -0.01088,0.0025 -0.808159,0.182129 -1.315657,0.984916 -1.133528,1.793074 0.182129,0.808159 0.984916,1.315657 1.793075,1.133528 z m 7.555225,-1.886485 c 0.0054,-0.0015 0.0054,-0.0015 0.01074,-0.003 0.797934,-0.222696 1.264255,-1.05008 1.041558,-1.848014 -0.222696,-0.797933 -1.05008,-1.264255 -1.848014,-1.041558 -0.0052,0.0015 -0.0052,0.0015 -0.01047,0.0029 -0.797954,0.222622 -1.264354,1.049962 -1.041732,1.847916 0.222621,0.797955 1.049962,1.264354 1.847916,1.041732 z m 6.986198,-3.299533 c 0.003,-0.0012 0.003,-0.0012 0.0059,-0.0023 0.435934,-0.169479 0.651938,-0.660265 0.482458,-1.096199 -0.169479,-0.435934 -0.660265,-0.651938 -1.096199,-0.482458 -0.0028,0.0011 -0.0028,0.0011 -0.0056,0.0022 -0.43597,0.169386 -0.652079,0.660125 -0.482692,1.096096 0.169386,0.43597 0.660125,0.652079 1.096096,0.482693 z"
           id="path26"
           inkscape:connector-curvature="0" />
      </g>
    </g>
  </g>
</svg>
