<svg width="16" height="16" viewBox="0 0 16 16" fill="none" xmlns="http://www.w3.org/2000/svg">
<path fill-rule="evenodd" clip-rule="evenodd" d="M11.5683 6.17002C11.5721 6.24902 11.5739 6.32832 11.5739 6.40821C11.5739 8.84159 9.72151 11.6476 6.33451 11.6476C5.29454 11.6476 4.32678 11.3425 3.51172 10.8198C3.65585 10.8372 3.80268 10.8461 3.95123 10.8461C4.81374 10.8461 5.60787 10.5516 6.23811 10.0576C5.43252 10.0425 4.75244 9.51015 4.5181 8.77879C4.6307 8.79997 4.74595 8.81121 4.86475 8.81121C5.03277 8.81121 5.19519 8.78909 5.34995 8.74666C4.50748 8.57745 3.87282 7.83343 3.87282 6.94113V6.91786C4.1213 7.05582 4.4052 7.13868 4.70704 7.14809C4.213 6.81794 3.88786 6.25433 3.88786 5.61553C3.88786 5.27803 3.97864 4.96171 4.13723 4.68965C5.04544 5.80362 6.4023 6.53673 7.93277 6.61364C7.90156 6.47863 7.88533 6.33802 7.88533 6.19388C7.88533 5.17661 8.70986 4.35242 9.72653 4.35242C10.2562 4.35242 10.735 4.57585 11.0707 4.93371C11.4907 4.85116 11.8849 4.69788 12.2403 4.48685C12.1027 4.9166 11.8112 5.2777 11.4306 5.50557C11.8035 5.46106 12.1581 5.36201 12.4883 5.2155C12.2416 5.58487 11.9291 5.9091 11.5683 6.17002ZM8 1C4.134 1 1 4.134 1 8C1 11.866 4.134 15 8 15C11.866 15 15 11.866 15 8C15 4.134 11.866 1 8 1Z" fill="#CCCCCC"/>
</svg>
