<svg width="16" height="16" viewBox="0 0 16 16" fill="none" xmlns="http://www.w3.org/2000/svg">
<path d="M12.9528 3.89213C12.0529 3.4792 11.0878 3.17497 10.0788 3.00073C10.0604 2.99737 10.0421 3.00577 10.0326 3.02258C9.9085 3.24332 9.77103 3.5313 9.67476 3.75765C8.5895 3.59518 7.50981 3.59518 6.44681 3.75765C6.35051 3.52627 6.20805 3.24332 6.08338 3.02258C6.07391 3.00633 6.05556 2.99793 6.03718 3.00073C5.02873 3.17442 4.06368 3.47864 3.1632 3.89213C3.1554 3.89549 3.14872 3.9011 3.14428 3.90838C1.3138 6.64307 0.812357 9.31056 1.05835 11.945C1.05946 11.9579 1.0667 11.9702 1.07672 11.978C2.28441 12.8649 3.45428 13.4034 4.60242 13.7602C4.62079 13.7659 4.64026 13.7591 4.65195 13.744C4.92355 13.3731 5.16565 12.982 5.37322 12.5708C5.38547 12.5467 5.37378 12.5181 5.34874 12.5086C4.96473 12.3629 4.59907 12.1853 4.24734 11.9836C4.21952 11.9674 4.21729 11.9276 4.24288 11.9085C4.3169 11.8531 4.39094 11.7954 4.46162 11.7371C4.4744 11.7265 4.49222 11.7242 4.50726 11.7309C6.81801 12.7859 9.31968 12.7859 11.6032 11.7309C11.6182 11.7236 11.636 11.7259 11.6494 11.7365C11.7201 11.7948 11.7941 11.8531 11.8687 11.9085C11.8942 11.9276 11.8926 11.9674 11.8648 11.9836C11.513 12.1892 11.1474 12.3629 10.7628 12.508C10.7378 12.5176 10.7266 12.5467 10.7389 12.5708C10.9509 12.9815 11.193 13.3725 11.4596 13.7434C11.4707 13.7591 11.4907 13.7659 11.5091 13.7602C12.6628 13.4034 13.8327 12.8649 15.0404 11.978C15.051 11.9702 15.0576 11.9584 15.0588 11.9455C15.3532 8.89986 14.5656 6.25425 12.9712 3.90893C12.9673 3.9011 12.9606 3.89549 12.9528 3.89213ZM5.7183 10.3409C5.0226 10.3409 4.44937 9.70219 4.44937 8.91779C4.44937 8.1334 5.01148 7.4947 5.7183 7.4947C6.43066 7.4947 6.99834 8.13901 6.98721 8.91779C6.98721 9.70219 6.42509 10.3409 5.7183 10.3409ZM10.4099 10.3409C9.71427 10.3409 9.14104 9.70219 9.14104 8.91779C9.14104 8.1334 9.70313 7.4947 10.4099 7.4947C11.1223 7.4947 11.69 8.13901 11.6789 8.91779C11.6789 9.70219 11.1223 10.3409 10.4099 10.3409Z" fill="#EDEDEF"/>
</svg>
