<svg width="64" height="110" xmlns="http://www.w3.org/2000/svg">
 <g>
  <title>background</title>
  <rect x="-1" y="-1" width="9.664668" height="15.173648" id="canvas_background" fill="none"/>
 </g>

 <g>
  <title>Layer 1</title>
  <g id="logo">
   <g opacity="0.61" id="svg_1">
    <path fill="#FFFFFF" d="m0.5,41.9c0,0 62.9,6.3 62.9,16.8l0,-25.2c0,0 0,-10.5 -62.9,-16.8l0,9.8l0,15.4z" id="svg_2"/>
    <path fill="#FFFFFF" d="m0.5,75.5c0,0 62.9,6.3 62.9,16.8l0,-25.2c0,0 0,-10.5 -62.9,-16.8l0,25.2z" id="svg_3"/>
   </g>
   <path fill="#FFFFFF" d="m63.5,0l0,25.2c0,0 0,10.5 -62.9,16.8l0,-25.3c-0.1,0 62.9,-6.2 62.9,-16.7" id="svg_4"/>
   <path fill="#FFFFFF" d="m0.5,50.3c0,0 62.9,-6.3 62.9,-16.8l0,25.2c0,0 0,10.5 -62.9,16.8l0,-25.2z" id="svg_5"/>
   <path fill="#FFFFFF" d="m0.5,109l0,-25.2c0,0 62.9,-6.3 62.9,-16.8l0,25.2c0.1,0.1 0.1,10.5 -62.9,16.8" id="svg_6"/>
  </g>
 </g>
</svg>