<svg width="60" height="16" viewBox="0 0 60 16" fill="none" xmlns="http://www.w3.org/2000/svg">
<g clip-path="url(#clip0_108_4483)">
<path d="M21.1058 5.42723C21.0655 5.49908 21.0116 5.56233 20.9469 5.61339C20.8854 5.65446 20.8124 5.67489 20.7384 5.67172C20.6442 5.66787 20.5527 5.63825 20.4741 5.58609C20.3798 5.52776 20.2693 5.46198 20.1427 5.39868C20.003 5.32554 19.8577 5.2633 19.7084 5.21252C19.5235 5.15151 19.3296 5.12214 19.135 5.12565C18.7486 5.12565 18.459 5.21211 18.2662 5.38503C18.1715 5.46976 18.0965 5.57424 18.0465 5.69111C17.9966 5.80798 17.9728 5.93439 17.9771 6.06142C17.9713 6.224 18.0282 6.38258 18.1359 6.50448C18.2547 6.63069 18.3961 6.73342 18.5529 6.80731C18.7424 6.89938 18.9392 6.97575 19.1412 7.03566C19.3596 7.10268 19.5842 7.17591 19.8151 7.25533C20.0448 7.33555 20.2694 7.42963 20.4878 7.53706C20.7031 7.64204 20.9014 7.77886 21.076 7.94289C21.2532 8.11322 21.395 8.31695 21.493 8.54233C21.6058 8.81469 21.6599 9.10774 21.6519 9.4024C21.6543 9.75571 21.589 10.1062 21.4595 10.435C21.3352 10.7504 21.1467 11.0365 20.906 11.2752C20.6503 11.5234 20.3461 11.7161 20.0124 11.8411C19.6268 11.9834 19.2183 12.0532 18.8073 12.0471C18.5501 12.0471 18.2935 12.0209 18.0416 11.9689C17.7904 11.9181 17.5442 11.8454 17.3056 11.7518C17.0743 11.6608 16.8516 11.5491 16.6404 11.4179C16.4423 11.2951 16.2595 11.1493 16.0956 10.9835L16.5858 10.193C16.6274 10.1319 16.6826 10.0813 16.7471 10.0453C16.811 10.0072 16.8838 9.98707 16.9581 9.98695C17.0728 9.99176 17.1834 10.0306 17.2758 10.0986C17.3875 10.1719 17.5154 10.2538 17.6593 10.3469C17.8192 10.445 17.9879 10.5281 18.1632 10.5951C18.3835 10.6744 18.6167 10.7123 18.8508 10.7068C19.2405 10.7068 19.542 10.6178 19.7555 10.4399C19.969 10.2621 20.0757 9.99646 20.0757 9.64317C20.0846 9.46411 20.0287 9.28785 19.9181 9.14674C19.8028 9.01343 19.6613 8.90528 19.5023 8.82902C19.3151 8.73688 19.1193 8.66331 18.9178 8.60935C18.6994 8.54812 18.4747 8.48028 18.2439 8.40581C18.014 8.33175 17.7893 8.24261 17.5712 8.13898C17.3538 8.03677 17.156 7.89732 16.9867 7.72694C16.8083 7.54449 16.6671 7.3291 16.5709 7.09276C16.4568 6.79219 16.4028 6.47214 16.4121 6.15078C16.4116 5.84528 16.4738 5.54294 16.5949 5.26245C16.7159 4.98196 16.8932 4.72927 17.1157 4.52C17.3622 4.291 17.6504 4.1115 17.9646 3.9913C18.3337 3.85242 18.7258 3.78462 19.1201 3.79149C19.5785 3.7869 20.0342 3.8625 20.4667 4.01488C20.8544 4.14907 21.2111 4.36013 21.5154 4.63542L21.1058 5.42723Z" fill="#A09FA6"/>
<path d="M26.8073 7.49858C26.7698 7.54987 26.7251 7.59544 26.6745 7.63386C26.6178 7.66944 26.5514 7.68637 26.4846 7.68226C26.4084 7.6812 26.334 7.65885 26.2699 7.61773C26.2016 7.57553 26.1222 7.52837 26.0341 7.47872C25.9327 7.42266 25.8264 7.37612 25.7164 7.33972C25.5688 7.29277 25.4144 7.27095 25.2597 7.27519C25.0534 7.26996 24.8487 7.31243 24.6615 7.39929C24.4936 7.48206 24.349 7.60533 24.2407 7.75797C24.1224 7.92983 24.0382 8.12278 23.9925 8.32638C23.9362 8.57305 23.9092 8.82548 23.9119 9.07847C23.9119 9.66426 24.0298 10.1131 24.2656 10.425C24.3763 10.5759 24.5224 10.6975 24.6909 10.779C24.8594 10.8606 25.0453 10.8997 25.2324 10.8929C25.3545 10.8946 25.4765 10.8825 25.596 10.8569C25.6885 10.8366 25.7785 10.8057 25.8641 10.7651C25.9342 10.731 26.0003 10.6894 26.0614 10.641C26.1172 10.5963 26.1706 10.5554 26.2203 10.5169C26.2674 10.4815 26.3177 10.4503 26.3704 10.4238C26.4237 10.3993 26.4818 10.387 26.5405 10.3878C26.5942 10.3856 26.6477 10.3967 26.6962 10.42C26.7447 10.4434 26.7867 10.4784 26.8185 10.5218L27.259 11.0791C27.106 11.2583 26.9299 11.4165 26.7353 11.5495C26.5558 11.6701 26.3624 11.7688 26.1594 11.8436C25.964 11.9155 25.7613 11.9663 25.555 11.995C25.3539 12.0221 25.1511 12.0357 24.9482 12.036C24.6031 12.0394 24.2608 11.9735 23.9416 11.8424C23.6275 11.7115 23.3449 11.5152 23.1126 11.2665C22.8643 10.9969 22.6723 10.6804 22.5479 10.3357C22.4019 9.93293 22.3308 9.50683 22.3382 9.07847C22.335 8.68135 22.3971 8.28641 22.5219 7.90938C22.6358 7.56378 22.8196 7.24527 23.0617 6.97361C23.3075 6.70482 23.6091 6.49303 23.9454 6.35307C24.3312 6.19587 24.7451 6.11901 25.1616 6.12719C25.5558 6.11918 25.9476 6.19095 26.3133 6.33817C26.6477 6.48208 26.9505 6.69041 27.2044 6.95127L26.8073 7.49858Z" fill="#A09FA6"/>
<path d="M27.9044 7.01339C28.2296 6.71679 28.6088 6.48547 29.0213 6.33204C29.4459 6.17878 29.8943 6.1023 30.3456 6.10616C30.6589 6.10094 30.9702 6.15789 31.2615 6.27371C31.5206 6.37739 31.7542 6.53571 31.9466 6.73787C32.1375 6.9425 32.2845 7.18411 32.3785 7.44777C32.4807 7.73747 32.5315 8.04282 32.5286 8.35003V11.9578H31.8274C31.7137 11.9643 31.6001 11.9435 31.496 11.897C31.4045 11.8369 31.3379 11.7456 31.3086 11.6401L31.1845 11.2678C31.0514 11.3877 30.9122 11.5008 30.7675 11.6066C30.6361 11.7035 30.4952 11.7867 30.3468 11.8548C30.1982 11.9216 30.0425 11.9712 29.8826 12.0025C29.6999 12.0379 29.514 12.055 29.3279 12.0534C29.094 12.0561 28.8612 12.0221 28.6378 11.9529C28.4401 11.8917 28.2571 11.7903 28.1005 11.655C27.9477 11.5187 27.8287 11.3488 27.753 11.1586C27.6671 10.9427 27.6249 10.712 27.6288 10.4797C27.6311 10.2581 27.6864 10.0402 27.7902 9.84429C27.9222 9.6076 28.1134 9.40919 28.345 9.26843C28.6683 9.06983 29.0216 8.92482 29.3912 8.83902C29.9287 8.71389 30.4787 8.64977 31.0306 8.64789V8.35251C31.0306 7.9926 30.9545 7.72825 30.8023 7.55947C30.7173 7.47314 30.6146 7.40625 30.5012 7.3634C30.3879 7.32055 30.2666 7.30276 30.1458 7.31125C29.9666 7.30635 29.7879 7.33152 29.6171 7.38571C29.489 7.42984 29.3645 7.48378 29.2447 7.54705L28.9469 7.70839C28.8475 7.76071 28.7364 7.78677 28.6242 7.7841C28.528 7.78743 28.4334 7.75909 28.3549 7.70343C28.2835 7.65062 28.2221 7.58548 28.1737 7.51106L27.9044 7.01339ZM31.0331 9.5576C30.7194 9.57006 30.4068 9.60281 30.0974 9.65564C29.8925 9.68813 29.6933 9.74912 29.5054 9.83684C29.3814 9.89122 29.2737 9.97672 29.1926 10.0851C29.1323 10.1768 29.1004 10.2843 29.1008 10.3941C29.0917 10.4822 29.104 10.5711 29.1366 10.6534C29.1693 10.7357 29.2212 10.809 29.2882 10.8669C29.4419 10.9683 29.6244 11.0171 29.8082 11.0059C30.0375 11.0123 30.2651 10.9655 30.4734 10.8694C30.6838 10.762 30.8734 10.6178 31.0331 10.4437V9.5576Z" fill="#A09FA6"/>
<path d="M35.2814 3.65125V11.9528H33.7462V3.65125H35.2814Z" fill="#A09FA6"/>
<path d="M36.4343 7.01339C36.7594 6.71669 37.1387 6.48536 37.5513 6.33204C37.9762 6.17879 38.425 6.10231 38.8767 6.10616C39.1901 6.10094 39.5014 6.15789 39.7927 6.27371C40.0517 6.37739 40.2854 6.53571 40.4777 6.73787C40.6687 6.94225 40.8154 7.18395 40.9084 7.44777C41.0117 7.73724 41.0629 8.0427 41.0598 8.35003V11.9578H40.3573C40.2436 11.9641 40.1301 11.9432 40.026 11.897C39.9352 11.8364 39.8692 11.7453 39.8398 11.6401L39.7157 11.2678C39.5819 11.3864 39.4418 11.4978 39.2962 11.6017C39.1648 11.6985 39.0238 11.7817 38.8755 11.8499C38.7264 11.9165 38.5703 11.966 38.4101 11.9976C38.2277 12.0329 38.0423 12.0499 37.8566 12.0484C37.6227 12.0513 37.3899 12.0173 37.1665 11.9479C36.9688 11.8868 36.7858 11.7853 36.6292 11.6501C36.476 11.5138 36.3566 11.3439 36.2804 11.1536C36.1952 10.9376 36.153 10.707 36.1563 10.4748C36.1586 10.2531 36.2139 10.0352 36.3176 9.83932C36.4491 9.60266 36.6399 9.40422 36.8712 9.26346C37.195 9.06509 37.5487 8.9201 37.9186 8.83405C38.4562 8.70885 39.0062 8.64474 39.5581 8.64292V8.34755C39.5581 7.98764 39.4811 7.72701 39.3297 7.5545C39.2445 7.46808 39.1416 7.40114 39.0281 7.35829C38.9145 7.31544 38.793 7.2977 38.672 7.30628C38.4928 7.30157 38.3141 7.32674 38.1433 7.38075C38.0152 7.42481 37.8907 7.47875 37.7709 7.54209L37.4731 7.70343C37.3737 7.75559 37.2626 7.78164 37.1504 7.77913C37.0539 7.78228 36.9589 7.75397 36.8799 7.69847C36.8087 7.64539 36.7474 7.58028 36.6987 7.5061L36.4343 7.01339ZM39.5631 9.5576C39.2493 9.56999 38.9368 9.60274 38.6273 9.65564C38.4221 9.68816 38.2224 9.74915 38.0341 9.83684C37.9105 9.8912 37.8031 9.97673 37.7225 10.0851C37.6623 10.1768 37.6303 10.2843 37.6307 10.3941C37.6217 10.482 37.6339 10.5709 37.6663 10.6531C37.6987 10.7354 37.7503 10.8087 37.8169 10.8669C37.9711 10.9682 38.1539 11.017 38.3381 11.0059C38.5674 11.012 38.795 10.9652 39.0033 10.8694C39.2136 10.7617 39.4031 10.6176 39.5631 10.4437V9.5576Z" fill="#A09FA6"/>
<path d="M46.4113 11.9579C46.3489 11.9638 46.2865 11.9458 46.2368 11.9076C46.1871 11.8693 46.1536 11.8137 46.1433 11.7519L46.0551 11.0668C45.8247 11.3505 45.5441 11.5894 45.2273 11.7717C44.9014 11.9521 44.5337 12.0433 44.1613 12.0361C43.8576 12.0403 43.5569 11.9763 43.2813 11.8487C43.0162 11.7231 42.7855 11.5354 42.6087 11.3013C42.4089 11.031 42.2631 10.7246 42.1792 10.3991C42.0734 9.99407 42.0229 9.57658 42.0291 9.158C42.0258 8.76495 42.0823 8.37368 42.1966 7.9976C42.298 7.65864 42.4626 7.34195 42.6819 7.06431C42.8935 6.79337 43.1655 6.57571 43.4763 6.42874C43.787 6.28177 44.1279 6.20956 44.4715 6.21789C44.7758 6.20952 45.0782 6.26931 45.3564 6.39288C45.6059 6.51393 45.8294 6.68257 46.0142 6.88931V3.75684H47.007V11.9579H46.4113ZM44.4901 11.2343C44.7884 11.2408 45.0826 11.1634 45.339 11.0109C45.6008 10.8458 45.8287 10.6323 46.0105 10.3817V7.65133C45.8577 7.43256 45.6519 7.25619 45.4123 7.13877C45.1853 7.03839 44.9394 6.98802 44.6912 6.99108C44.165 6.99108 43.7604 7.17849 43.4774 7.55329C43.1944 7.9281 43.0534 8.46259 43.0542 9.15676C43.0488 9.47418 43.0804 9.79115 43.1485 10.1012C43.1981 10.3325 43.2925 10.5517 43.4265 10.7466C43.5405 10.9089 43.6962 11.0375 43.877 11.1189C44.0713 11.199 44.28 11.2383 44.4901 11.2343Z" fill="#A09FA6"/>
<path d="M50.9487 6.229C51.331 6.22293 51.7107 6.29296 52.0657 6.43502C52.3878 6.56444 52.677 6.76415 52.9121 7.01957C53.152 7.28445 53.3342 7.59637 53.447 7.93548C53.6948 8.7168 53.6948 9.55565 53.447 10.337C53.3339 10.6752 53.1517 10.9862 52.9121 11.2504C52.6772 11.5055 52.3879 11.7044 52.0657 11.8325C51.3458 12.1041 50.5516 12.1041 49.8317 11.8325C49.5094 11.7033 49.2195 11.5046 48.9829 11.2504C48.7422 10.9862 48.5584 10.6752 48.443 10.337C48.1914 9.55623 48.1914 8.71622 48.443 7.93548C48.5581 7.59633 48.7419 7.28453 48.9829 7.01957C49.2196 6.76488 49.5094 6.56532 49.8317 6.43502C50.1868 6.29325 50.5664 6.22323 50.9487 6.229ZM50.9487 11.2616C51.5047 11.2616 51.9184 11.075 52.1898 10.7018C52.4612 10.3287 52.6014 9.80827 52.6105 9.14057C52.6105 8.46956 52.4732 7.94624 52.1985 7.57061C51.9238 7.19497 51.5101 7.00757 50.9574 7.0084C50.7049 7.00242 50.4542 7.05155 50.2227 7.15236C50.017 7.24644 49.8379 7.39016 49.7014 7.57061C49.5511 7.77101 49.443 7.99985 49.3837 8.24327C49.3119 8.53771 49.2773 8.83999 49.2807 9.14305C49.2771 9.44488 49.3117 9.74596 49.3837 10.0391C49.4412 10.2798 49.5472 10.5061 49.6952 10.7043C49.8326 10.8832 50.0115 11.0259 50.2165 11.1201C50.4474 11.2197 50.6973 11.268 50.9487 11.2616Z" fill="#A09FA6"/>
<path d="M58.7042 7.31992C58.6792 7.35562 58.6491 7.38741 58.6148 7.41424C58.578 7.43813 58.5346 7.44985 58.4907 7.44775C58.4245 7.44422 58.3611 7.4199 58.3095 7.37825C58.2294 7.32315 58.1466 7.2722 58.0613 7.2256C57.9447 7.16312 57.8226 7.1116 57.6964 7.07171C57.5256 7.02173 57.3481 6.99829 57.1702 7.00221C56.9191 6.99749 56.67 7.0479 56.4405 7.14989C56.2315 7.24658 56.0492 7.39268 55.9093 7.57558C55.7589 7.7771 55.6493 8.00601 55.5866 8.24949C55.5105 8.53818 55.4737 8.83584 55.4774 9.13437C55.4726 9.44203 55.5119 9.74879 55.594 10.0453C55.6601 10.2868 55.7718 10.5134 55.9229 10.713C56.0594 10.8894 56.236 11.0306 56.438 11.1251C56.652 11.223 56.8852 11.2717 57.1206 11.2678C57.3227 11.2739 57.5243 11.2445 57.7163 11.1809C57.8534 11.1327 57.9843 11.0681 58.106 10.9885C58.1946 10.9296 58.28 10.8658 58.3617 10.7974C58.4154 10.745 58.4865 10.7141 58.5615 10.7105C58.5986 10.708 58.6358 10.7154 58.6692 10.7319C58.7026 10.7485 58.7309 10.7737 58.7513 10.8049L59.0293 11.1673C58.7876 11.4653 58.4705 11.6933 58.111 11.8275C57.7388 11.9673 57.3443 12.038 56.9468 12.036C56.6086 12.0396 56.2732 11.9737 55.9614 11.8424C55.6604 11.7138 55.3914 11.5206 55.1733 11.2765C54.939 11.0113 54.7601 10.702 54.6471 10.3668C54.5132 9.97036 54.4482 9.55397 54.4547 9.13562C54.4511 8.74116 54.5102 8.34864 54.6297 7.97273C54.7372 7.63419 54.9115 7.32063 55.1423 7.05061C55.3714 6.78997 55.656 6.58389 55.9751 6.44744C56.3343 6.29673 56.7211 6.22275 57.1106 6.23026C57.4687 6.22342 57.8244 6.28841 58.1569 6.42138C58.4591 6.54814 58.7335 6.73281 58.9648 6.96497L58.7042 7.31992Z" fill="#A09FA6"/>
<path d="M11.5308 4.90971V15.0071C11.5308 15.2704 11.4262 15.523 11.24 15.7092C11.0538 15.8954 10.8013 16 10.538 16H0.981693C0.796702 16.0013 0.615271 15.9491 0.4592 15.8498C0.318358 15.761 0.202352 15.6379 0.122042 15.492C0.0417313 15.3462 -0.000258878 15.1823 1.20084e-06 15.0158V0.992875C1.20084e-06 0.729552 0.104606 0.477014 0.290804 0.290816C0.477001 0.104618 0.729539 1.33479e-05 0.992863 1.33479e-05H6.63728C6.68899 -0.000456014 6.74005 0.0114593 6.78621 0.0347633L6.80358 0.0422095L6.82592 0.0546201C6.84079 0.0622531 6.85457 0.0718547 6.86688 0.0831653L11.4589 4.67515C11.4787 4.69916 11.495 4.72591 11.5073 4.75458C11.5261 4.80403 11.5341 4.85691 11.5308 4.90971Z" fill="#A09FA6"/>
<path opacity="0.25" d="M2.31091 9.40619V10.3829C2.31091 10.5467 5.86412 10.8235 8.17872 11.3596C9.29569 11.1003 10.126 10.7801 10.126 10.3829V9.40619C10.126 9.0078 9.29693 8.68761 8.17872 8.42822C5.86412 8.96561 2.31091 9.24113 2.31091 9.40619Z" fill="#A09FA6"/>
<path opacity="0.25" d="M2.31091 5.49797V6.4747C2.31091 6.63976 5.86412 6.91528 8.17872 7.45142C9.29569 7.19204 10.126 6.87308 10.126 6.4747V5.49797C10.126 5.09958 9.29693 4.77938 8.17872 4.52124C5.86412 5.05739 2.31091 5.3329 2.31091 5.49797Z" fill="#A09FA6"/>
<path opacity="0.25" d="M2.31091 7.81014V10.7416C2.31091 10.4934 10.1297 10.0081 10.1297 8.78687V5.85669C10.1297 7.07791 2.31091 7.56565 2.31091 7.81014Z" fill="#A09FA6"/>
<path opacity="0.25" d="M10.126 4.37235V4.87995C10.126 6.10117 2.30719 6.59015 2.30719 6.83216V3.8995C2.30719 3.72575 6.29973 3.42541 8.57711 2.82349L10.126 4.37235Z" fill="#A09FA6"/>
<path opacity="0.25" d="M2.31091 11.7183V14.6498C2.31091 14.4016 10.1297 13.9163 10.1297 12.6951V9.76489C10.1297 10.9861 2.31091 11.4739 2.31091 11.7183Z" fill="#A09FA6"/>
<path opacity="0.75" d="M1.86908 8.96306V9.94102C1.86908 10.1048 5.42228 10.3816 7.73689 10.9178C8.85386 10.6584 9.68414 10.3382 9.68414 9.94102V8.96306C9.68414 8.56591 8.8551 8.24571 7.73689 7.98633C5.42228 8.52371 1.86908 8.79923 1.86908 8.96306Z" fill="#A09FA6"/>
<path opacity="0.75" d="M1.86908 5.05622V6.03294C1.86908 6.19677 5.42228 6.47353 7.73689 7.00967C8.85386 6.75029 9.68414 6.43009 9.68414 6.03294V5.05622C9.68414 4.65783 8.8551 4.33763 7.73689 4.07825C5.42228 4.61563 1.86908 4.89115 1.86908 5.05622Z" fill="#A09FA6"/>
<path d="M1.86908 7.37446V10.3059C1.86908 10.0577 9.68786 9.5724 9.68786 8.35118V5.41479C9.68786 6.63601 1.86908 7.12376 1.86908 7.36825" fill="white"/>
<path d="M9.68414 3.93054V4.43814C9.68414 5.65936 1.86536 6.14834 1.86536 6.39035V3.46141C1.86536 3.28642 5.8579 2.98732 8.13528 2.38416L9.68414 3.93054Z" fill="white"/>
<path d="M1.86908 11.2765V14.2067C1.86908 13.9584 9.68786 13.4744 9.68786 12.2532V9.32178C9.68786 10.543 1.86908 11.032 1.86908 11.2765Z" fill="white"/>
<path d="M11.5309 4.9097V5.68538C11.5289 5.49046 11.4506 5.30408 11.3128 5.16624C11.175 5.02841 10.9886 4.95012 10.7937 4.94818H6.94631C6.89383 4.94496 6.84256 4.93108 6.79562 4.9074C6.74868 4.88371 6.70705 4.85071 6.67328 4.81042C6.63578 4.76439 6.6102 4.70983 6.59881 4.65156C6.59258 4.62513 6.58967 4.59804 6.59013 4.57089V0.744651C6.59013 0.54823 6.51253 0.35976 6.37422 0.220289C6.23591 0.080818 6.0481 0.00164237 5.85168 5.52132e-06H6.62736C6.67984 -0.000294065 6.73167 0.0116018 6.77877 0.0347555L6.79614 0.0422017L6.81848 0.0546123C6.83335 0.0622453 6.84713 0.0718469 6.85944 0.0831574L11.4514 4.67514C11.4713 4.69915 11.4876 4.7259 11.4998 4.75457C11.5212 4.80346 11.5317 4.85637 11.5309 4.9097Z" fill="#A09FA6"/>
</g>
<defs>
<clipPath id="clip0_108_4483">
<rect width="59.0293" height="16" fill="white"/>
</clipPath>
</defs>
</svg>
