<svg width="64" height="109" viewBox="0 0 64 109" fill="none" xmlns="http://www.w3.org/2000/svg">
<path fill-rule="evenodd" clip-rule="evenodd" d="M0.5 75.5C0.5 75.5 63.4 81.8 63.4 92.3V67.1C63.4 67.1 63.4 56.6 0.5 50.3V75.5Z" fill="#B73F35"/>
<path fill-rule="evenodd" clip-rule="evenodd" d="M0.5 41.9C0.5 41.9 63.4 48.2 63.4 58.7V33.5C63.4 33.5 63.4 23 0.5 16.7V26.5V41.9Z" fill="#B73F35"/>
<path fill-rule="evenodd" clip-rule="evenodd" d="M0.5 109V83.8C0.5 83.8 63.4 77.5 63.4 67V92.2C63.5 92.3 63.5 102.7 0.5 109Z" fill="#DD6056"/>
<path fill-rule="evenodd" clip-rule="evenodd" d="M0.5 50.3C0.5 50.3 63.4 44 63.4 33.5V58.7C63.4 58.7 63.4 69.2 0.5 75.5V50.3Z" fill="#DD6056"/>
<path fill-rule="evenodd" clip-rule="evenodd" d="M63.5 0V25.2C63.5 25.2 63.5 35.7 0.599972 42V16.7C0.499972 16.7 63.5 10.5 63.5 0Z" fill="#DD6056"/>
<path fill-rule="evenodd" clip-rule="evenodd" d="M5.44711 89.7886C5.45019 89.7882 5.45019 89.7882 5.45328 89.7878C5.91769 89.7325 6.24931 89.3111 6.19397 88.8467C6.13863 88.3823 5.71728 88.0507 5.25287 88.106C5.24981 88.1064 5.24981 88.1064 5.24674 88.1068C4.78233 88.1621 4.4507 88.5834 4.50603 89.0478C4.56136 89.5123 4.9827 89.8439 5.44711 89.7886ZM13.3486 89.6305C13.3541 89.6298 13.3541 89.6298 13.3596 89.629C14.1807 89.5193 14.7575 88.7648 14.6478 87.9436C14.5381 87.1225 13.7835 86.5457 12.9624 86.6554C12.9569 86.6562 12.9569 86.6562 12.9515 86.6569C12.1303 86.7666 11.5536 87.5211 11.6632 88.3423C11.7729 89.1634 12.5275 89.7402 13.3486 89.6305ZM21.0067 88.5493C21.0121 88.5485 21.0121 88.5485 21.0176 88.5477C21.8369 88.4254 22.4021 87.6621 22.2798 86.8428C22.1576 86.0234 21.3942 85.4583 20.5749 85.5805C20.5695 85.5813 20.5695 85.5813 20.564 85.5821C19.7447 85.7044 19.1795 86.4677 19.3018 87.287C19.424 88.1064 20.1873 88.6715 21.0067 88.5493ZM28.8225 87.9232C28.8298 87.922 28.8298 87.922 28.837 87.9208C29.9223 87.7387 30.6543 86.7113 30.4722 85.626C30.2901 84.5408 29.2627 83.8087 28.1774 83.9909C28.1702 83.9921 28.1702 83.9921 28.163 83.9933C27.0778 84.1754 26.3457 85.2028 26.5278 86.288C26.7099 87.3732 27.7373 88.1054 28.8225 87.9232ZM36.4725 86.5526C37.5532 86.3453 38.2612 85.3012 38.054 84.2205C37.8467 83.1399 36.8026 82.4318 35.7219 82.6391C35.7147 82.6405 35.7147 82.6405 35.7075 82.6419C34.6269 82.8491 33.9188 83.8932 34.126 84.9739C34.3333 86.0546 35.3773 86.7626 36.458 86.5554C36.4653 86.554 36.4653 86.554 36.4725 86.5526ZM43.8724 84.3948C43.8779 84.3935 43.8779 84.3935 43.8834 84.3923C44.6916 84.2101 45.199 83.4073 45.0169 82.5991C44.8347 81.791 44.0319 81.2835 43.2237 81.4657C43.2183 81.4669 43.2183 81.4669 43.2128 81.4682C42.4047 81.6503 41.8972 82.4531 42.0793 83.2612C42.2614 84.0694 43.0642 84.5769 43.8724 84.3948ZM51.4276 82.5083C51.433 82.5068 51.433 82.5068 51.4384 82.5053C52.2363 82.2826 52.7026 81.4552 52.4799 80.6573C52.2572 79.8593 51.4298 79.393 50.6319 79.6157C50.6267 79.6172 50.6267 79.6172 50.6214 79.6186C49.8235 79.8413 49.3571 80.6686 49.5797 81.4666C49.8023 82.2645 50.6297 82.7309 51.4276 82.5083ZM58.4198 79.8064C58.8557 79.637 59.0717 79.1462 58.9022 78.7102C58.7327 78.2743 58.242 78.0583 57.806 78.2278C57.8032 78.2289 57.8032 78.2289 57.8004 78.23C57.3644 78.3993 57.1483 78.8901 57.3177 79.3261C57.4871 79.762 57.9778 79.9781 58.4138 79.8087C58.4168 79.8076 58.4168 79.8076 58.4198 79.8064Z" fill="white"/>
<path fill-rule="evenodd" clip-rule="evenodd" d="M5.6776 97.5965C5.68306 97.5958 5.68306 97.5958 5.68853 97.5952C6.51113 97.4972 7.09853 96.7509 7.0005 95.9282C6.90248 95.1056 6.15616 94.5182 5.33355 94.6163C5.32812 94.6169 5.32812 94.6169 5.32269 94.6176C4.50008 94.7156 3.91267 95.4619 4.01068 96.2845C4.10869 97.1071 4.85499 97.6945 5.6776 97.5965ZM13.3486 96.6274C13.3541 96.6267 13.3541 96.6267 13.3596 96.6259C14.1807 96.5163 14.7575 95.7617 14.6478 94.9406C14.5381 94.1194 13.7835 93.5427 12.9624 93.6524C12.9569 93.6531 12.9569 93.6531 12.9515 93.6538C12.1303 93.7635 11.5536 94.518 11.6632 95.3392C11.7729 96.1603 12.5275 96.7371 13.3486 96.6274ZM21.1767 96.1256C21.184 96.1245 21.184 96.1245 21.1912 96.1235C22.2796 95.9611 23.0303 94.9471 22.8679 93.8587C22.7055 92.7704 21.6916 92.0197 20.6032 92.1821C20.596 92.1832 20.596 92.1832 20.5888 92.1842C19.5004 92.3466 18.7497 93.3605 18.9121 94.4489C19.0744 95.5373 20.0884 96.288 21.1767 96.1256ZM28.837 94.9177C29.9223 94.7356 30.6543 93.7082 30.4722 92.623C30.2901 91.5377 29.2627 90.8057 28.1774 90.9878C28.1702 90.989 28.1702 90.989 28.163 90.9902C27.0778 91.1723 26.3457 92.1997 26.5278 93.2849C26.7099 94.3702 27.7373 95.1023 28.8225 94.9202C28.8298 94.919 28.8298 94.919 28.837 94.9177ZM36.4725 93.5611C37.5532 93.3532 38.2612 92.306 38.054 91.2222C37.8467 90.1384 36.8026 89.4283 35.7219 89.6361C35.7147 89.6375 35.7147 89.6375 35.7075 89.6389C34.6269 89.8467 33.9188 90.8939 34.126 91.9777C34.3333 93.0616 35.3773 93.7717 36.458 93.5639C36.4653 93.5625 36.4653 93.5625 36.4725 93.5611ZM44.0707 91.9695C44.0781 91.9679 44.0781 91.9679 44.0854 91.9662C45.1588 91.7243 45.8328 90.658 45.5908 89.5846C45.3488 88.5112 44.2825 87.8372 43.2092 88.0792C43.2019 88.0808 43.2019 88.0808 43.1947 88.0825C42.1213 88.3244 41.4473 89.3906 41.6892 90.464C41.9311 91.5374 42.9973 92.2114 44.0707 91.9695ZM51.4276 89.5083C51.433 89.5068 51.433 89.5068 51.4384 89.5053C52.2363 89.2826 52.7026 88.4552 52.4799 87.6573C52.2572 86.8593 51.4298 86.393 50.6319 86.6157C50.6267 86.6172 50.6267 86.6172 50.6214 86.6186C49.8235 86.8413 49.3571 87.6686 49.5797 88.4665C49.8023 89.2645 50.6297 89.7309 51.4276 89.5083ZM58.9 87.0756C58.9052 87.0736 58.9052 87.0736 58.9105 87.0715C59.6826 86.7713 60.0652 85.9021 59.765 85.1299C59.4649 84.3578 58.5956 83.9752 57.8234 84.2754C57.8185 84.2773 57.8185 84.2773 57.8135 84.2793C57.0413 84.5793 56.6585 85.4485 56.9586 86.2207C57.2586 86.9929 58.1278 87.3756 58.9 87.0756Z" fill="white"/>
<path fill-rule="evenodd" clip-rule="evenodd" d="M5.45328 104.198C5.54647 104.187 5.63432 104.161 5.71477 104.123C6.0352 103.972 6.2382 103.628 6.19397 103.257C6.13863 102.792 5.71728 102.461 5.25287 102.516C5.24981 102.516 5.24981 102.516 5.24674 102.517C4.78233 102.572 4.4507 102.993 4.50603 103.458C4.56136 103.922 4.9827 104.254 5.44711 104.199C5.45019 104.198 5.45019 104.198 5.45328 104.198ZM13.3486 103.627C13.3541 103.627 13.3541 103.627 13.3596 103.626C14.1807 103.516 14.7575 102.762 14.6478 101.941C14.5381 101.119 13.7835 100.543 12.9624 100.652C12.9569 100.653 12.9569 100.653 12.9515 100.654C12.1303 100.763 11.5536 101.518 11.6632 102.339C11.7729 103.16 12.5275 103.737 13.3486 103.627ZM21.0067 102.546C21.0121 102.545 21.0121 102.545 21.0176 102.545C21.8369 102.422 22.4021 101.659 22.2798 100.84C22.1576 100.02 21.3942 99.4552 20.5749 99.5775C20.5695 99.5783 20.5695 99.5783 20.564 99.5791C19.7447 99.7013 19.1795 100.465 19.3018 101.284C19.424 102.103 20.1873 102.668 21.0067 102.546ZM28.8225 101.92C28.8298 101.919 28.8298 101.919 28.837 101.918C29.9223 101.736 30.6543 100.708 30.4722 99.623C30.2901 98.5377 29.2627 97.8057 28.1774 97.9878C28.1702 97.989 28.1702 97.989 28.163 97.9902C27.0778 98.1723 26.3457 99.1997 26.5278 100.285C26.7099 101.37 27.7373 102.102 28.8225 101.92ZM36.4725 100.55C37.5532 100.342 38.2612 99.2982 38.054 98.2175C37.8467 97.1368 36.8026 96.4288 35.7219 96.636C35.7147 96.6374 35.7147 96.6374 35.7075 96.6388C34.6269 96.846 33.9188 97.8901 34.126 98.9708C34.3333 100.051 35.3773 100.76 36.458 100.552C36.4653 100.551 36.4653 100.551 36.4725 100.55ZM43.8724 98.3948C43.8779 98.3935 43.8779 98.3935 43.8834 98.3923C44.6916 98.2101 45.199 97.4073 45.0169 96.5991C44.8347 95.791 44.0319 95.2835 43.2237 95.4657C43.2183 95.4669 43.2183 95.4669 43.2128 95.4682C42.4047 95.6503 41.8972 96.4531 42.0793 97.2612C42.2614 98.0694 43.0642 98.5769 43.8724 98.3948ZM51.4276 96.5083C51.433 96.5068 51.433 96.5068 51.4384 96.5053C52.2363 96.2826 52.7026 95.4552 52.4799 94.6573C52.2572 93.8593 51.4298 93.393 50.6319 93.6157C50.6267 93.6172 50.6267 93.6172 50.6214 93.6186C49.8235 93.8413 49.3571 94.6686 49.5797 95.4666C49.8023 96.2645 50.6297 96.7309 51.4276 96.5083ZM58.4138 93.2088C58.4168 93.2076 58.4168 93.2076 58.4198 93.2064C58.8557 93.037 59.0717 92.5462 58.9022 92.1102C58.7327 91.6743 58.242 91.4583 57.806 91.6278C57.8032 91.6289 57.8032 91.6289 57.8004 91.63C57.3644 91.7993 57.1483 92.2901 57.3177 92.7261C57.4871 93.162 57.9778 93.3781 58.4138 93.2088Z" fill="white"/>
<path fill-rule="evenodd" clip-rule="evenodd" d="M5.44711 56.1886C5.45019 56.1882 5.45019 56.1882 5.45328 56.1878C5.91769 56.1325 6.24931 55.7111 6.19397 55.2467C6.13863 54.7823 5.71728 54.4507 5.25287 54.506C5.24981 54.5064 5.24981 54.5064 5.24674 54.5068C4.78233 54.5621 4.4507 54.9834 4.50603 55.4478C4.56136 55.9123 4.9827 56.2439 5.44711 56.1886ZM13.3486 56.0305C13.3541 56.0298 13.3541 56.0298 13.3596 56.029C14.1807 55.9193 14.7575 55.1648 14.6478 54.3436C14.5381 53.5225 13.7835 52.9458 12.9624 53.0554C12.9569 53.0562 12.9569 53.0562 12.9515 53.0569C12.1303 53.1666 11.5536 53.9211 11.6632 54.7423C11.7729 55.5634 12.5275 56.1402 13.3486 56.0305ZM21.0067 54.9493C21.0121 54.9485 21.0121 54.9485 21.0176 54.9477C21.8369 54.8254 22.4021 54.0621 22.2798 53.2428C22.1576 52.4234 21.3942 51.8583 20.5749 51.9805C20.5695 51.9813 20.5695 51.9813 20.564 51.9821C19.7447 52.1044 19.1795 52.8677 19.3018 53.687C19.424 54.5064 20.1873 55.0715 21.0067 54.9493ZM28.8225 54.3232C28.8298 54.322 28.8298 54.322 28.837 54.3208C29.9223 54.1387 30.6543 53.1113 30.4722 52.026C30.2901 50.9408 29.2627 50.2087 28.1774 50.3909C28.1702 50.3921 28.1702 50.3921 28.163 50.3933C27.0778 50.5754 26.3457 51.6028 26.5278 52.688C26.7099 53.7732 27.7373 54.5054 28.8225 54.3232ZM36.4725 52.9526C37.5532 52.7453 38.2612 51.7012 38.054 50.6205C37.8467 49.5399 36.8026 48.8318 35.7219 49.0391C35.7147 49.0405 35.7147 49.0405 35.7075 49.0419C34.6269 49.2491 33.9188 50.2932 34.126 51.3739C34.3333 52.4546 35.3773 53.1626 36.458 52.9554C36.4653 52.954 36.4653 52.954 36.4725 52.9526ZM43.8724 50.7948C43.8779 50.7935 43.8779 50.7935 43.8834 50.7923C44.6916 50.6101 45.199 49.8073 45.0169 48.9991C44.8347 48.191 44.0319 47.6835 43.2237 47.8657C43.2183 47.8669 43.2183 47.8669 43.2128 47.8682C42.4047 48.0503 41.8972 48.8531 42.0793 49.6612C42.2614 50.4694 43.0642 50.9769 43.8724 50.7948ZM51.4276 48.9083C51.433 48.9068 51.433 48.9068 51.4384 48.9053C52.2363 48.6826 52.7026 47.8552 52.4799 47.0573C52.2572 46.2593 51.4298 45.793 50.6319 46.0157C50.6267 46.0172 50.6267 46.0172 50.6214 46.0186C49.8235 46.2413 49.3571 47.0686 49.5797 47.8666C49.8023 48.6645 50.6297 49.1309 51.4276 48.9083ZM58.4198 46.2064C58.8557 46.037 59.0717 45.5462 58.9022 45.1102C58.7327 44.6743 58.242 44.4583 57.806 44.6278C57.8032 44.6289 57.8032 44.6289 57.8004 44.63C57.3644 44.7994 57.1483 45.2901 57.3177 45.7261C57.4871 46.162 57.9778 46.3781 58.4138 46.2088C58.4168 46.2076 58.4168 46.2076 58.4198 46.2064Z" fill="white"/>
<path fill-rule="evenodd" clip-rule="evenodd" d="M5.6776 63.9965C5.68306 63.9959 5.68306 63.9959 5.68853 63.9952C6.51113 63.8972 7.09853 63.1509 7.0005 62.3283C6.90248 61.5056 6.15616 60.9183 5.33355 61.0163C5.32812 61.0169 5.32812 61.0169 5.32269 61.0176C4.50008 61.1156 3.91267 61.8619 4.01068 62.6845C4.10869 63.5071 4.85499 64.0945 5.6776 63.9965ZM13.3486 63.0274C13.3541 63.0267 13.3541 63.0267 13.3596 63.026C14.1807 62.9163 14.7575 62.1617 14.6478 61.3406C14.5381 60.5194 13.7835 59.9427 12.9624 60.0524C12.9569 60.0531 12.9569 60.0531 12.9515 60.0538C12.1303 60.1635 11.5536 60.918 11.6632 61.7392C11.7729 62.5603 12.5275 63.1371 13.3486 63.0274ZM21.1767 62.5256C21.184 62.5245 21.184 62.5245 21.1912 62.5235C22.2796 62.3611 23.0303 61.3471 22.8679 60.2588C22.7055 59.1704 21.6916 58.4197 20.6032 58.5821C20.596 58.5832 20.596 58.5832 20.5888 58.5842C19.5004 58.7466 18.7497 59.7605 18.9121 60.8489C19.0744 61.9373 20.0884 62.688 21.1767 62.5256ZM28.837 61.3177C29.9223 61.1356 30.6543 60.1082 30.4722 59.023C30.2901 57.9377 29.2627 57.2057 28.1774 57.3878C28.1702 57.389 28.1702 57.389 28.163 57.3902C27.0778 57.5723 26.3457 58.5997 26.5278 59.6849C26.7099 60.7702 27.7373 61.5023 28.8225 61.3202C28.8298 61.319 28.8298 61.319 28.837 61.3177ZM36.4725 59.9611C37.5532 59.7532 38.2612 58.706 38.054 57.6222C37.8467 56.5384 36.8026 55.8283 35.7219 56.0361C35.7147 56.0375 35.7147 56.0375 35.7075 56.0389C34.6269 56.2467 33.9188 57.2939 34.126 58.3777C34.3333 59.4616 35.3773 60.1717 36.458 59.9639C36.4653 59.9625 36.4653 59.9625 36.4725 59.9611ZM44.0707 58.3695C44.0781 58.3679 44.0781 58.3679 44.0854 58.3662C45.1588 58.1243 45.8328 57.058 45.5908 55.9846C45.3488 54.9112 44.2825 54.2372 43.2092 54.4792C43.2019 54.4808 43.2019 54.4808 43.1947 54.4825C42.1213 54.7244 41.4473 55.7906 41.6892 56.864C41.9311 57.9374 42.9973 58.6115 44.0707 58.3695ZM51.4276 55.9083C51.433 55.9068 51.433 55.9068 51.4384 55.9053C52.2363 55.6826 52.7026 54.8552 52.4799 54.0573C52.2572 53.2593 51.4298 52.793 50.6319 53.0157C50.6267 53.0172 50.6267 53.0172 50.6214 53.0186C49.8235 53.2413 49.3571 54.0686 49.5797 54.8666C49.8023 55.6645 50.6297 56.1309 51.4276 55.9083ZM58.9 53.4756C58.9052 53.4736 58.9052 53.4736 58.9105 53.4715C59.6826 53.1714 60.0652 52.3021 59.765 51.5299C59.4649 50.7578 58.5956 50.3752 57.8234 50.6754C57.8185 50.6773 57.8185 50.6773 57.8135 50.6793C57.0413 50.9793 56.6585 51.8485 56.9586 52.6207C57.2586 53.3929 58.1278 53.7756 58.9 53.4756Z" fill="white"/>
<path fill-rule="evenodd" clip-rule="evenodd" d="M5.45328 70.5978C5.54647 70.5867 5.63432 70.5609 5.71477 70.5229C6.0352 70.3716 6.2382 70.0279 6.19397 69.6567C6.13863 69.1923 5.71728 68.8607 5.25287 68.916C5.24981 68.9164 5.24981 68.9164 5.24674 68.9168C4.78233 68.9721 4.4507 69.3934 4.50603 69.8578C4.56136 70.3223 4.9827 70.6539 5.44711 70.5986C5.45019 70.5982 5.45019 70.5982 5.45328 70.5978ZM13.3486 70.0274C13.3541 70.0267 13.3541 70.0267 13.3596 70.026C14.1807 69.9163 14.7575 69.1617 14.6478 68.3406C14.5381 67.5194 13.7835 66.9427 12.9624 67.0524C12.9569 67.0531 12.9569 67.0531 12.9515 67.0538C12.1303 67.1635 11.5536 67.918 11.6632 68.7392C11.7729 69.5603 12.5275 70.1371 13.3486 70.0274ZM21.0067 68.9462C21.0121 68.9454 21.0121 68.9454 21.0176 68.9446C21.8369 68.8224 22.4021 68.059 22.2798 67.2397C22.1576 66.4203 21.3942 65.8552 20.5749 65.9775C20.5695 65.9783 20.5695 65.9783 20.564 65.9791C19.7447 66.1013 19.1795 66.8646 19.3018 67.684C19.424 68.5033 20.1873 69.0685 21.0067 68.9462ZM28.8225 68.3202C28.8298 68.319 28.8298 68.319 28.837 68.3177C29.9223 68.1356 30.6543 67.1082 30.4722 66.023C30.2901 64.9377 29.2627 64.2057 28.1774 64.3878C28.1702 64.389 28.1702 64.389 28.163 64.3902C27.0778 64.5723 26.3457 65.5997 26.5278 66.6849C26.7099 67.7702 27.7373 68.5023 28.8225 68.3202ZM36.4725 66.9495C37.5532 66.7423 38.2612 65.6982 38.054 64.6175C37.8467 63.5368 36.8026 62.8288 35.7219 63.036C35.7147 63.0374 35.7147 63.0374 35.7075 63.0388C34.6269 63.246 33.9188 64.2901 34.126 65.3708C34.3333 66.4515 35.3773 67.1596 36.458 66.9523C36.4653 66.9509 36.4653 66.9509 36.4725 66.9495ZM43.8724 64.7948C43.8779 64.7935 43.8779 64.7935 43.8834 64.7923C44.6916 64.6101 45.199 63.8073 45.0169 62.9991C44.8347 62.191 44.0319 61.6835 43.2237 61.8657C43.2183 61.8669 43.2183 61.8669 43.2128 61.8682C42.4047 62.0503 41.8972 62.8531 42.0793 63.6612C42.2614 64.4694 43.0642 64.9769 43.8724 64.7948ZM51.4276 62.9083C51.433 62.9068 51.433 62.9068 51.4384 62.9053C52.2363 62.6826 52.7026 61.8552 52.4799 61.0573C52.2572 60.2593 51.4298 59.793 50.6319 60.0157C50.6267 60.0172 50.6267 60.0172 50.6214 60.0186C49.8235 60.2413 49.3571 61.0686 49.5797 61.8666C49.8023 62.6645 50.6297 63.1309 51.4276 62.9083ZM58.4138 59.6088C58.4168 59.6076 58.4168 59.6076 58.4198 59.6064C58.8557 59.437 59.0717 58.9462 58.9022 58.5102C58.7327 58.0743 58.242 57.8583 57.806 58.0278C57.8032 58.0289 57.8032 58.0289 57.8004 58.03C57.3644 58.1994 57.1483 58.6901 57.3177 59.1261C57.4871 59.562 57.9778 59.7781 58.4138 59.6088Z" fill="white"/>
<path fill-rule="evenodd" clip-rule="evenodd" d="M5.44711 22.2886C5.45019 22.2882 5.45019 22.2882 5.45328 22.2878C5.91769 22.2325 6.24931 21.8111 6.19397 21.3467C6.13863 20.8823 5.71728 20.5507 5.25287 20.606C5.24981 20.6064 5.24981 20.6064 5.24674 20.6068C4.78233 20.6621 4.4507 21.0834 4.50603 21.5478C4.56136 22.0123 4.9827 22.3439 5.44711 22.2886ZM13.3486 22.1305C13.3541 22.1298 13.3541 22.1298 13.3596 22.129C14.1807 22.0193 14.7575 21.2648 14.6478 20.4436C14.5381 19.6225 13.7835 19.0457 12.9624 19.1554C12.9569 19.1562 12.9569 19.1562 12.9515 19.1569C12.1303 19.2666 11.5536 20.0211 11.6632 20.8423C11.7729 21.6634 12.5275 22.2402 13.3486 22.1305ZM21.0067 21.0493C21.0121 21.0485 21.0121 21.0485 21.0176 21.0477C21.8369 20.9254 22.4021 20.1621 22.2798 19.3428C22.1576 18.5234 21.3942 17.9583 20.5749 18.0805C20.5695 18.0813 20.5695 18.0813 20.564 18.0821C19.7447 18.2044 19.1795 18.9677 19.3018 19.787C19.424 20.6064 20.1873 21.1715 21.0067 21.0493ZM28.8225 20.4232C28.8298 20.422 28.8298 20.422 28.837 20.4208C29.9223 20.2387 30.6543 19.2113 30.4722 18.126C30.2901 17.0408 29.2627 16.3087 28.1774 16.4909C28.1702 16.4921 28.1702 16.4921 28.163 16.4933C27.0778 16.6754 26.3457 17.7028 26.5278 18.788C26.7099 19.8732 27.7373 20.6054 28.8225 20.4232ZM36.4725 19.0526C37.5532 18.8453 38.2612 17.8012 38.054 16.7205C37.8467 15.6399 36.8026 14.9318 35.7219 15.1391C35.7147 15.1405 35.7147 15.1405 35.7075 15.1419C34.6269 15.3491 33.9188 16.3932 34.126 17.4739C34.3333 18.5546 35.3773 19.2626 36.458 19.0554C36.4653 19.054 36.4653 19.054 36.4725 19.0526ZM43.8724 16.8948C43.8779 16.8935 43.8779 16.8935 43.8834 16.8923C44.6916 16.7101 45.199 15.9073 45.0169 15.0991C44.8347 14.291 44.0319 13.7835 43.2237 13.9657C43.2183 13.9669 43.2183 13.9669 43.2128 13.9682C42.4047 14.1503 41.8972 14.9531 42.0793 15.7612C42.2614 16.5694 43.0642 17.0769 43.8724 16.8948ZM51.4276 15.0083C51.433 15.0068 51.433 15.0068 51.4384 15.0053C52.2363 14.7826 52.7026 13.9552 52.4799 13.1573C52.2572 12.3593 51.4298 11.893 50.6319 12.1157C50.6267 12.1172 50.6267 12.1172 50.6214 12.1186C49.8235 12.3413 49.3571 13.1686 49.5797 13.9666C49.8023 14.7645 50.6297 15.2309 51.4276 15.0083ZM58.4198 12.3064C58.8557 12.137 59.0717 11.6462 58.9022 11.2102C58.7327 10.7743 58.242 10.5583 57.806 10.7278C57.8032 10.7289 57.8032 10.7289 57.8004 10.73C57.3644 10.8993 57.1483 11.3901 57.3177 11.8261C57.4871 12.262 57.9778 12.4781 58.4138 12.3088C58.4168 12.3076 58.4168 12.3076 58.4198 12.3064Z" fill="white"/>
<path fill-rule="evenodd" clip-rule="evenodd" d="M5.6776 30.0965C5.68306 30.0959 5.68306 30.0959 5.68853 30.0952C6.51113 29.9972 7.09853 29.2509 7.0005 28.4283C6.90248 27.6056 6.15616 27.0183 5.33355 27.1163C5.32812 27.1169 5.32812 27.1169 5.32269 27.1176C4.50008 27.2156 3.91267 27.9619 4.01068 28.7845C4.10869 29.6071 4.85499 30.1945 5.6776 30.0965ZM13.3486 29.1274C13.3541 29.1267 13.3541 29.1267 13.3596 29.126C14.1807 29.0163 14.7575 28.2617 14.6478 27.4406C14.5381 26.6194 13.7835 26.0427 12.9624 26.1524C12.9569 26.1531 12.9569 26.1531 12.9515 26.1538C12.1303 26.2635 11.5536 27.018 11.6632 27.8392C11.7729 28.6603 12.5275 29.2371 13.3486 29.1274ZM21.1767 28.6256C21.184 28.6245 21.184 28.6245 21.1912 28.6235C22.2796 28.4611 23.0303 27.4471 22.8679 26.3588C22.7055 25.2704 21.6916 24.5197 20.6032 24.6821C20.596 24.6832 20.596 24.6832 20.5888 24.6842C19.5004 24.8466 18.7497 25.8605 18.9121 26.9489C19.0744 28.0373 20.0884 28.788 21.1767 28.6256ZM28.837 27.4177C29.9223 27.2356 30.6543 26.2082 30.4722 25.123C30.2901 24.0377 29.2627 23.3057 28.1774 23.4878C28.1702 23.489 28.1702 23.489 28.163 23.4902C27.0778 23.6723 26.3457 24.6997 26.5278 25.7849C26.7099 26.8702 27.7373 27.6023 28.8225 27.4202C28.8298 27.419 28.8298 27.419 28.837 27.4177ZM36.4725 26.0611C37.5532 25.8532 38.2612 24.806 38.054 23.7222C37.8467 22.6384 36.8026 21.9283 35.7219 22.1361C35.7147 22.1375 35.7147 22.1375 35.7075 22.1389C34.6269 22.3467 33.9188 23.3939 34.126 24.4777C34.3333 25.5616 35.3773 26.2717 36.458 26.0639C36.4653 26.0625 36.4653 26.0625 36.4725 26.0611ZM44.0707 24.4695C44.0781 24.4679 44.0781 24.4679 44.0854 24.4662C45.1588 24.2243 45.8328 23.158 45.5908 22.0846C45.3488 21.0112 44.2825 20.3372 43.2092 20.5792C43.2019 20.5808 43.2019 20.5808 43.1947 20.5825C42.1213 20.8244 41.4473 21.8906 41.6892 22.964C41.9311 24.0374 42.9973 24.7114 44.0707 24.4695ZM51.4276 22.0083C51.433 22.0068 51.433 22.0068 51.4384 22.0053C52.2363 21.7826 52.7026 20.9552 52.4799 20.1573C52.2572 19.3593 51.4298 18.893 50.6319 19.1157C50.6267 19.1172 50.6267 19.1172 50.6214 19.1186C49.8235 19.3413 49.3571 20.1686 49.5797 20.9666C49.8023 21.7645 50.6297 22.2309 51.4276 22.0083ZM58.9 19.5756C58.9052 19.5736 58.9052 19.5736 58.9105 19.5715C59.6826 19.2714 60.0652 18.4021 59.765 17.6299C59.4649 16.8578 58.5956 16.4752 57.8234 16.7754C57.8185 16.7773 57.8185 16.7773 57.8135 16.7793C57.0413 17.0793 56.6585 17.9485 56.9586 18.7207C57.2586 19.4929 58.1278 19.8756 58.9 19.5756Z" fill="white"/>
<path fill-rule="evenodd" clip-rule="evenodd" d="M5.45328 36.6978C5.54647 36.6867 5.63432 36.6609 5.71477 36.6229C6.0352 36.4716 6.2382 36.1279 6.19397 35.7567C6.13863 35.2923 5.71728 34.9607 5.25287 35.016C5.24981 35.0164 5.24981 35.0164 5.24674 35.0168C4.78233 35.0721 4.4507 35.4934 4.50603 35.9578C4.56136 36.4223 4.9827 36.7539 5.44711 36.6986C5.45019 36.6982 5.45019 36.6982 5.45328 36.6978ZM13.3486 36.1274C13.3541 36.1267 13.3541 36.1267 13.3596 36.126C14.1807 36.0163 14.7575 35.2617 14.6478 34.4406C14.5381 33.6194 13.7835 33.0427 12.9624 33.1524C12.9569 33.1531 12.9569 33.1531 12.9515 33.1538C12.1303 33.2635 11.5536 34.018 11.6632 34.8392C11.7729 35.6603 12.5275 36.2371 13.3486 36.1274ZM21.0067 35.0462C21.0121 35.0454 21.0121 35.0454 21.0176 35.0446C21.8369 34.9224 22.4021 34.159 22.2798 33.3397C22.1576 32.5203 21.3942 31.9552 20.5749 32.0775C20.5695 32.0783 20.5695 32.0783 20.564 32.0791C19.7447 32.2013 19.1795 32.9646 19.3018 33.784C19.424 34.6033 20.1873 35.1685 21.0067 35.0462ZM28.8225 34.4202C28.8298 34.419 28.8298 34.419 28.837 34.4177C29.9223 34.2356 30.6543 33.2082 30.4722 32.123C30.2901 31.0377 29.2627 30.3057 28.1774 30.4878C28.1702 30.489 28.1702 30.489 28.163 30.4902C27.0778 30.6723 26.3457 31.6997 26.5278 32.7849C26.7099 33.8702 27.7373 34.6023 28.8225 34.4202ZM36.4725 33.0495C37.5532 32.8423 38.2612 31.7982 38.054 30.7175C37.8467 29.6368 36.8026 28.9288 35.7219 29.136C35.7147 29.1374 35.7147 29.1374 35.7075 29.1388C34.6269 29.346 33.9188 30.3901 34.126 31.4708C34.3333 32.5515 35.3773 33.2596 36.458 33.0523C36.4653 33.0509 36.4653 33.0509 36.4725 33.0495ZM43.8724 30.8948C43.8779 30.8935 43.8779 30.8935 43.8834 30.8923C44.6916 30.7101 45.199 29.9073 45.0169 29.0991C44.8347 28.291 44.0319 27.7835 43.2237 27.9657C43.2183 27.9669 43.2183 27.9669 43.2128 27.9682C42.4047 28.1503 41.8972 28.9531 42.0793 29.7612C42.2614 30.5694 43.0642 31.0769 43.8724 30.8948ZM51.4276 29.0083C51.433 29.0068 51.433 29.0068 51.4384 29.0053C52.2363 28.7826 52.7026 27.9552 52.4799 27.1573C52.2572 26.3593 51.4298 25.893 50.6319 26.1157C50.6267 26.1172 50.6267 26.1172 50.6214 26.1186C49.8235 26.3413 49.3571 27.1686 49.5797 27.9666C49.8023 28.7645 50.6297 29.2309 51.4276 29.0083ZM58.4138 25.7088C58.4168 25.7076 58.4168 25.7076 58.4198 25.7064C58.8557 25.537 59.0717 25.0462 58.9022 24.6102C58.7327 24.1743 58.242 23.9583 57.806 24.1278C57.8032 24.1289 57.8032 24.1289 57.8004 24.13C57.3644 24.2993 57.1483 24.7901 57.3177 25.2261C57.4871 25.662 57.9778 25.8781 58.4138 25.7088Z" fill="white"/>
</svg>
