<svg width="54px" height="54px" id="Layer_1" data-name="Layer 1" xmlns="http://www.w3.org/2000/svg" viewBox="0 0 400 400"><defs><style>.cls-1{fill:#e42d2a;}.cls-2{fill:#fff;}.cls-3{fill:#cccccb;}</style></defs><path class="cls-1" d="M152.26,123.1l-3.62.52C149.78,123.44,151,123.28,152.26,123.1Z"/><path class="cls-1" d="M154.12,170.36c4.74-.66,10.24-1.38,16.18-2.16C164.36,169,158.88,169.7,154.12,170.36Z"/><path class="cls-1" d="M170.7,168.14c2.62-.34,5.32-.72,8.08-1.08C176,167.44,173.32,167.8,170.7,168.14Z"/><path class="cls-2" d="M152.26,123.1l-3.62.52C149.78,123.44,151,123.28,152.26,123.1Z"/><path class="cls-2" d="M154.12,170.36c4.74-.66,10.24-1.38,16.18-2.16C164.36,169,158.88,169.7,154.12,170.36Z"/><path class="cls-2" d="M170.7,168.14c2.62-.34,5.32-.72,8.08-1.08C176,167.44,173.32,167.8,170.7,168.14Z"/><path class="cls-2" d="M293.12,167.66a9.82,9.82,0,0,0-8.64-7.78,1.59,1.59,0,0,0-.44,0H218.28a9.76,9.76,0,0,1-1.22-.08,14.6,14.6,0,0,1-9.74-4.94c-.1-.14-.22-.26-.32-.4a13.79,13.79,0,0,1-2.84-6,11.77,11.77,0,0,1-.36-3.06V79.84A9.82,9.82,0,0,0,195,70.4a8.14,8.14,0,0,0-1-.06h-71.7a16,16,0,0,0-16,16V313.62a15.9,15.9,0,0,0,7.46,13.52.2.2,0,0,0,.1.08,15.64,15.64,0,0,0,8.48,2.44h155a16,16,0,0,0,16-16v-144A10.94,10.94,0,0,0,293.12,167.66ZM136.6,126.36a.24.24,0,0,1,.08-.18,4.48,4.48,0,0,1,1.76-.72c.16,0,.32-.1.5-.14.74-.18,1.66-.36,2.72-.56l.64-.12c.6-.12,1.26-.22,2-.34l1.14-.18,1-.16,1.58-.24.64-.1,3.62-.52,1-.14,5.08-.7,2.2-.3,12.68-1.68,4.48-.6c2.74-.38,5.54-.76,8.38-1.18,1.76-.24,3.54-.5,5.34-.76l2.56-.38V144a23.43,23.43,0,0,0,.6,5.46,25.09,25.09,0,0,0,5.1,10.78l.58.72a20.6,20.6,0,0,0,2.58,2.54l0,0-3.78.6c-1,.16-2,.3-2.94.44s-2,.3-2.94.44c-4.92.74-9.78,1.42-14.48,2.06-2.76.36-5.46.74-8.08,1.08l-.4.06c-5.94.78-11.44,1.5-16.18,2.16a.55.55,0,0,0-.18,0l-3,.42-1,.14c-.64.08-1.24.18-1.84.26l-1,.16c-.5.06-1,.14-1.48.22l-1.82.3-2.12.38c-.44.08-.84.14-1.22.24a8.08,8.08,0,0,0-.8.16c-.5.1-.94.22-1.32.32l-.6.18-.14.06a.72.72,0,0,0-.22.08.6.6,0,0,0-.2.08.74.74,0,0,0-.22.1,1,1,0,0,0-.22.14s-.06,0-.06.06a.28.28,0,0,0-.1.18ZM263.36,269c0,19.8-126.76,27.72-126.76,31.68V253.1c0-4,126.76-11.88,126.76-31.68Zm0-63.38c0,19.8-126.76,27.72-126.76,31.68V189.72c0-3,75-8.44,109.62-19.78h17.14Z"/><path class="cls-3" d="M293.32,149.86v12.58a11.71,11.71,0,0,0-2.1-6.74,12,12,0,0,0-9.88-5.22h-62a1.94,1.94,0,0,1-.34,0,6.19,6.19,0,0,1-4.4-2.24l0,0a6,6,0,0,1-1.2-2.58,5.46,5.46,0,0,1-.14-1.32v-62a11.89,11.89,0,0,0-4.92-9.64,11.67,11.67,0,0,0-7.06-2.32H213.8a5.8,5.8,0,0,1,2.46.54l0,0a1.18,1.18,0,0,1,.28.12,1.62,1.62,0,0,1,.36.2,3.79,3.79,0,0,1,.66.44L292,146.12a4.68,4.68,0,0,1,.78,1.28v0h0A5.94,5.94,0,0,1,293.32,149.86Z"/><path class="cls-2" d="M293.32,169.94v0a2.82,2.82,0,0,0,.4,0Z"/></svg>