<svg width="64px" height="109px" viewBox="0 0 64 109" version="1.1" xmlns="http://www.w3.org/2000/svg" xmlns:xlink="http://www.w3.org/1999/xlink">
  <g id="Page-1" stroke="none" stroke-width="1" fill="none" fill-rule="evenodd">
    <g id="logo-background" transform="translate(0.000000, 16.000000)" fill="#CCC">
      <path d="M0.5,59.5 C0.5,59.5 63.4,65.8 63.4,76.3 L63.4,51.1 C63.4,51.1 63.4,40.6 0.5,34.3 L0.5,59.5 L0.5,59.5 Z" id="logo-background-bottom"></path>
      <path d="M0.5,25.9 C0.5,25.9 63.4,32.2 63.4,42.7 L63.4,17.5 C63.4,17.5 63.4,7 0.5,0.7 L0.5,10.5 L0.5,25.9 L0.5,25.9 Z" id="logo-background-top"></path>
    </g>
    <g id="logo-foreground" fill="#FFF">
      <path d="M0.5,109 L0.5,83.8 C0.5,83.8 63.4,77.5 63.4,67 L63.4,92.2 C63.5,92.3 63.5,102.7 0.5,109" id="Logo_Foreground_Bottom"></path>
      <path d="M0.5,50.3 C0.5,50.3 63.4,44 63.4,33.5 L63.4,58.7 C63.4,58.7 63.4,69.2 0.5,75.5 L0.5,50.3 L0.5,50.3 Z" id="Logo_Foreground_Middle"></path>
      <path d="M63.5,0 L63.5,25.2 C63.5,25.2 63.5,35.7 0.6,42 L0.6,16.7 C0.5,16.7 63.5,10.5 63.5,0" id="logo-foreground-top"></path>
    </g>
    <g id="dots" transform="translate(4.000000, 10.000000)" fill="#B6B6B6">
      <g id="bottom" transform="translate(0.000000, 67.500000)">
        <path d="M1.4471104,12.2885536 C1.45019313,12.2881864 1.45019313,12.2881864 1.45327704,12.2878189 C1.91768952,12.2324787 2.24930811,11.8111359 2.1939679,11.3467234 C2.13862768,10.8823109 1.71728488,10.5506923 1.2528724,10.6060325 C1.24980572,10.606398 1.24980572,10.606398 1.24674021,10.6067632 C0.782326598,10.6620939 0.450699376,11.0834299 0.506030077,11.5478435 C0.561360778,12.0122571 0.982696791,12.3438844 1.4471104,12.2885536 L1.4471104,12.2885536 Z M9.34858965,12.1304907 C9.35409106,12.129756 9.35409106,12.129756 9.35959333,12.129021 C10.1807278,12.019341 10.7574756,11.2647668 10.6477955,10.4436323 C10.5381155,9.62249789 9.78354128,9.04575011 8.96240683,9.15543014 C8.95693539,9.15616095 8.95693539,9.15616095 8.95146479,9.15689157 C8.13032806,9.26655457 7.55356464,10.0211168 7.66322765,10.8422536 C7.77289065,11.6633903 8.52745292,12.2401537 9.34858965,12.1304907 L9.34858965,12.1304907 Z M17.0066591,11.0493128 C17.0121188,11.0484984 17.0121188,11.0484984 17.0175789,11.0476838 C17.8369369,10.9254384 18.4020584,10.1621181 18.279813,9.34276003 C18.1575677,8.52340201 17.3942473,7.95828052 16.5748893,8.08052587 C16.5694641,8.08133528 16.5694641,8.08133528 16.5640392,8.08214454 C15.7446783,8.20437064 15.1795389,8.96767771 15.301765,9.78703861 C15.4239911,10.6063995 16.1872982,11.1715389 17.0066591,11.0493128 L17.0066591,11.0493128 Z M24.8225082,10.4232459 C24.8297684,10.4220275 24.8297684,10.4220275 24.8370287,10.420809 C25.922252,10.2386672 26.6543441,9.21126476 26.4722023,8.12604147 C26.2900605,7.04081818 25.2626581,6.30872601 24.1774348,6.49086783 C24.1702314,6.4920768 24.1702314,6.4920768 24.1630282,6.49328559 C23.0777996,6.67539597 22.3456777,7.70277717 22.5277881,8.78800574 C22.7098984,9.87323431 23.7372796,10.6053563 24.8225082,10.4232459 L24.8225082,10.4232459 Z M32.4725265,9.05261002 C33.5532108,8.84532993 34.2612448,7.80122849 34.0539647,6.72054419 C33.8466846,5.63985989 32.8025831,4.93182589 31.7218988,5.13910599 C31.714724,5.14048211 31.714724,5.14048211 31.7075489,5.14185807 C30.6268567,5.34909665 29.9187826,6.39317088 30.1260211,7.47386314 C30.3332597,8.5545554 31.3773339,9.26262952 32.4580262,9.05539095 C32.4652764,9.05400057 32.4652764,9.05400057 32.4725265,9.05261002 Z M39.8723866,6.89476879 C39.877909,6.8935242 39.877909,6.8935242 39.883431,6.89227947 C40.6915794,6.71010471 41.1990314,5.90728916 41.0168566,5.09914075 C40.8346818,4.29099233 40.0318663,3.78354042 39.2237179,3.96571517 C39.218279,3.96694116 39.218279,3.96694116 39.2128397,3.96816703 C38.404681,4.15029588 37.8971834,4.9530826 38.0793123,5.76124136 C38.2614411,6.56940012 39.0642279,7.07689764 39.8723866,6.89476879 L39.8723866,6.89476879 Z M47.4276119,5.00828445 C47.4329844,5.00678549 47.4329844,5.00678549 47.4383562,5.00528637 C48.2362896,4.78258973 48.7026111,3.95520561 48.4799145,3.15727221 C48.2572179,2.35933881 47.4298337,1.89301728 46.6319003,2.11571391 C46.6266645,2.1171751 46.6266645,2.1171751 46.6214279,2.11863616 C45.8234736,2.34125773 45.3570742,3.16859798 45.5796958,3.96655233 C45.8023173,4.76450667 46.6296576,5.23090603 47.4276119,5.00828445 L47.4276119,5.00828445 Z M54.419759,2.30643871 C54.8556933,2.13695884 55.0716973,1.6461737 54.9022174,1.21023941 C54.7327376,0.774305114 54.2419524,0.558301127 53.8060181,0.727780997 C53.8032127,0.728871549 53.8032127,0.728871549 53.8004064,0.729962021 C53.3644359,0.89934874 53.148327,1.39008772 53.3177137,1.82605822 C53.4871005,2.26202871 53.9778394,2.47813756 54.4138099,2.30875084 C54.4167849,2.30759485 54.4167849,2.30759485 54.419759,2.30643871 Z" id="Shape"></path>
        <path d="M1.67760355,20.096503 C1.68306395,20.0958524 1.68306395,20.0958524 1.68852642,20.0952015 C2.51113381,19.9971782 3.09852524,19.2508595 3.00050189,18.4282521 C2.90247854,17.6056447 2.15615986,17.0182533 1.33355246,17.1162767 C1.3281205,17.1169239 1.3281205,17.1169239 1.3226906,17.1175709 C0.500081196,17.2155774 -0.0873255124,17.961884 0.0106809923,18.7844934 C0.108687497,19.6071028 0.854994145,20.1945095 1.67760355,20.096503 L1.67760355,20.096503 Z M9.34858965,19.1274206 C9.35409106,19.1266859 9.35409106,19.1266859 9.35959333,19.1259509 C10.1807278,19.0162709 10.7574756,18.2616967 10.6477955,17.4405622 C10.5381155,16.6194278 9.78354128,16.04268 8.96240683,16.15236 C8.95693539,16.1530908 8.95693539,16.1530908 8.95146479,16.1538215 C8.13032806,16.2634845 7.55356464,17.0180467 7.66322765,17.8391835 C7.77289065,18.6603202 8.52745292,19.2370836 9.34858965,19.1274206 L9.34858965,19.1274206 Z M17.1767435,18.6256231 C17.1839958,18.6245412 17.1839958,18.6245412 17.1912486,18.6234592 C18.27963,18.4610765 19.0303002,17.4471319 18.8679175,16.3587506 C18.7055348,15.2703693 17.6915903,14.519699 16.6032089,14.6820817 C16.5960024,14.6831569 16.5960024,14.6831569 16.5887964,14.6842319 C15.5004112,14.846589 14.7497172,15.8605159 14.9120743,16.948901 C15.0744314,18.0372862 16.0883584,18.7879802 17.1767435,18.6256231 L17.1767435,18.6256231 Z M24.8370287,17.4177379 C25.922252,17.2355961 26.6543441,16.2081937 26.4722023,15.1229704 C26.2900605,14.0377471 25.2626581,13.3056549 24.1774348,13.4877968 C24.1702314,13.4890057 24.1702314,13.4890057 24.1630282,13.4902145 C23.0777996,13.6723249 22.3456777,14.6997061 22.5277881,15.7849347 C22.7098984,16.8701632 23.7372796,17.6022852 24.8225082,17.4201748 C24.8297684,17.4189565 24.8297684,17.4189565 24.8370287,17.4177379 Z M32.4725265,16.061085 C33.5532108,15.853199 34.2612448,14.8060455 34.0539647,13.7222022 C33.8466846,12.6383589 32.8025831,11.9282552 31.7218988,12.1361412 C31.714724,12.1375214 31.714724,12.1375214 31.7075489,12.1389013 C30.6268567,12.3467457 29.9187826,13.3938719 30.1260211,14.4777232 C30.3332597,15.5615745 31.3773339,16.2717185 32.4580262,16.0638741 C32.4652764,16.0624797 32.4652764,16.0624797 32.4725265,16.061085 Z M40.0707225,14.4695476 C40.0780573,14.4678946 40.0780573,14.4678946 40.0853916,14.4662413 C41.158768,14.2242783 41.8327617,13.1579849 41.5907986,12.0846085 C41.3488355,11.011232 40.2825422,10.3372384 39.2091657,10.5792015 C39.2019419,10.5808298 39.2019419,10.5808298 39.1947175,10.582458 C38.1213273,10.8243601 37.447273,11.8906152 37.6891752,12.9640053 C37.9310773,14.0373955 38.9973324,14.7114498 40.0707225,14.4695476 L40.0707225,14.4695476 Z M47.4276119,12.0082845 C47.4329844,12.0067855 47.4329844,12.0067855 47.4383562,12.0052864 C48.2362896,11.7825897 48.7026111,10.9552056 48.4799145,10.1572722 C48.2572179,9.35933881 47.4298337,8.89301728 46.6319003,9.11571391 C46.6266645,9.1171751 46.6266645,9.1171751 46.6214279,9.11863616 C45.8234736,9.34125773 45.3570742,10.168598 45.5796958,10.9665523 C45.8023173,11.7645067 46.6296576,12.230906 47.4276119,12.0082845 L47.4276119,12.0082845 Z M54.8999721,9.57562965 C54.9052414,9.57358217 54.9052414,9.57358217 54.9105092,9.57153441 C55.6826371,9.27135123 56.0652239,8.40207131 55.7650408,7.62994336 C55.4648576,6.85781542 54.5955777,6.4752286 53.8234497,6.77541179 C53.8184808,6.77734338 53.8184808,6.77734338 53.8135101,6.77927482 C53.0413181,7.07929302 52.6585455,7.94849117 52.9585637,8.72068323 C53.2585819,9.4928753 54.12778,9.87564785 54.8999721,9.57562965 L54.8999721,9.57562965 Z" id="Shape"></path>
        <path d="M1.45327704,26.6978168 C1.54647464,26.6867112 1.63432439,26.660866 1.7147722,26.6228911 C2.03520341,26.4716332 2.23820252,26.1279362 2.1939679,25.7567213 C2.13862768,25.2923089 1.71728488,24.9606903 1.2528724,25.0160305 C1.24980572,25.0163959 1.24980572,25.0163959 1.24674021,25.0167611 C0.782326598,25.0720918 0.450699376,25.4934278 0.506030077,25.9578415 C0.561360778,26.4222551 0.982696791,26.7538823 1.4471104,26.6985516 C1.45019313,26.6981843 1.45019313,26.6981843 1.45327704,26.6978168 Z M9.34858965,26.1274206 C9.35409106,26.1266859 9.35409106,26.1266859 9.35959333,26.1259509 C10.1807278,26.0162709 10.7574756,25.2616967 10.6477955,24.4405622 C10.5381155,23.6194278 9.78354128,23.04268 8.96240683,23.15236 C8.95693539,23.1530908 8.95693539,23.1530908 8.95146479,23.1538215 C8.13032806,23.2634845 7.55356464,24.0180467 7.66322765,24.8391835 C7.77289065,25.6603202 8.52745292,26.2370836 9.34858965,26.1274206 L9.34858965,26.1274206 Z M17.0066591,25.0462427 C17.0121188,25.0454283 17.0121188,25.0454283 17.0175789,25.0446136 C17.8369369,24.9223683 18.4020584,24.1590479 18.279813,23.3396899 C18.1575677,22.5203319 17.3942473,21.9552104 16.5748893,22.0774558 C16.5694641,22.0782652 16.5694641,22.0782652 16.5640392,22.0790744 C15.7446783,22.2013005 15.1795389,22.9646076 15.301765,23.7839685 C15.4239911,24.6033294 16.1872982,25.1684688 17.0066591,25.0462427 L17.0066591,25.0462427 Z M24.8225082,24.4201748 C24.8297684,24.4189565 24.8297684,24.4189565 24.8370287,24.4177379 C25.922252,24.2355961 26.6543441,23.2081937 26.4722023,22.1229704 C26.2900605,21.0377471 25.2626581,20.3056549 24.1774348,20.4877968 C24.1702314,20.4890057 24.1702314,20.4890057 24.1630282,20.4902145 C23.0777996,20.6723249 22.3456777,21.6997061 22.5277881,22.7849347 C22.7098984,23.8701632 23.7372796,24.6022852 24.8225082,24.4201748 L24.8225082,24.4201748 Z M32.4725265,23.0495399 C33.5532108,22.8422598 34.2612448,21.7981584 34.0539647,20.7174741 C33.8466846,19.6367898 32.8025831,18.9287558 31.7218988,19.1360359 C31.714724,19.137412 31.714724,19.137412 31.7075489,19.138788 C30.6268567,19.3460265 29.9187826,20.3901008 30.1260211,21.470793 C30.3332597,22.5514853 31.3773339,23.2595594 32.4580262,23.0523208 C32.4652764,23.0509305 32.4652764,23.0509305 32.4725265,23.0495399 Z M39.8723866,20.8947688 C39.877909,20.8935242 39.877909,20.8935242 39.883431,20.8922795 C40.6915794,20.7101047 41.1990314,19.9072892 41.0168566,19.0991407 C40.8346818,18.2909923 40.0318663,17.7835404 39.2237179,17.9657152 C39.218279,17.9669412 39.218279,17.9669412 39.2128397,17.968167 C38.404681,18.1502959 37.8971834,18.9530826 38.0793123,19.7612414 C38.2614411,20.5694001 39.0642279,21.0768976 39.8723866,20.8947688 L39.8723866,20.8947688 Z M47.4276119,19.0082845 C47.4329844,19.0067855 47.4329844,19.0067855 47.4383562,19.0052864 C48.2362896,18.7825897 48.7026111,17.9552056 48.4799145,17.1572722 C48.2572179,16.3593388 47.4298337,15.8930173 46.6319003,16.1157139 C46.6266645,16.1171751 46.6266645,16.1171751 46.6214279,16.1186362 C45.8234736,16.3412577 45.3570742,17.168598 45.5796958,17.9665523 C45.8023173,18.7645067 46.6296576,19.230906 47.4276119,19.0082845 L47.4276119,19.0082845 Z M54.4138099,15.7087505 C54.4167849,15.7075945 54.4167849,15.7075945 54.419759,15.7064383 C54.8556933,15.5369585 55.0716973,15.0461733 54.9022174,14.610239 C54.7327376,14.1743047 54.2419524,13.9583007 53.8060181,14.1277806 C53.8032127,14.1288712 53.8032127,14.1288712 53.8004064,14.1299616 C53.3644359,14.2993484 53.148327,14.7900873 53.3177137,15.2260578 C53.4871005,15.6620283 53.9778394,15.8781372 54.4138099,15.7087505 L54.4138099,15.7087505 Z" id="Shape"></path>
      </g>
      <g id="middle" transform="translate(0.000000, 33.900002)">
        <path d="M1.4471104,12.2885536 C1.45019313,12.2881864 1.45019313,12.2881864 1.45327704,12.2878189 C1.91768952,12.2324787 2.24930811,11.8111359 2.1939679,11.3467234 C2.13862768,10.8823109 1.71728488,10.5506923 1.2528724,10.6060325 C1.24980572,10.606398 1.24980572,10.606398 1.24674021,10.6067632 C0.782326598,10.6620939 0.450699376,11.0834299 0.506030077,11.5478435 C0.561360778,12.0122571 0.982696791,12.3438844 1.4471104,12.2885536 L1.4471104,12.2885536 Z M9.34858965,12.1304907 C9.35409106,12.129756 9.35409106,12.129756 9.35959333,12.129021 C10.1807278,12.019341 10.7574756,11.2647668 10.6477955,10.4436323 C10.5381155,9.62249789 9.78354128,9.04575011 8.96240683,9.15543014 C8.95693539,9.15616095 8.95693539,9.15616095 8.95146479,9.15689157 C8.13032806,9.26655457 7.55356464,10.0211168 7.66322765,10.8422536 C7.77289065,11.6633903 8.52745292,12.2401537 9.34858965,12.1304907 L9.34858965,12.1304907 Z M17.0066591,11.0493128 C17.0121188,11.0484984 17.0121188,11.0484984 17.0175789,11.0476838 C17.8369369,10.9254384 18.4020584,10.1621181 18.279813,9.34276003 C18.1575677,8.52340201 17.3942473,7.95828052 16.5748893,8.08052587 C16.5694641,8.08133528 16.5694641,8.08133528 16.5640392,8.08214454 C15.7446783,8.20437064 15.1795389,8.96767771 15.301765,9.78703861 C15.4239911,10.6063995 16.1872982,11.1715389 17.0066591,11.0493128 L17.0066591,11.0493128 Z M24.8225082,10.4232459 C24.8297684,10.4220275 24.8297684,10.4220275 24.8370287,10.420809 C25.922252,10.2386672 26.6543441,9.21126476 26.4722023,8.12604147 C26.2900605,7.04081818 25.2626581,6.30872601 24.1774348,6.49086783 C24.1702314,6.4920768 24.1702314,6.4920768 24.1630282,6.49328559 C23.0777996,6.67539597 22.3456777,7.70277717 22.5277881,8.78800574 C22.7098984,9.87323431 23.7372796,10.6053563 24.8225082,10.4232459 L24.8225082,10.4232459 Z M32.4725265,9.05261002 C33.5532108,8.84532993 34.2612448,7.80122849 34.0539647,6.72054419 C33.8466846,5.63985989 32.8025831,4.93182589 31.7218988,5.13910599 C31.714724,5.14048211 31.714724,5.14048211 31.7075489,5.14185807 C30.6268567,5.34909665 29.9187826,6.39317088 30.1260211,7.47386314 C30.3332597,8.5545554 31.3773339,9.26262952 32.4580262,9.05539095 C32.4652764,9.05400057 32.4652764,9.05400057 32.4725265,9.05261002 Z M39.8723866,6.89476879 C39.877909,6.8935242 39.877909,6.8935242 39.883431,6.89227947 C40.6915794,6.71010471 41.1990314,5.90728916 41.0168566,5.09914075 C40.8346818,4.29099233 40.0318663,3.78354042 39.2237179,3.96571517 C39.218279,3.96694116 39.218279,3.96694116 39.2128397,3.96816703 C38.404681,4.15029588 37.8971834,4.9530826 38.0793123,5.76124136 C38.2614411,6.56940012 39.0642279,7.07689764 39.8723866,6.89476879 L39.8723866,6.89476879 Z M47.4276119,5.00828445 C47.4329844,5.00678549 47.4329844,5.00678549 47.4383562,5.00528637 C48.2362896,4.78258973 48.7026111,3.95520561 48.4799145,3.15727221 C48.2572179,2.35933881 47.4298337,1.89301728 46.6319003,2.11571391 C46.6266645,2.1171751 46.6266645,2.1171751 46.6214279,2.11863616 C45.8234736,2.34125773 45.3570742,3.16859798 45.5796958,3.96655233 C45.8023173,4.76450667 46.6296576,5.23090603 47.4276119,5.00828445 L47.4276119,5.00828445 Z M54.419759,2.30643871 C54.8556933,2.13695884 55.0716973,1.6461737 54.9022174,1.21023941 C54.7327376,0.774305114 54.2419524,0.558301127 53.8060181,0.727780997 C53.8032127,0.728871549 53.8032127,0.728871549 53.8004064,0.729962021 C53.3644359,0.89934874 53.148327,1.39008772 53.3177137,1.82605822 C53.4871005,2.26202871 53.9778394,2.47813756 54.4138099,2.30875084 C54.4167849,2.30759485 54.4167849,2.30759485 54.419759,2.30643871 Z" id="Shape"></path>
        <path d="M1.67760355,20.096503 C1.68306395,20.0958524 1.68306395,20.0958524 1.68852642,20.0952015 C2.51113381,19.9971782 3.09852524,19.2508595 3.00050189,18.4282521 C2.90247854,17.6056447 2.15615986,17.0182533 1.33355246,17.1162767 C1.3281205,17.1169239 1.3281205,17.1169239 1.3226906,17.1175709 C0.500081196,17.2155774 -0.0873255124,17.961884 0.0106809923,18.7844934 C0.108687497,19.6071028 0.854994145,20.1945095 1.67760355,20.096503 L1.67760355,20.096503 Z M9.34858965,19.1274206 C9.35409106,19.1266859 9.35409106,19.1266859 9.35959333,19.1259509 C10.1807278,19.0162709 10.7574756,18.2616967 10.6477955,17.4405622 C10.5381155,16.6194278 9.78354128,16.04268 8.96240683,16.15236 C8.95693539,16.1530908 8.95693539,16.1530908 8.95146479,16.1538215 C8.13032806,16.2634845 7.55356464,17.0180467 7.66322765,17.8391835 C7.77289065,18.6603202 8.52745292,19.2370836 9.34858965,19.1274206 L9.34858965,19.1274206 Z M17.1767435,18.6256231 C17.1839958,18.6245412 17.1839958,18.6245412 17.1912486,18.6234592 C18.27963,18.4610765 19.0303002,17.4471319 18.8679175,16.3587506 C18.7055348,15.2703693 17.6915903,14.519699 16.6032089,14.6820817 C16.5960024,14.6831569 16.5960024,14.6831569 16.5887964,14.6842319 C15.5004112,14.846589 14.7497172,15.8605159 14.9120743,16.948901 C15.0744314,18.0372862 16.0883584,18.7879802 17.1767435,18.6256231 L17.1767435,18.6256231 Z M24.8370287,17.4177379 C25.922252,17.2355961 26.6543441,16.2081937 26.4722023,15.1229704 C26.2900605,14.0377471 25.2626581,13.3056549 24.1774348,13.4877968 C24.1702314,13.4890057 24.1702314,13.4890057 24.1630282,13.4902145 C23.0777996,13.6723249 22.3456777,14.6997061 22.5277881,15.7849347 C22.7098984,16.8701632 23.7372796,17.6022852 24.8225082,17.4201748 C24.8297684,17.4189565 24.8297684,17.4189565 24.8370287,17.4177379 Z M32.4725265,16.061085 C33.5532108,15.853199 34.2612448,14.8060455 34.0539647,13.7222022 C33.8466846,12.6383589 32.8025831,11.9282552 31.7218988,12.1361412 C31.714724,12.1375214 31.714724,12.1375214 31.7075489,12.1389013 C30.6268567,12.3467457 29.9187826,13.3938719 30.1260211,14.4777232 C30.3332597,15.5615745 31.3773339,16.2717185 32.4580262,16.0638741 C32.4652764,16.0624797 32.4652764,16.0624797 32.4725265,16.061085 Z M40.0707225,14.4695476 C40.0780573,14.4678946 40.0780573,14.4678946 40.0853916,14.4662413 C41.158768,14.2242783 41.8327617,13.1579849 41.5907986,12.0846085 C41.3488355,11.011232 40.2825422,10.3372384 39.2091657,10.5792015 C39.2019419,10.5808298 39.2019419,10.5808298 39.1947175,10.582458 C38.1213273,10.8243601 37.447273,11.8906152 37.6891752,12.9640053 C37.9310773,14.0373955 38.9973324,14.7114498 40.0707225,14.4695476 L40.0707225,14.4695476 Z M47.4276119,12.0082845 C47.4329844,12.0067855 47.4329844,12.0067855 47.4383562,12.0052864 C48.2362896,11.7825897 48.7026111,10.9552056 48.4799145,10.1572722 C48.2572179,9.35933881 47.4298337,8.89301728 46.6319003,9.11571391 C46.6266645,9.1171751 46.6266645,9.1171751 46.6214279,9.11863616 C45.8234736,9.34125773 45.3570742,10.168598 45.5796958,10.9665523 C45.8023173,11.7645067 46.6296576,12.230906 47.4276119,12.0082845 L47.4276119,12.0082845 Z M54.8999721,9.57562965 C54.9052414,9.57358217 54.9052414,9.57358217 54.9105092,9.57153441 C55.6826371,9.27135123 56.0652239,8.40207131 55.7650408,7.62994336 C55.4648576,6.85781542 54.5955777,6.4752286 53.8234497,6.77541179 C53.8184808,6.77734338 53.8184808,6.77734338 53.8135101,6.77927482 C53.0413181,7.07929302 52.6585455,7.94849117 52.9585637,8.72068323 C53.2585819,9.4928753 54.12778,9.87564785 54.8999721,9.57562965 L54.8999721,9.57562965 Z" id="Shape"></path>
        <path d="M1.45327704,26.6978168 C1.54647464,26.6867112 1.63432439,26.660866 1.7147722,26.6228911 C2.03520341,26.4716332 2.23820252,26.1279362 2.1939679,25.7567213 C2.13862768,25.2923089 1.71728488,24.9606903 1.2528724,25.0160305 C1.24980572,25.0163959 1.24980572,25.0163959 1.24674021,25.0167611 C0.782326598,25.0720918 0.450699376,25.4934278 0.506030077,25.9578415 C0.561360778,26.4222551 0.982696791,26.7538823 1.4471104,26.6985516 C1.45019313,26.6981843 1.45019313,26.6981843 1.45327704,26.6978168 Z M9.34858965,26.1274206 C9.35409106,26.1266859 9.35409106,26.1266859 9.35959333,26.1259509 C10.1807278,26.0162709 10.7574756,25.2616967 10.6477955,24.4405622 C10.5381155,23.6194278 9.78354128,23.04268 8.96240683,23.15236 C8.95693539,23.1530908 8.95693539,23.1530908 8.95146479,23.1538215 C8.13032806,23.2634845 7.55356464,24.0180467 7.66322765,24.8391835 C7.77289065,25.6603202 8.52745292,26.2370836 9.34858965,26.1274206 L9.34858965,26.1274206 Z M17.0066591,25.0462427 C17.0121188,25.0454283 17.0121188,25.0454283 17.0175789,25.0446136 C17.8369369,24.9223683 18.4020584,24.1590479 18.279813,23.3396899 C18.1575677,22.5203319 17.3942473,21.9552104 16.5748893,22.0774558 C16.5694641,22.0782652 16.5694641,22.0782652 16.5640392,22.0790744 C15.7446783,22.2013005 15.1795389,22.9646076 15.301765,23.7839685 C15.4239911,24.6033294 16.1872982,25.1684688 17.0066591,25.0462427 L17.0066591,25.0462427 Z M24.8225082,24.4201748 C24.8297684,24.4189565 24.8297684,24.4189565 24.8370287,24.4177379 C25.922252,24.2355961 26.6543441,23.2081937 26.4722023,22.1229704 C26.2900605,21.0377471 25.2626581,20.3056549 24.1774348,20.4877968 C24.1702314,20.4890057 24.1702314,20.4890057 24.1630282,20.4902145 C23.0777996,20.6723249 22.3456777,21.6997061 22.5277881,22.7849347 C22.7098984,23.8701632 23.7372796,24.6022852 24.8225082,24.4201748 L24.8225082,24.4201748 Z M32.4725265,23.0495399 C33.5532108,22.8422598 34.2612448,21.7981584 34.0539647,20.7174741 C33.8466846,19.6367898 32.8025831,18.9287558 31.7218988,19.1360359 C31.714724,19.137412 31.714724,19.137412 31.7075489,19.138788 C30.6268567,19.3460265 29.9187826,20.3901008 30.1260211,21.470793 C30.3332597,22.5514853 31.3773339,23.2595594 32.4580262,23.0523208 C32.4652764,23.0509305 32.4652764,23.0509305 32.4725265,23.0495399 Z M39.8723866,20.8947688 C39.877909,20.8935242 39.877909,20.8935242 39.883431,20.8922795 C40.6915794,20.7101047 41.1990314,19.9072892 41.0168566,19.0991407 C40.8346818,18.2909923 40.0318663,17.7835404 39.2237179,17.9657152 C39.218279,17.9669412 39.218279,17.9669412 39.2128397,17.968167 C38.404681,18.1502959 37.8971834,18.9530826 38.0793123,19.7612414 C38.2614411,20.5694001 39.0642279,21.0768976 39.8723866,20.8947688 L39.8723866,20.8947688 Z M47.4276119,19.0082845 C47.4329844,19.0067855 47.4329844,19.0067855 47.4383562,19.0052864 C48.2362896,18.7825897 48.7026111,17.9552056 48.4799145,17.1572722 C48.2572179,16.3593388 47.4298337,15.8930173 46.6319003,16.1157139 C46.6266645,16.1171751 46.6266645,16.1171751 46.6214279,16.1186362 C45.8234736,16.3412577 45.3570742,17.168598 45.5796958,17.9665523 C45.8023173,18.7645067 46.6296576,19.230906 47.4276119,19.0082845 L47.4276119,19.0082845 Z M54.4138099,15.7087505 C54.4167849,15.7075945 54.4167849,15.7075945 54.419759,15.7064383 C54.8556933,15.5369585 55.0716973,15.0461733 54.9022174,14.610239 C54.7327376,14.1743047 54.2419524,13.9583007 53.8060181,14.1277806 C53.8032127,14.1288712 53.8032127,14.1288712 53.8004064,14.1299616 C53.3644359,14.2993484 53.148327,14.7900873 53.3177137,15.2260578 C53.4871005,15.6620283 53.9778394,15.8781372 54.4138099,15.7087505 L54.4138099,15.7087505 Z" id="Shape"></path>
      </g>
      <g id="top">
        <path d="M1.4471104,12.2885536 C1.45019313,12.2881864 1.45019313,12.2881864 1.45327704,12.2878189 C1.91768952,12.2324787 2.24930811,11.8111359 2.1939679,11.3467234 C2.13862768,10.8823109 1.71728488,10.5506923 1.2528724,10.6060325 C1.24980572,10.606398 1.24980572,10.606398 1.24674021,10.6067632 C0.782326598,10.6620939 0.450699376,11.0834299 0.506030077,11.5478435 C0.561360778,12.0122571 0.982696791,12.3438844 1.4471104,12.2885536 L1.4471104,12.2885536 Z M9.34858965,12.1304907 C9.35409106,12.129756 9.35409106,12.129756 9.35959333,12.129021 C10.1807278,12.019341 10.7574756,11.2647668 10.6477955,10.4436323 C10.5381155,9.62249789 9.78354128,9.04575011 8.96240683,9.15543014 C8.95693539,9.15616095 8.95693539,9.15616095 8.95146479,9.15689157 C8.13032806,9.26655457 7.55356464,10.0211168 7.66322765,10.8422536 C7.77289065,11.6633903 8.52745292,12.2401537 9.34858965,12.1304907 L9.34858965,12.1304907 Z M17.0066591,11.0493128 C17.0121188,11.0484984 17.0121188,11.0484984 17.0175789,11.0476838 C17.8369369,10.9254384 18.4020584,10.1621181 18.279813,9.34276003 C18.1575677,8.52340201 17.3942473,7.95828052 16.5748893,8.08052587 C16.5694641,8.08133528 16.5694641,8.08133528 16.5640392,8.08214454 C15.7446783,8.20437064 15.1795389,8.96767771 15.301765,9.78703861 C15.4239911,10.6063995 16.1872982,11.1715389 17.0066591,11.0493128 L17.0066591,11.0493128 Z M24.8225082,10.4232459 C24.8297684,10.4220275 24.8297684,10.4220275 24.8370287,10.420809 C25.922252,10.2386672 26.6543441,9.21126476 26.4722023,8.12604147 C26.2900605,7.04081818 25.2626581,6.30872601 24.1774348,6.49086783 C24.1702314,6.4920768 24.1702314,6.4920768 24.1630282,6.49328559 C23.0777996,6.67539597 22.3456777,7.70277717 22.5277881,8.78800574 C22.7098984,9.87323431 23.7372796,10.6053563 24.8225082,10.4232459 L24.8225082,10.4232459 Z M32.4725265,9.05261002 C33.5532108,8.84532993 34.2612448,7.80122849 34.0539647,6.72054419 C33.8466846,5.63985989 32.8025831,4.93182589 31.7218988,5.13910599 C31.714724,5.14048211 31.714724,5.14048211 31.7075489,5.14185807 C30.6268567,5.34909665 29.9187826,6.39317088 30.1260211,7.47386314 C30.3332597,8.5545554 31.3773339,9.26262952 32.4580262,9.05539095 C32.4652764,9.05400057 32.4652764,9.05400057 32.4725265,9.05261002 Z M39.8723866,6.89476879 C39.877909,6.8935242 39.877909,6.8935242 39.883431,6.89227947 C40.6915794,6.71010471 41.1990314,5.90728916 41.0168566,5.09914075 C40.8346818,4.29099233 40.0318663,3.78354042 39.2237179,3.96571517 C39.218279,3.96694116 39.218279,3.96694116 39.2128397,3.96816703 C38.404681,4.15029588 37.8971834,4.9530826 38.0793123,5.76124136 C38.2614411,6.56940012 39.0642279,7.07689764 39.8723866,6.89476879 L39.8723866,6.89476879 Z M47.4276119,5.00828445 C47.4329844,5.00678549 47.4329844,5.00678549 47.4383562,5.00528637 C48.2362896,4.78258973 48.7026111,3.95520561 48.4799145,3.15727221 C48.2572179,2.35933881 47.4298337,1.89301728 46.6319003,2.11571391 C46.6266645,2.1171751 46.6266645,2.1171751 46.6214279,2.11863616 C45.8234736,2.34125773 45.3570742,3.16859798 45.5796958,3.96655233 C45.8023173,4.76450667 46.6296576,5.23090603 47.4276119,5.00828445 L47.4276119,5.00828445 Z M54.419759,2.30643871 C54.8556933,2.13695884 55.0716973,1.6461737 54.9022174,1.21023941 C54.7327376,0.774305114 54.2419524,0.558301127 53.8060181,0.727780997 C53.8032127,0.728871549 53.8032127,0.728871549 53.8004064,0.729962021 C53.3644359,0.89934874 53.148327,1.39008772 53.3177137,1.82605822 C53.4871005,2.26202871 53.9778394,2.47813756 54.4138099,2.30875084 C54.4167849,2.30759485 54.4167849,2.30759485 54.419759,2.30643871 Z" id="Shape"></path>
        <path d="M1.67760355,20.096503 C1.68306395,20.0958524 1.68306395,20.0958524 1.68852642,20.0952015 C2.51113381,19.9971782 3.09852524,19.2508595 3.00050189,18.4282521 C2.90247854,17.6056447 2.15615986,17.0182533 1.33355246,17.1162767 C1.3281205,17.1169239 1.3281205,17.1169239 1.3226906,17.1175709 C0.500081196,17.2155774 -0.0873255124,17.961884 0.0106809923,18.7844934 C0.108687497,19.6071028 0.854994145,20.1945095 1.67760355,20.096503 L1.67760355,20.096503 Z M9.34858965,19.1274206 C9.35409106,19.1266859 9.35409106,19.1266859 9.35959333,19.1259509 C10.1807278,19.0162709 10.7574756,18.2616967 10.6477955,17.4405622 C10.5381155,16.6194278 9.78354128,16.04268 8.96240683,16.15236 C8.95693539,16.1530908 8.95693539,16.1530908 8.95146479,16.1538215 C8.13032806,16.2634845 7.55356464,17.0180467 7.66322765,17.8391835 C7.77289065,18.6603202 8.52745292,19.2370836 9.34858965,19.1274206 L9.34858965,19.1274206 Z M17.1767435,18.6256231 C17.1839958,18.6245412 17.1839958,18.6245412 17.1912486,18.6234592 C18.27963,18.4610765 19.0303002,17.4471319 18.8679175,16.3587506 C18.7055348,15.2703693 17.6915903,14.519699 16.6032089,14.6820817 C16.5960024,14.6831569 16.5960024,14.6831569 16.5887964,14.6842319 C15.5004112,14.846589 14.7497172,15.8605159 14.9120743,16.948901 C15.0744314,18.0372862 16.0883584,18.7879802 17.1767435,18.6256231 L17.1767435,18.6256231 Z M24.8370287,17.4177379 C25.922252,17.2355961 26.6543441,16.2081937 26.4722023,15.1229704 C26.2900605,14.0377471 25.2626581,13.3056549 24.1774348,13.4877968 C24.1702314,13.4890057 24.1702314,13.4890057 24.1630282,13.4902145 C23.0777996,13.6723249 22.3456777,14.6997061 22.5277881,15.7849347 C22.7098984,16.8701632 23.7372796,17.6022852 24.8225082,17.4201748 C24.8297684,17.4189565 24.8297684,17.4189565 24.8370287,17.4177379 Z M32.4725265,16.061085 C33.5532108,15.853199 34.2612448,14.8060455 34.0539647,13.7222022 C33.8466846,12.6383589 32.8025831,11.9282552 31.7218988,12.1361412 C31.714724,12.1375214 31.714724,12.1375214 31.7075489,12.1389013 C30.6268567,12.3467457 29.9187826,13.3938719 30.1260211,14.4777232 C30.3332597,15.5615745 31.3773339,16.2717185 32.4580262,16.0638741 C32.4652764,16.0624797 32.4652764,16.0624797 32.4725265,16.061085 Z M40.0707225,14.4695476 C40.0780573,14.4678946 40.0780573,14.4678946 40.0853916,14.4662413 C41.158768,14.2242783 41.8327617,13.1579849 41.5907986,12.0846085 C41.3488355,11.011232 40.2825422,10.3372384 39.2091657,10.5792015 C39.2019419,10.5808298 39.2019419,10.5808298 39.1947175,10.582458 C38.1213273,10.8243601 37.447273,11.8906152 37.6891752,12.9640053 C37.9310773,14.0373955 38.9973324,14.7114498 40.0707225,14.4695476 L40.0707225,14.4695476 Z M47.4276119,12.0082845 C47.4329844,12.0067855 47.4329844,12.0067855 47.4383562,12.0052864 C48.2362896,11.7825897 48.7026111,10.9552056 48.4799145,10.1572722 C48.2572179,9.35933881 47.4298337,8.89301728 46.6319003,9.11571391 C46.6266645,9.1171751 46.6266645,9.1171751 46.6214279,9.11863616 C45.8234736,9.34125773 45.3570742,10.168598 45.5796958,10.9665523 C45.8023173,11.7645067 46.6296576,12.230906 47.4276119,12.0082845 L47.4276119,12.0082845 Z M54.8999721,9.57562965 C54.9052414,9.57358217 54.9052414,9.57358217 54.9105092,9.57153441 C55.6826371,9.27135123 56.0652239,8.40207131 55.7650408,7.62994336 C55.4648576,6.85781542 54.5955777,6.4752286 53.8234497,6.77541179 C53.8184808,6.77734338 53.8184808,6.77734338 53.8135101,6.77927482 C53.0413181,7.07929302 52.6585455,7.94849117 52.9585637,8.72068323 C53.2585819,9.4928753 54.12778,9.87564785 54.8999721,9.57562965 L54.8999721,9.57562965 Z" id="Shape"></path>
        <path d="M1.45327704,26.6978168 C1.54647464,26.6867112 1.63432439,26.660866 1.7147722,26.6228911 C2.03520341,26.4716332 2.23820252,26.1279362 2.1939679,25.7567213 C2.13862768,25.2923089 1.71728488,24.9606903 1.2528724,25.0160305 C1.24980572,25.0163959 1.24980572,25.0163959 1.24674021,25.0167611 C0.782326598,25.0720918 0.450699376,25.4934278 0.506030077,25.9578415 C0.561360778,26.4222551 0.982696791,26.7538823 1.4471104,26.6985516 C1.45019313,26.6981843 1.45019313,26.6981843 1.45327704,26.6978168 Z M9.34858965,26.1274206 C9.35409106,26.1266859 9.35409106,26.1266859 9.35959333,26.1259509 C10.1807278,26.0162709 10.7574756,25.2616967 10.6477955,24.4405622 C10.5381155,23.6194278 9.78354128,23.04268 8.96240683,23.15236 C8.95693539,23.1530908 8.95693539,23.1530908 8.95146479,23.1538215 C8.13032806,23.2634845 7.55356464,24.0180467 7.66322765,24.8391835 C7.77289065,25.6603202 8.52745292,26.2370836 9.34858965,26.1274206 L9.34858965,26.1274206 Z M17.0066591,25.0462427 C17.0121188,25.0454283 17.0121188,25.0454283 17.0175789,25.0446136 C17.8369369,24.9223683 18.4020584,24.1590479 18.279813,23.3396899 C18.1575677,22.5203319 17.3942473,21.9552104 16.5748893,22.0774558 C16.5694641,22.0782652 16.5694641,22.0782652 16.5640392,22.0790744 C15.7446783,22.2013005 15.1795389,22.9646076 15.301765,23.7839685 C15.4239911,24.6033294 16.1872982,25.1684688 17.0066591,25.0462427 L17.0066591,25.0462427 Z M24.8225082,24.4201748 C24.8297684,24.4189565 24.8297684,24.4189565 24.8370287,24.4177379 C25.922252,24.2355961 26.6543441,23.2081937 26.4722023,22.1229704 C26.2900605,21.0377471 25.2626581,20.3056549 24.1774348,20.4877968 C24.1702314,20.4890057 24.1702314,20.4890057 24.1630282,20.4902145 C23.0777996,20.6723249 22.3456777,21.6997061 22.5277881,22.7849347 C22.7098984,23.8701632 23.7372796,24.6022852 24.8225082,24.4201748 L24.8225082,24.4201748 Z M32.4725265,23.0495399 C33.5532108,22.8422598 34.2612448,21.7981584 34.0539647,20.7174741 C33.8466846,19.6367898 32.8025831,18.9287558 31.7218988,19.1360359 C31.714724,19.137412 31.714724,19.137412 31.7075489,19.138788 C30.6268567,19.3460265 29.9187826,20.3901008 30.1260211,21.470793 C30.3332597,22.5514853 31.3773339,23.2595594 32.4580262,23.0523208 C32.4652764,23.0509305 32.4652764,23.0509305 32.4725265,23.0495399 Z M39.8723866,20.8947688 C39.877909,20.8935242 39.877909,20.8935242 39.883431,20.8922795 C40.6915794,20.7101047 41.1990314,19.9072892 41.0168566,19.0991407 C40.8346818,18.2909923 40.0318663,17.7835404 39.2237179,17.9657152 C39.218279,17.9669412 39.218279,17.9669412 39.2128397,17.968167 C38.404681,18.1502959 37.8971834,18.9530826 38.0793123,19.7612414 C38.2614411,20.5694001 39.0642279,21.0768976 39.8723866,20.8947688 L39.8723866,20.8947688 Z M47.4276119,19.0082845 C47.4329844,19.0067855 47.4329844,19.0067855 47.4383562,19.0052864 C48.2362896,18.7825897 48.7026111,17.9552056 48.4799145,17.1572722 C48.2572179,16.3593388 47.4298337,15.8930173 46.6319003,16.1157139 C46.6266645,16.1171751 46.6266645,16.1171751 46.6214279,16.1186362 C45.8234736,16.3412577 45.3570742,17.168598 45.5796958,17.9665523 C45.8023173,18.7645067 46.6296576,19.230906 47.4276119,19.0082845 L47.4276119,19.0082845 Z M54.4138099,15.7087505 C54.4167849,15.7075945 54.4167849,15.7075945 54.419759,15.7064383 C54.8556933,15.5369585 55.0716973,15.0461733 54.9022174,14.610239 C54.7327376,14.1743047 54.2419524,13.9583007 53.8060181,14.1277806 C53.8032127,14.1288712 53.8032127,14.1288712 53.8004064,14.1299616 C53.3644359,14.2993484 53.148327,14.7900873 53.3177137,15.2260578 C53.4871005,15.6620283 53.9778394,15.8781372 54.4138099,15.7087505 L54.4138099,15.7087505 Z" id="Shape"></path>
      </g>
    </g>
  </g>
</svg>
