<svg width="36" height="36" viewBox="0 0 36 36" fill="none" xmlns="http://www.w3.org/2000/svg">
<path d="M18 1.25C8.74923 1.25 1.25 8.74923 1.25 18C1.25 27.2508 8.74923 34.75 18 34.75C27.2508 34.75 34.75 27.2508 34.75 18C34.75 8.74923 27.2508 1.25 18 1.25Z" fill="#147D6F" stroke="white" stroke-width="2"/>
<path d="M23.9207 15.9923H21.121C21.0698 15.6301 20.9654 15.3083 20.8078 15.0271C20.6501 14.7416 20.4477 14.4987 20.2005 14.2984C19.9533 14.0981 19.6678 13.9447 19.344 13.8382C19.0244 13.7316 18.6771 13.6784 18.3021 13.6784C17.6245 13.6784 17.0343 13.8467 16.5315 14.1833C16.0286 14.5157 15.6387 15.0015 15.3617 15.6407C15.0847 16.2757 14.9462 17.047 14.9462 17.9547C14.9462 18.8879 15.0847 19.672 15.3617 20.3069C15.643 20.9419 16.035 21.4213 16.5379 21.7451C17.0407 22.069 17.6224 22.2309 18.2829 22.2309C18.6536 22.2309 18.9967 22.1819 19.312 22.0839C19.6316 21.9859 19.915 21.8432 20.1622 21.6557C20.4093 21.4639 20.6139 21.2316 20.7758 20.9589C20.942 20.6862 21.057 20.3751 21.121 20.0257L23.9207 20.0385C23.8482 20.6393 23.6671 21.2189 23.3774 21.7771C23.0918 22.3311 22.7062 22.8275 22.2204 23.2664C21.7389 23.7011 21.1636 24.0463 20.4945 24.302C19.8298 24.5534 19.0776 24.6791 18.2381 24.6791C17.0705 24.6791 16.0265 24.4149 15.106 23.8865C14.1899 23.3581 13.4654 22.5932 12.9328 21.5917C12.4043 20.5903 12.1401 19.378 12.1401 17.9547C12.1401 16.5271 12.4086 15.3126 12.9455 14.3112C13.4825 13.3098 14.2112 12.547 15.1316 12.0228C16.0521 11.4944 17.0876 11.2302 18.2381 11.2302C18.9967 11.2302 19.6998 11.3368 20.3475 11.5498C20.9995 11.7629 21.5769 12.074 22.0798 12.4831C22.5826 12.8879 22.9917 13.3843 23.307 13.9724C23.6266 14.5605 23.8312 15.2338 23.9207 15.9923Z" fill="white"/>
</svg>
