<svg width="16" height="16" viewBox="0 0 16 16" fill="none" xmlns="http://www.w3.org/2000/svg">
<path d="M1 8C1 4.13401 4.13401 1 8 1C11.866 1 15 4.13401 15 8C15 11.866 11.866 15 8 15C4.13401 15 1 11.866 1 8Z" fill="#25D0AB"/>
<path d="M10.6313 7.21877H9.38698C9.36426 7.05779 9.31786 6.91479 9.24778 6.78979C9.17771 6.6629 9.08774 6.55495 8.97789 6.46593C8.86805 6.37692 8.74115 6.30873 8.59721 6.26139C8.45517 6.21404 8.30081 6.19036 8.13414 6.19036C7.83301 6.19036 7.5707 6.26517 7.34721 6.41479C7.12373 6.56252 6.95043 6.77843 6.82733 7.06252C6.70422 7.34472 6.64267 7.68752 6.64267 8.09093C6.64267 8.5057 6.70422 8.85419 6.82733 9.13639C6.95233 9.41858 7.12657 9.63165 7.35005 9.77559C7.57354 9.91953 7.83206 9.9915 8.12562 9.9915C8.29039 9.9915 8.44286 9.96972 8.58301 9.92616C8.72505 9.8826 8.851 9.81915 8.96085 9.73582C9.0707 9.65059 9.16161 9.54737 9.23358 9.42616C9.30744 9.30495 9.35858 9.16669 9.38698 9.01139L10.6313 9.01707C10.5991 9.28411 10.5186 9.54169 10.3898 9.78979C10.2629 10.036 10.0915 10.2567 9.87562 10.4517C9.66161 10.6449 9.40593 10.7983 9.10858 10.912C8.81312 11.0237 8.47884 11.0796 8.10574 11.0796C7.5868 11.0796 7.12278 10.9621 6.71369 10.7273C6.30649 10.4924 5.98452 10.1525 5.74778 9.70741C5.51293 9.26233 5.39551 8.72351 5.39551 8.09093C5.39551 7.45646 5.51483 6.91669 5.75346 6.47161C5.9921 6.02654 6.31596 5.68752 6.72505 5.45457C7.13414 5.21972 7.59437 5.10229 8.10574 5.10229C8.44286 5.10229 8.75536 5.14964 9.04323 5.24434C9.33301 5.33904 9.58964 5.47729 9.81312 5.65911C10.0366 5.83904 10.2184 6.05968 10.3586 6.32104C10.5006 6.58241 10.5915 6.88165 10.6313 7.21877Z" fill="#161618"/>
</svg>
