<svg width="36" height="36" viewBox="0 0 36 36" fill="none" xmlns="http://www.w3.org/2000/svg">
<g clip-path="url(#clip0_570_15050)">
<path d="M18 1.25C8.74923 1.25 1.25 8.74923 1.25 18C1.25 27.2508 8.74923 34.75 18 34.75C27.2508 34.75 34.75 27.2508 34.75 18C34.75 8.74923 27.2508 1.25 18 1.25Z" fill="#87BE22" stroke="#161616" stroke-width="2"/>
<path d="M16.9827 23.5349C16.237 23.5349 15.5616 23.3431 14.9565 22.9596C14.3556 22.5718 13.8783 22.0029 13.5246 21.2529C13.1752 20.4987 13.0005 19.574 13.0005 18.4788C13.0005 17.3538 13.1816 16.4184 13.5438 15.6727C13.906 14.9227 14.3876 14.3623 14.9884 13.9916C15.5935 13.6166 16.2562 13.4291 16.9763 13.4291C17.5261 13.4291 17.9842 13.5228 18.3506 13.7103C18.7214 13.8936 19.0197 14.1237 19.2455 14.4007C19.4756 14.6734 19.6503 14.9419 19.7697 15.2061H19.8528V10.2842H22.5694V23.3751H19.8847V21.8026H19.7697C19.6418 22.0754 19.4607 22.346 19.2263 22.6144C18.9962 22.8786 18.6958 23.0981 18.3251 23.2728C17.9586 23.4475 17.5111 23.5349 16.9827 23.5349ZM17.8457 21.368C18.2846 21.368 18.6553 21.2487 18.9579 21.01C19.2647 20.7671 19.4991 20.4284 19.661 19.9937C19.8272 19.559 19.9103 19.0498 19.9103 18.466C19.9103 17.8822 19.8293 17.3751 19.6674 16.9447C19.5055 16.5143 19.2711 16.1819 18.9643 15.9475C18.6574 15.7132 18.2846 15.596 17.8457 15.596C17.3982 15.596 17.0211 15.7174 16.7143 15.9603C16.4074 16.2032 16.1752 16.5399 16.0175 16.9703C15.8599 17.4007 15.781 17.8992 15.781 18.466C15.781 19.037 15.8599 19.542 16.0175 19.9809C16.1795 20.4156 16.4117 20.7565 16.7143 21.0036C17.0211 21.2465 17.3982 21.368 17.8457 21.368Z" fill="#161616"/>
</g>
<defs>
<clipPath id="clip0_570_15050">
<rect width="36" height="36" fill="white"/>
</clipPath>
</defs>
</svg>
