<svg width="36" height="36" viewBox="0 0 36 36" fill="none" xmlns="http://www.w3.org/2000/svg">
<path d="M18 1.25C8.74923 1.25 1.25 8.74923 1.25 18C1.25 27.2508 8.74923 34.75 18 34.75C27.2508 34.75 34.75 27.2508 34.75 18C34.75 8.74923 27.2508 1.25 18 1.25Z" fill="#BD4B00" stroke="white" stroke-width="2"/>
<path d="M16.3296 19.424C16.3956 19.946 16.5306 20.369 16.7346 20.693C16.9446 21.011 17.2116 21.245 17.5356 21.395C17.8596 21.539 18.2226 21.611 18.6246 21.611C19.0626 21.611 19.4856 21.539 19.8936 21.395C20.3016 21.251 20.6946 21.059 21.0726 20.819L22.2156 22.367C21.7656 22.751 21.2196 23.066 20.5776 23.312C19.9416 23.558 19.2156 23.681 18.3996 23.681C17.3076 23.681 16.3926 23.465 15.6546 23.033C14.9166 22.595 14.3616 21.995 13.9896 21.233C13.6176 20.471 13.4316 19.595 13.4316 18.605C13.4316 17.663 13.6116 16.808 13.9716 16.04C14.3316 15.266 14.8566 14.651 15.5466 14.195C16.2426 13.733 17.0916 13.502 18.0936 13.502C19.0056 13.502 19.7946 13.697 20.4606 14.087C21.1326 14.477 21.6516 15.038 22.0176 15.77C22.3896 16.502 22.5756 17.381 22.5756 18.407C22.5756 18.569 22.5696 18.743 22.5576 18.929C22.5516 19.115 22.5396 19.28 22.5216 19.424H16.3296ZM18.0936 15.41C17.5836 15.41 17.1726 15.593 16.8606 15.959C16.5486 16.325 16.3596 16.91 16.2936 17.714H19.8036C19.7976 17.018 19.6626 16.46 19.3986 16.04C19.1346 15.62 18.6996 15.41 18.0936 15.41Z" fill="white"/>
</svg>
