<svg width="16" height="16" viewBox="0 0 16 16" fill="none" xmlns="http://www.w3.org/2000/svg">
<path d="M1 8C1 4.13401 4.13401 1 8 1C11.866 1 15 4.13401 15 8C15 11.866 11.866 15 8 15C4.13401 15 1 11.866 1 8Z" fill="#FF8B3E"/>
<path d="M7.25773 8.74406C7.28706 8.97606 7.34706 9.16406 7.43773 9.30806C7.53106 9.44939 7.64973 9.55339 7.79373 9.62006C7.93773 9.68406 8.09906 9.71606 8.27773 9.71606C8.47239 9.71606 8.66039 9.68406 8.84173 9.62006C9.02306 9.55606 9.19773 9.47073 9.36573 9.36406L9.87373 10.0521C9.67373 10.2227 9.43106 10.3627 9.14573 10.4721C8.86306 10.5814 8.54039 10.6361 8.17773 10.6361C7.69239 10.6361 7.28573 10.5401 6.95773 10.3481C6.62973 10.1534 6.38306 9.88673 6.21773 9.54806C6.05239 9.20939 5.96973 8.82006 5.96973 8.38006C5.96973 7.96139 6.04973 7.58139 6.20973 7.24006C6.36973 6.89606 6.60306 6.62273 6.90973 6.42006C7.21906 6.21473 7.59639 6.11206 8.04173 6.11206C8.44706 6.11206 8.79773 6.19873 9.09373 6.37206C9.39239 6.54539 9.62306 6.79473 9.78573 7.12006C9.95106 7.44539 10.0337 7.83606 10.0337 8.29206C10.0337 8.36406 10.0311 8.44139 10.0257 8.52406C10.0231 8.60673 10.0177 8.68006 10.0097 8.74406H7.25773ZM8.04173 6.96006C7.81506 6.96006 7.63239 7.04139 7.49373 7.20406C7.35506 7.36673 7.27106 7.62673 7.24173 7.98406H8.80173C8.79906 7.67473 8.73906 7.42673 8.62173 7.24006C8.50439 7.05339 8.31106 6.96006 8.04173 6.96006Z" fill="#161618"/>
</svg>
