<svg width="16" height="16" viewBox="0 0 16 16" fill="none" xmlns="http://www.w3.org/2000/svg">
<path d="M1 8C1 4.13401 4.13401 1 8 1C11.866 1 15 4.13401 15 8C15 11.866 11.866 15 8 15C4.13401 15 1 11.866 1 8Z" fill="#BF7AF0"/>
<path d="M9.93361 5.07202L10.2296 6.00002C10.0803 6.05869 9.90561 6.10136 9.70561 6.12802C9.50561 6.15469 9.27228 6.16802 9.00561 6.16802C9.27228 6.28269 9.47494 6.42535 9.61361 6.59602C9.75494 6.76402 9.82561 6.98536 9.82561 7.26002C9.82561 7.53469 9.75228 7.78002 9.60561 7.99602C9.45894 8.20936 9.25094 8.37736 8.98161 8.50002C8.71228 8.62269 8.39361 8.68402 8.02561 8.68402C7.93494 8.68402 7.84961 8.68002 7.76961 8.67202C7.68961 8.66402 7.61094 8.65202 7.53361 8.63602C7.48828 8.66002 7.45361 8.69469 7.42961 8.74002C7.40561 8.78536 7.39361 8.83202 7.39361 8.88002C7.39361 8.94669 7.42028 9.00669 7.47361 9.06002C7.52961 9.11335 7.65894 9.14002 7.86161 9.14002H8.55761C8.88828 9.14002 9.17361 9.19336 9.41361 9.30002C9.65628 9.40669 9.84428 9.55202 9.97761 9.73602C10.1109 9.92002 10.1776 10.1307 10.1776 10.368C10.1776 10.8027 9.98694 11.1454 9.60561 11.396C9.22428 11.6467 8.65761 11.772 7.90561 11.772C7.36161 11.772 6.94028 11.716 6.64161 11.604C6.34561 11.4947 6.13894 11.3374 6.02161 11.132C5.90694 10.9294 5.84961 10.688 5.84961 10.408H6.96961C6.96961 10.5307 6.99361 10.6307 7.04161 10.708C7.09228 10.788 7.18694 10.8467 7.32561 10.884C7.46694 10.9214 7.67094 10.94 7.93761 10.94C8.20694 10.94 8.41228 10.9187 8.55361 10.876C8.69494 10.8334 8.79094 10.7747 8.84161 10.7C8.89494 10.628 8.92161 10.5467 8.92161 10.456C8.92161 10.3307 8.87228 10.2294 8.77361 10.152C8.67494 10.0747 8.51894 10.036 8.30561 10.036H7.62961C7.17094 10.036 6.83761 9.95202 6.62961 9.78402C6.42161 9.61336 6.31761 9.41469 6.31761 9.18802C6.31761 9.03069 6.35894 8.88136 6.44161 8.74002C6.52694 8.59869 6.64561 8.48002 6.79761 8.38402C6.52561 8.24002 6.33094 8.07069 6.21361 7.87602C6.09628 7.67869 6.03761 7.44269 6.03761 7.16802C6.03761 6.84802 6.11894 6.57336 6.28161 6.34402C6.44428 6.11202 6.66828 5.93336 6.95361 5.80802C7.24161 5.68269 7.56961 5.62002 7.93761 5.62002C8.25494 5.62536 8.53094 5.60402 8.76561 5.55602C9.00028 5.50536 9.21094 5.43736 9.39761 5.35202C9.58428 5.26402 9.76294 5.17069 9.93361 5.07202ZM7.96961 6.44002C7.76961 6.44002 7.61094 6.50402 7.49361 6.63202C7.37628 6.75736 7.31761 6.93069 7.31761 7.15202C7.31761 7.38669 7.37761 7.56669 7.49761 7.69202C7.61761 7.81736 7.77494 7.88002 7.96961 7.88002C8.18028 7.88002 8.34028 7.81736 8.44961 7.69202C8.56161 7.56669 8.61761 7.38136 8.61761 7.13602C8.61761 6.89869 8.56294 6.72402 8.45361 6.61202C8.34428 6.49735 8.18294 6.44002 7.96961 6.44002Z" fill="#161618"/>
</svg>
