<svg width="36" height="36" viewBox="0 0 36 36" fill="none" xmlns="http://www.w3.org/2000/svg">
<path d="M18 1.25C8.74923 1.25 1.25 8.74923 1.25 18C1.25 27.2508 8.74923 34.75 18 34.75C27.2508 34.75 34.75 27.2508 34.75 18C34.75 8.74923 27.2508 1.25 18 1.25Z" fill="#793AAF" stroke="white" stroke-width="2"/>
<path d="M22.3506 10.4121L23.0166 12.5001C22.6806 12.6321 22.2876 12.7281 21.8376 12.7881C21.3876 12.8481 20.8626 12.8781 20.2626 12.8781C20.8626 13.1361 21.3186 13.4571 21.6306 13.8411C21.9486 14.2191 22.1076 14.7171 22.1076 15.3351C22.1076 15.9531 21.9426 16.5051 21.6126 16.9911C21.2826 17.4711 20.8146 17.8491 20.2086 18.1251C19.6026 18.4011 18.8856 18.5391 18.0576 18.5391C17.8536 18.5391 17.6616 18.5301 17.4816 18.5121C17.3016 18.4941 17.1246 18.4671 16.9506 18.4311C16.8486 18.4851 16.7706 18.5631 16.7166 18.6651C16.6626 18.7671 16.6356 18.8721 16.6356 18.9801C16.6356 19.1301 16.6956 19.2651 16.8156 19.3851C16.9416 19.5051 17.2326 19.5651 17.6886 19.5651H19.2546C19.9986 19.5651 20.6406 19.6851 21.1806 19.9251C21.7266 20.1651 22.1496 20.4921 22.4496 20.9061C22.7496 21.3201 22.8996 21.7941 22.8996 22.3281C22.8996 23.3061 22.4706 24.0771 21.6126 24.6411C20.7546 25.2051 19.4796 25.4871 17.7876 25.4871C16.5636 25.4871 15.6156 25.3611 14.9436 25.1091C14.2776 24.8631 13.8126 24.5091 13.5486 24.0471C13.2906 23.5911 13.1616 23.0481 13.1616 22.4181H15.6816C15.6816 22.6941 15.7356 22.9191 15.8436 23.0931C15.9576 23.2731 16.1706 23.4051 16.4826 23.4891C16.8006 23.5731 17.2596 23.6151 17.8596 23.6151C18.4656 23.6151 18.9276 23.5671 19.2456 23.4711C19.5636 23.3751 19.7796 23.2431 19.8936 23.0751C20.0136 22.9131 20.0736 22.7301 20.0736 22.5261C20.0736 22.2441 19.9626 22.0161 19.7406 21.8421C19.5186 21.6681 19.1676 21.5811 18.6876 21.5811H17.1666C16.1346 21.5811 15.3846 21.3921 14.9166 21.0141C14.4486 20.6301 14.2146 20.1831 14.2146 19.6731C14.2146 19.3191 14.3076 18.9831 14.4936 18.6651C14.6856 18.3471 14.9526 18.0801 15.2946 17.8641C14.6826 17.5401 14.2446 17.1591 13.9806 16.7211C13.7166 16.2771 13.5846 15.7461 13.5846 15.1281C13.5846 14.4081 13.7676 13.7901 14.1336 13.2741C14.4996 12.7521 15.0036 12.3501 15.6456 12.0681C16.2936 11.7861 17.0316 11.6451 17.8596 11.6451C18.5736 11.6571 19.1946 11.6091 19.7226 11.5011C20.2506 11.3871 20.7246 11.2341 21.1446 11.0421C21.5646 10.8441 21.9666 10.6341 22.3506 10.4121ZM17.9316 13.4901C17.4816 13.4901 17.1246 13.6341 16.8606 13.9221C16.5966 14.2041 16.4646 14.5941 16.4646 15.0921C16.4646 15.6201 16.5996 16.0251 16.8696 16.3071C17.1396 16.5891 17.4936 16.7301 17.9316 16.7301C18.4056 16.7301 18.7656 16.5891 19.0116 16.3071C19.2636 16.0251 19.3896 15.6081 19.3896 15.0561C19.3896 14.5221 19.2666 14.1291 19.0206 13.8771C18.7746 13.6191 18.4116 13.4901 17.9316 13.4901Z" fill="white"/>
</svg>
