<svg id="Layer_1" data-name="Layer 1" xmlns="http://www.w3.org/2000/svg" xmlns:xlink="http://www.w3.org/1999/xlink" viewBox="0 0 400 400"><defs><style>.cls-1{fill:#36cd82;}.cls-2{fill:#32af7f;}.cls-3{fill:#2e9c7b;}.cls-4{fill:#19096a;}.cls-5{fill:#0e48a5;}.cls-6{fill:none;}.cls-7{opacity:0.25;fill:url(#linear-gradient);}.cls-8{fill:#fff;}</style><linearGradient id="linear-gradient" x1="141.39" y1="190.92" x2="240.43" y2="190.92" gradientUnits="userSpaceOnUse"><stop offset="0" stop-color="#122658"/><stop offset="0.16" stop-color="#314e83" stop-opacity="0.94"/><stop offset="0.4" stop-color="#5980b8" stop-opacity="0.86"/><stop offset="0.63" stop-color="#76a4df" stop-opacity="0.8"/><stop offset="0.83" stop-color="#87b9f7" stop-opacity="0.76"/><stop offset="1" stop-color="#8dc1ff" stop-opacity="0.75"/></linearGradient></defs><path class="cls-1" d="M350,200.75a150.22,150.22,0,0,1-3.74,33.42l-88.57-88.58-.05-.05c-1-1.07-2-2.12-3.13-3.13l0,0a79.33,79.33,0,0,0-113,111.25l.11.13c1.48,1.59,3,3.14,4.63,4.61l41,41-.15,0c-4.88.66-8.27,1.13-8.27,1.51v15.89l4.36,4.36c-2.69.38-4.36.7-4.36,1V338l4.34,4.34c-2.67.38-4.34.7-4.34,1v5.93A150,150,0,1,1,350,200.75Z"/><path class="cls-2" d="M346.26,234.17a150.2,150.2,0,0,1-80,101.16L221.2,290.28c0,4.73-21.62,7.43-34,9.07l-41-41a78.94,78.94,0,0,0,43.06,20.28v11.13c0-.67,21.38-2,21.38-5.35v-5.78a79.33,79.33,0,0,0,47-133.06Z"/><path class="cls-1" d="M268.29,200.09A68.29,68.29,0,1,1,200,131.81,68.31,68.31,0,0,1,268.29,200.09Z"/><path class="cls-3" d="M221.2,348.6V332.69c0,5.31-27.27,8.07-38.08,9.65L178.78,338c0-1.34,42.42-4,42.42-10.61V311.48c0,5.31-27.25,8.07-38.06,9.65l-4.36-4.36c.34-1.33,42.42-4,42.42-10.59V290.27l45.08,45.06a148.38,148.38,0,0,1-45.23,13.93A1.41,1.41,0,0,0,221.2,348.6Z"/><path class="cls-1" d="M268.29,200.09A68.29,68.29,0,1,1,200,131.81,68.31,68.31,0,0,1,268.29,200.09Z"/><path class="cls-4" d="M200,131.81a68.29,68.29,0,1,0,68.3,68.28A68.28,68.28,0,0,0,200,131.81Zm0,126.9a58.61,58.61,0,1,1,58.62-58.62A58.61,58.61,0,0,1,200,258.71Z"/><path class="cls-5" d="M258.61,200.09A58.61,58.61,0,1,1,200,141.49,58.61,58.61,0,0,1,258.61,200.09Z"/><line class="cls-6" x1="146.24" y1="258.37" x2="141.61" y2="253.76"/><line class="cls-6" x1="257.64" y1="145.54" x2="254.51" y2="142.41"/><line class="cls-6" x1="257.64" y1="145.54" x2="254.51" y2="142.41"/><path class="cls-7" d="M240.43,181.83a58.62,58.62,0,0,1-90,49.53,58.62,58.62,0,0,1,80.88-80.88A58.3,58.3,0,0,1,240.43,181.83Z"/><path class="cls-8" d="M247,222.93a4.2,4.2,0,1,1-4.19-4.2A4.2,4.2,0,0,1,247,222.93Z"/><path class="cls-8" d="M236.35,236.62a45.36,45.36,0,0,1-8.11,5.6,52.44,52.44,0,0,1-18.57,6.15,44.34,44.34,0,0,1-9.7.34c3-1.3,5.88-2.53,8.68-3.83s5.54-2.7,8.18-4.18,5.2-3,7.7-4.67,4.94-3.38,7.44-5.05Z"/><path class="cls-8" d="M234.16,167.87A56.36,56.36,0,0,0,218,160.12a48.52,48.52,0,0,0-17-1.77,45.92,45.92,0,0,0-42.75,43,49.22,49.22,0,0,0,1.87,17A56,56,0,0,0,168,234.48a40.86,40.86,0,0,1-12.47-14.25,45.74,45.74,0,0,1-5.29-18.88,47.88,47.88,0,0,1,3.07-19.78,49.24,49.24,0,0,1,4.6-9.07,50.61,50.61,0,0,1,6.38-7.93,52,52,0,0,1,7.88-6.44,48.87,48.87,0,0,1,9-4.65,47.4,47.4,0,0,1,19.77-3.17,45.61,45.61,0,0,1,18.92,5.17A40.81,40.81,0,0,1,234.16,167.87Z"/></svg>