<svg width="36" height="36" viewBox="0 0 36 36" fill="none" xmlns="http://www.w3.org/2000/svg">
<path d="M2.25 18C2.25 9.30152 9.30152 2.25 18 2.25C26.6985 2.25 33.75 9.30152 33.75 18C33.75 26.6985 26.6985 33.75 18 33.75C9.30152 33.75 2.25 26.6985 2.25 18Z" fill="#849DFF"/>
<path d="M10.8774 23.5V13.6818H13.4726V15.414H13.5877C13.7922 14.8388 14.1331 14.3849 14.6104 14.0525C15.0877 13.7201 15.6587 13.554 16.3235 13.554C16.9968 13.554 17.5699 13.7223 18.0429 14.0589C18.5159 14.3913 18.8313 14.843 18.9889 15.414H19.0912C19.2915 14.8515 19.6537 14.402 20.1779 14.0653C20.7063 13.7244 21.3306 13.554 22.0507 13.554C22.9669 13.554 23.7105 13.8459 24.2816 14.4297C24.8568 15.0092 25.1445 15.8317 25.1445 16.897V23.5H22.4279V17.4339C22.4279 16.8885 22.283 16.4794 21.9932 16.2067C21.7034 15.9339 21.3412 15.7976 20.9066 15.7976C20.4122 15.7976 20.0266 15.9552 19.7496 16.2706C19.4726 16.5817 19.3341 16.9929 19.3341 17.5042V23.5H16.6942V17.3764C16.6942 16.8949 16.5557 16.5113 16.2787 16.2258C16.006 15.9403 15.6459 15.7976 15.1985 15.7976C14.8959 15.7976 14.6232 15.8743 14.3803 16.0277C14.1416 16.1768 13.952 16.3878 13.8114 16.6605C13.6708 16.929 13.6005 17.2443 13.6005 17.6065V23.5H10.8774Z" fill="#161618"/>
</svg>
