<svg width="16" height="16" viewBox="0 0 16 16" fill="none" xmlns="http://www.w3.org/2000/svg">
<path d="M1 8C1 4.13401 4.13401 1 8 1C11.866 1 15 4.13401 15 8C15 11.866 11.866 15 8 15C4.13401 15 1 11.866 1 8Z" fill="#5D770D"/>
<path d="M7.54772 10.5711C7.21628 10.5711 6.91609 10.4859 6.64715 10.3154C6.3801 10.1431 6.16798 9.89022 6.01079 9.55688C5.85548 9.22166 5.77783 8.81067 5.77783 8.32393C5.77783 7.82393 5.85832 7.40821 6.01931 7.07677C6.18029 6.74344 6.39431 6.49438 6.66136 6.32961C6.93029 6.16295 7.2248 6.07961 7.54488 6.07961C7.7892 6.07961 7.99279 6.12128 8.15567 6.20461C8.32045 6.28605 8.45302 6.38832 8.5534 6.51143C8.65567 6.63264 8.73332 6.75196 8.78636 6.86938H8.82329V4.68188H10.0307V10.5001H8.83749V9.8012H8.78636C8.72954 9.92241 8.64904 10.0427 8.54488 10.162C8.4426 10.2794 8.30908 10.377 8.14431 10.4546C7.98143 10.5323 7.78257 10.5711 7.54772 10.5711ZM7.93124 9.60802C8.12632 9.60802 8.29109 9.55499 8.42556 9.44893C8.56192 9.34098 8.66609 9.19041 8.73806 8.99723C8.81192 8.80404 8.84886 8.57772 8.84886 8.31825C8.84886 8.05878 8.81287 7.8334 8.7409 7.64211C8.66893 7.45082 8.56476 7.3031 8.4284 7.19893C8.29204 7.09476 8.12632 7.04268 7.93124 7.04268C7.73238 7.04268 7.56476 7.09666 7.4284 7.20461C7.29204 7.31257 7.18882 7.46219 7.11874 7.65348C7.04867 7.84476 7.01363 8.06635 7.01363 8.31825C7.01363 8.57204 7.04867 8.79647 7.11874 8.99154C7.19071 9.18473 7.29393 9.33624 7.4284 9.44609C7.56476 9.55404 7.73238 9.60802 7.93124 9.60802Z" fill="white"/>
</svg>
