<svg width="36" height="36" viewBox="0 0 36 36" fill="none" xmlns="http://www.w3.org/2000/svg">
<path fill-rule="evenodd" clip-rule="evenodd" d="M10.25 21.75C10.25 21.3358 10.5858 21 11 21H25C25.4142 21 25.75 21.3358 25.75 21.75C25.75 22.1642 25.4142 22.5 25 22.5H23V24.5C23 25.8807 21.8807 27 20.5 27C19.1193 27 18 25.8807 18 24.5V22.5H11C10.5858 22.5 10.25 22.1642 10.25 21.75ZM19.5 22.5V24.5C19.5 25.0523 19.9477 25.5 20.5 25.5C21.0523 25.5 21.5 25.0523 21.5 24.5V22.5H19.5Z" fill="#A0A0A0"/>
<path d="M11.0599 15.884C10.767 16.1769 10.767 16.6517 11.0599 16.9446C11.3528 17.2375 11.8276 17.2375 12.1205 16.9446L13.0044 16.0608L13.8882 16.9446C14.1811 17.2375 14.656 17.2375 14.9488 16.9446C15.2417 16.6517 15.2417 16.1768 14.9488 15.8839L14.0651 15.0001L14.949 14.1162C15.2419 13.8233 15.2419 13.3484 14.949 13.0555C14.6561 12.7627 14.1812 12.7627 13.8883 13.0555L13.0044 13.9395L12.1204 13.0555C11.8275 12.7626 11.3527 12.7626 11.0598 13.0555C10.7669 13.3484 10.7669 13.8232 11.0598 14.1161L11.9437 15.0001L11.0599 15.884Z" fill="#A0A0A0"/>
<path d="M22.1204 13.0555C21.8275 12.7626 21.3527 12.7626 21.0598 13.0555C20.7669 13.3484 20.7669 13.8232 21.0598 14.1161L21.9435 14.9999L21.0596 15.8838C20.7667 16.1767 20.7667 16.6516 21.0596 16.9445C21.3525 17.2373 21.8274 17.2373 22.1202 16.9445L23.0042 16.0605L23.8882 16.9446C24.1811 17.2375 24.656 17.2375 24.9488 16.9446C25.2417 16.6517 25.2417 16.1768 24.9488 15.8839L24.0648 14.9999L24.9487 14.116C25.2416 13.8231 25.2416 13.3483 24.9487 13.0554C24.6558 12.7625 24.1809 12.7625 23.888 13.0554L23.0042 13.9392L22.1204 13.0555Z" fill="#A0A0A0"/>
<path fill-rule="evenodd" clip-rule="evenodd" d="M18 33C26.2843 33 33 26.2843 33 18C33 9.71573 26.2843 3 18 3C9.71573 3 3 9.71573 3 18C3 26.2843 9.71573 33 18 33ZM18 31.5C25.4558 31.5 31.5 25.4558 31.5 18C31.5 10.5442 25.4558 4.5 18 4.5C10.5442 4.5 4.5 10.5442 4.5 18C4.5 25.4558 10.5442 31.5 18 31.5Z" fill="#A0A0A0"/>
</svg>
