<svg width="36" height="36" viewBox="0 0 36 36" fill="none" xmlns="http://www.w3.org/2000/svg">
<path d="M18 1.25C8.74923 1.25 1.25 8.74923 1.25 18C1.25 27.2508 8.74923 34.75 18 34.75C27.2508 34.75 34.75 27.2508 34.75 18C34.75 8.74923 27.2508 1.25 18 1.25Z" fill="#3451B2" stroke="white" stroke-width="2"/>
<path d="M24.1276 17.7047C24.1276 19.1322 23.857 20.3467 23.3158 21.3481C22.7789 22.3495 22.0459 23.1145 21.117 23.6429C20.1922 24.167 19.1525 24.4291 17.9976 24.4291C16.8343 24.4291 15.7903 24.1649 14.8655 23.6365C13.9408 23.1081 13.21 22.3432 12.6731 21.3417C12.1361 20.3403 11.8677 19.128 11.8677 17.7047C11.8677 16.2771 12.1361 15.0626 12.6731 14.0612C13.21 13.0598 13.9408 12.297 14.8655 11.7728C15.7903 11.2444 16.8343 10.9802 17.9976 10.9802C19.1525 10.9802 20.1922 11.2444 21.117 11.7728C22.0459 12.297 22.7789 13.0598 23.3158 14.0612C23.857 15.0626 24.1276 16.2771 24.1276 17.7047ZM21.3215 17.7047C21.3215 16.7799 21.183 16.0001 20.906 15.3652C20.6333 14.7302 20.2476 14.2487 19.7491 13.9206C19.2505 13.5924 18.6667 13.4284 17.9976 13.4284C17.3286 13.4284 16.7448 13.5924 16.2462 13.9206C15.7476 14.2487 15.3599 14.7302 15.0829 15.3652C14.8101 16.0001 14.6738 16.7799 14.6738 17.7047C14.6738 18.6294 14.8101 19.4092 15.0829 20.0441C15.3599 20.6791 15.7476 21.1606 16.2462 21.4887C16.7448 21.8169 17.3286 21.9809 17.9976 21.9809C18.6667 21.9809 19.2505 21.8169 19.7491 21.4887C20.2476 21.1606 20.6333 20.6791 20.906 20.0441C21.183 19.4092 21.3215 18.6294 21.3215 17.7047Z" fill="white"/>
</svg>
