<svg width="16" height="16" viewBox="0 0 16 16" fill="none" xmlns="http://www.w3.org/2000/svg">
<path d="M1 8C1 4.13401 4.13401 1 8 1C11.866 1 15 4.13401 15 8C15 11.866 11.866 15 8 15C4.13401 15 1 11.866 1 8Z" fill="#849DFF"/>
<path d="M10.7233 8.09093C10.7233 8.7254 10.603 9.26517 10.3625 9.71025C10.1238 10.1553 9.79809 10.4953 9.38521 10.7301C8.97422 10.9631 8.5121 11.0796 7.99885 11.0796C7.4818 11.0796 7.01779 10.9621 6.6068 10.7273C6.19582 10.4924 5.871 10.1525 5.63237 9.70741C5.39373 9.26233 5.27441 8.72351 5.27441 8.09093C5.27441 7.45646 5.39373 6.91669 5.63237 6.47161C5.871 6.02654 6.19582 5.68752 6.6068 5.45457C7.01779 5.21972 7.4818 5.10229 7.99885 5.10229C8.5121 5.10229 8.97422 5.21972 9.38521 5.45457C9.79809 5.68752 10.1238 6.02654 10.3625 6.47161C10.603 6.91669 10.7233 7.45646 10.7233 8.09093ZM9.47612 8.09093C9.47612 7.67995 9.41457 7.33336 9.29146 7.05116C9.17025 6.76896 8.99885 6.55495 8.77726 6.40911C8.55566 6.26328 8.29619 6.19036 7.99885 6.19036C7.7015 6.19036 7.44203 6.26328 7.22044 6.40911C6.99885 6.55495 6.8265 6.76896 6.70339 7.05116C6.58218 7.33336 6.52157 7.67995 6.52157 8.09093C6.52157 8.50192 6.58218 8.84851 6.70339 9.1307C6.8265 9.4129 6.99885 9.62692 7.22044 9.77275C7.44203 9.91858 7.7015 9.9915 7.99885 9.9915C8.29619 9.9915 8.55566 9.91858 8.77726 9.77275C8.99885 9.62692 9.17025 9.4129 9.29146 9.1307C9.41457 8.84851 9.47612 8.50192 9.47612 8.09093Z" fill="#161618"/>
</svg>
