<svg width="16" height="16" viewBox="0 0 16 16" fill="none" xmlns="http://www.w3.org/2000/svg">
<path d="M1 8C1 4.13401 4.13401 1 8 1C11.866 1 15 4.13401 15 8C15 11.866 11.866 15 8 15C4.13401 15 1 11.866 1 8Z" fill="#946800"/>
<path fill-rule="evenodd" clip-rule="evenodd" d="M9.33931 5.43473C9.02871 5.26617 8.65276 5.18188 8.21147 5.18188H5.91602V11.0001H7.14613V9.1137H8.18022C8.62719 9.1137 9.00787 9.03132 9.32227 8.86654C9.63855 8.70177 9.88003 8.47166 10.0467 8.1762C10.2134 7.88075 10.2967 7.53984 10.2967 7.15348C10.2967 6.76711 10.2143 6.4262 10.0495 6.13075C9.88666 5.8334 9.64992 5.60139 9.33931 5.43473ZM7.14613 8.12791H7.98136C8.2181 8.12791 8.41317 8.08719 8.56658 8.00575C8.72189 7.92242 8.83742 7.80783 8.91317 7.662C8.99083 7.51427 9.02965 7.34476 9.02965 7.15348C9.02965 6.96029 8.99083 6.79173 8.91317 6.64779C8.83742 6.50196 8.72189 6.38927 8.56658 6.30973C8.41128 6.22829 8.21431 6.18757 7.97567 6.18757H7.14613V8.12791Z" fill="white"/>
</svg>
