<svg width="36" height="36" viewBox="0 0 36 36" fill="none" xmlns="http://www.w3.org/2000/svg">
<path d="M2.25 18C2.25 9.30152 9.30152 2.25 18 2.25C26.6985 2.25 33.75 9.30152 33.75 18C33.75 26.6985 26.6985 33.75 18 33.75C9.30152 33.75 2.25 26.6985 2.25 18Z" fill="#F0C000"/>
<path fill-rule="evenodd" clip-rule="evenodd" d="M21.013 11.9781C20.3141 11.5988 19.4682 11.4092 18.4753 11.4092H13.3105V24.5001H16.0783V20.2558H18.405C19.4107 20.2558 20.2672 20.0704 20.9746 19.6997C21.6863 19.3289 22.2296 18.8112 22.6046 18.1464C22.9796 17.4816 23.1671 16.7146 23.1671 15.8453C23.1671 14.9759 22.9817 14.2089 22.611 13.5441C22.2445 12.8751 21.7118 12.3531 21.013 11.9781ZM16.0783 18.0377H17.9576C18.4902 18.0377 18.9292 17.9461 19.2743 17.7629C19.6238 17.5754 19.8837 17.3176 20.0542 16.9894C20.2289 16.657 20.3162 16.2757 20.3162 15.8453C20.3162 15.4106 20.2289 15.0313 20.0542 14.7075C19.8837 14.3794 19.6238 14.1258 19.2743 13.9468C18.9249 13.7636 18.4817 13.672 17.9448 13.672H16.0783V18.0377Z" fill="#161618"/>
</svg>
