<svg id="Layer_1" data-name="Layer 1" xmlns="http://www.w3.org/2000/svg" xmlns:xlink="http://www.w3.org/1999/xlink" viewBox="0 0 680 270.1"><defs><style>.cls-1{fill:url(#linear-gradient);}.cls-2{fill:none;}.cls-3{fill:#7f0c1d;opacity:0.25;}.cls-4,.cls-5{opacity:0.75;}.cls-4{fill:url(#linear-gradient-2);}.cls-5{fill:url(#linear-gradient-3);}.cls-6{fill:#fff;}.cls-7{fill:url(#linear-gradient-4);}.cls-8{fill:url(#linear-gradient-5);}</style><linearGradient id="linear-gradient" x1="58.49" y1="135.05" x2="164.99" y2="135.05" gradientUnits="userSpaceOnUse"><stop offset="0.04" stop-color="#b92d2a"/><stop offset="0.29" stop-color="#e42d2a"/><stop offset="0.42" stop-color="#dd312e"/><stop offset="0.81" stop-color="#df3e3c"/><stop offset="1" stop-color="#e4322f"/></linearGradient><linearGradient id="linear-gradient-2" x1="85.69" y1="146.74" x2="148.67" y2="146.74" gradientUnits="userSpaceOnUse"><stop offset="0" stop-color="#480c13"/><stop offset="0.17" stop-color="#520c15"/><stop offset="0.44" stop-color="#6c0c1a"/><stop offset="0.61" stop-color="#7f0c1d"/></linearGradient><linearGradient id="linear-gradient-3" x1="85.69" y1="115.25" x2="148.67" y2="115.25" xlink:href="#linear-gradient-2"/><linearGradient id="linear-gradient-4" x1="148.74" y1="86.25" x2="114.38" y2="115.8" gradientUnits="userSpaceOnUse"><stop offset="0" stop-opacity="0.7"/><stop offset="0.7" stop-opacity="0.3"/><stop offset="1" stop-color="#4f4f4f" stop-opacity="0.1"/></linearGradient><linearGradient id="linear-gradient-5" x1="128.87" y1="105.31" x2="151.2" y2="82.99" gradientUnits="userSpaceOnUse"><stop offset="0.2" stop-color="#7f0c1d"/><stop offset="0.74" stop-color="#7f0c1d"/><stop offset="0.93" stop-color="#590c16"/><stop offset="1" stop-color="#480c13"/></linearGradient></defs><path d="M240.7,114.31a5.22,5.22,0,0,1-1.28,1.5,2.81,2.81,0,0,1-1.68.47,4.16,4.16,0,0,1-2.13-.69c-.76-.47-1.65-1-2.67-1.51a25.19,25.19,0,0,0-3.5-1.5,14,14,0,0,0-4.62-.7q-4.66,0-7,2.09a7,7,0,0,0-2.33,5.45,5.08,5.08,0,0,0,1.28,3.57,11.13,11.13,0,0,0,3.36,2.44,31.34,31.34,0,0,0,4.73,1.84q2.65.81,5.43,1.77a47.85,47.85,0,0,1,5.43,2.27,19.36,19.36,0,0,1,4.73,3.27,15.06,15.06,0,0,1,3.37,4.83,16.92,16.92,0,0,1,1.28,6.93,22.3,22.3,0,0,1-1.55,8.32,19.6,19.6,0,0,1-4.47,6.77,20.64,20.64,0,0,1-7.2,4.56,26.82,26.82,0,0,1-9.71,1.66A30.69,30.69,0,0,1,216,167a35.45,35.45,0,0,1-5.92-1.75,32.75,32.75,0,0,1-5.36-2.69,24.28,24.28,0,0,1-4.4-3.5l4-6.37a3.92,3.92,0,0,1,1.3-1.19,3.39,3.39,0,0,1,1.71-.47,4.6,4.6,0,0,1,2.55.9c.9.59,1.93,1.25,3.1,2a24.38,24.38,0,0,0,4.06,2,15.28,15.28,0,0,0,5.54.9q4.71,0,7.29-2.15t2.58-6.42a6,6,0,0,0-1.28-4,10.3,10.3,0,0,0-3.34-2.56,26.31,26.31,0,0,0-4.71-1.77c-1.77-.49-3.57-1-5.43-1.64a45.06,45.06,0,0,1-5.43-2.15,16.89,16.89,0,0,1-4.71-3.32,15.84,15.84,0,0,1-3.34-5.11,19.79,19.79,0,0,1-1.28-7.59,18.09,18.09,0,0,1,5.65-13.1,21.3,21.3,0,0,1,6.85-4.26,25.14,25.14,0,0,1,9.3-1.61,31.64,31.64,0,0,1,10.88,1.81,24.53,24.53,0,0,1,8.46,5Z"/><path d="M286.64,131a5.07,5.07,0,0,1-1.08,1.09,2.57,2.57,0,0,1-1.52.39,3.26,3.26,0,0,1-1.73-.52c-.55-.34-1.19-.72-1.91-1.12a15,15,0,0,0-2.55-1.12,11.17,11.17,0,0,0-3.68-.52,10.85,10.85,0,0,0-4.83,1A9,9,0,0,0,266,133.1a13,13,0,0,0-2,4.58,26,26,0,0,0-.65,6.06q0,7.08,2.85,10.85a9.23,9.23,0,0,0,7.78,3.77,13.16,13.16,0,0,0,2.94-.29,10,10,0,0,0,2.15-.74,8.41,8.41,0,0,0,1.6-1c.45-.36.87-.69,1.28-1a7.5,7.5,0,0,1,1.21-.75,3.17,3.17,0,0,1,1.37-.29,2.65,2.65,0,0,1,2.24,1.08l3.54,4.49a21.18,21.18,0,0,1-4.21,3.79,21.71,21.71,0,0,1-4.65,2.37,23.32,23.32,0,0,1-4.87,1.22,36.74,36.74,0,0,1-4.89.33,20.74,20.74,0,0,1-8.07-1.59,19.29,19.29,0,0,1-6.68-4.64,22.21,22.21,0,0,1-4.56-7.5,28.5,28.5,0,0,1-1.68-10.13,29,29,0,0,1,1.48-9.42,21.41,21.41,0,0,1,4.35-7.54,20.18,20.18,0,0,1,7.11-5,24.76,24.76,0,0,1,9.8-1.82,23.62,23.62,0,0,1,9.29,1.7,22.57,22.57,0,0,1,7.18,4.94Z"/><path d="M295.48,127.09a27.63,27.63,0,0,1,9-5.49,30.71,30.71,0,0,1,10.68-1.82,19.11,19.11,0,0,1,7.38,1.35,15.64,15.64,0,0,1,5.52,3.74,16.33,16.33,0,0,1,3.47,5.72,21,21,0,0,1,1.22,7.27v29.07H327.1a5.8,5.8,0,0,1-2.67-.49,3.68,3.68,0,0,1-1.5-2.07l-1-3a40.89,40.89,0,0,1-3.38,2.69,19.63,19.63,0,0,1-3.39,2,17.47,17.47,0,0,1-3.75,1.19,22.5,22.5,0,0,1-4.46.41,18,18,0,0,1-5.56-.81,12.09,12.09,0,0,1-4.33-2.4,10.66,10.66,0,0,1-2.81-4,14.35,14.35,0,0,1-1-5.47,11.18,11.18,0,0,1,1.3-5.12,12.59,12.59,0,0,1,4.46-4.64,28.54,28.54,0,0,1,8.44-3.46,59.09,59.09,0,0,1,13.21-1.54v-2.38c0-2.9-.62-5-1.84-6.39a6.77,6.77,0,0,0-5.3-2,13,13,0,0,0-4.26.6,21.08,21.08,0,0,0-3,1.3l-2.4,1.3a5.34,5.34,0,0,1-2.6.61,3.57,3.57,0,0,1-2.18-.65,6.14,6.14,0,0,1-1.46-1.55Zm25.21,20.5a58.43,58.43,0,0,0-7.54.79,18,18,0,0,0-4.78,1.46,6.28,6.28,0,0,0-2.51,2,4.51,4.51,0,0,0-.74,2.49,4.46,4.46,0,0,0,1.5,3.81,6.9,6.9,0,0,0,4.2,1.12,12.07,12.07,0,0,0,5.36-1.1,16.11,16.11,0,0,0,4.51-3.43Z"/><path d="M354.92,100v66.89H342.53V100Z"/><path d="M364.2,127.09a27.67,27.67,0,0,1,9-5.49,30.71,30.71,0,0,1,10.68-1.82,19.11,19.11,0,0,1,7.38,1.35,15.69,15.69,0,0,1,5.51,3.74,16.5,16.5,0,0,1,3.48,5.72,21,21,0,0,1,1.21,7.27v29.07h-5.65a5.75,5.75,0,0,1-2.67-.49,3.68,3.68,0,0,1-1.5-2.07l-1-3a41,41,0,0,1-3.39,2.69,19.55,19.55,0,0,1-3.38,2,17.47,17.47,0,0,1-3.75,1.19,22.5,22.5,0,0,1-4.46.41,18.1,18.1,0,0,1-5.57-.81,12.26,12.26,0,0,1-4.33-2.4,10.64,10.64,0,0,1-2.8-4,14.16,14.16,0,0,1-1-5.47,11.19,11.19,0,0,1,1.31-5.12,12.51,12.51,0,0,1,4.46-4.64,28.58,28.58,0,0,1,8.43-3.46,59.24,59.24,0,0,1,13.21-1.54v-2.38q0-4.35-1.83-6.39a6.78,6.78,0,0,0-5.3-2,13,13,0,0,0-4.26.6,20.58,20.58,0,0,0-3,1.3l-2.4,1.3a5.35,5.35,0,0,1-2.61.61,3.56,3.56,0,0,1-2.17-.65A6.14,6.14,0,0,1,366.4,131Zm25.21,20.5a58.25,58.25,0,0,0-7.53.79,17.88,17.88,0,0,0-4.78,1.46,6.28,6.28,0,0,0-2.51,2,5.15,5.15,0,0,0,.76,6.3,6.88,6.88,0,0,0,4.2,1.12,12.07,12.07,0,0,0,5.36-1.1,15.94,15.94,0,0,0,4.5-3.43Z"/><path d="M433.87,101.93a23.42,23.42,0,0,1,7.54,1.16,17.7,17.7,0,0,1,5.94,3.32,15,15,0,0,1,3.88,5.2,16.15,16.15,0,0,1,1.39,6.78,17.62,17.62,0,0,1-.78,5.45,13.21,13.21,0,0,1-2.24,4.22,13.57,13.57,0,0,1-3.53,3.07,19.39,19.39,0,0,1-4.62,2q6.29,1.66,9.45,5.56a15,15,0,0,1,3.16,9.78,18.46,18.46,0,0,1-1.68,8,18,18,0,0,1-4.6,6,20.57,20.57,0,0,1-6.8,3.81,25.37,25.37,0,0,1-8.32,1.33,26.53,26.53,0,0,1-8.75-1.28,18.14,18.14,0,0,1-6.14-3.52,18.79,18.79,0,0,1-4.13-5.32,39.85,39.85,0,0,1-2.74-6.66l3.41-1.44a4.76,4.76,0,0,1,1.89-.4,3.34,3.34,0,0,1,1.59.38,2.46,2.46,0,0,1,1,1.19l.18.38.18.43c.42.87.93,1.84,1.53,2.94a12.48,12.48,0,0,0,2.42,3.07,13.12,13.12,0,0,0,3.79,2.42,14.09,14.09,0,0,0,5.63,1,14.79,14.79,0,0,0,5.9-1.1,12.76,12.76,0,0,0,4.22-2.85,12.06,12.06,0,0,0,2.53-3.9,11.51,11.51,0,0,0,.85-4.26,15.55,15.55,0,0,0-.69-4.76,8.1,8.1,0,0,0-2.51-3.72,12.92,12.92,0,0,0-5-2.47,31.19,31.19,0,0,0-8.23-.9V131a24.9,24.9,0,0,0,7-.85,13.59,13.59,0,0,0,4.73-2.34,8.68,8.68,0,0,0,2.67-3.54,13.4,13.4,0,0,0-.05-9.42,9.23,9.23,0,0,0-2.4-3.41,10,10,0,0,0-3.61-2,14.55,14.55,0,0,0-4.51-.67,13.49,13.49,0,0,0-4.48.72,12,12,0,0,0-3.66,2,11.66,11.66,0,0,0-2.67,3,14.26,14.26,0,0,0-1.61,3.83,3.55,3.55,0,0,1-1.08,1.88,2.82,2.82,0,0,1-1.84.58,3.77,3.77,0,0,1-.47,0l-.56-.06-4.17-.71a23.29,23.29,0,0,1,2.42-7.78,18.64,18.64,0,0,1,4.55-5.68,19.68,19.68,0,0,1,6.33-3.48A24.25,24.25,0,0,1,433.87,101.93Z"/><path d="M496.63,166.93a2,2,0,0,1-2.15-1.66l-.72-5.52a23.87,23.87,0,0,1-6.66,5.68,17.08,17.08,0,0,1-8.59,2.13,16.29,16.29,0,0,1-7.09-1.51,14.76,14.76,0,0,1-5.43-4.41,21.08,21.08,0,0,1-3.45-7.27,37.35,37.35,0,0,1-1.21-10,31.26,31.26,0,0,1,1.34-9.35,22.75,22.75,0,0,1,3.88-7.51A17.75,17.75,0,0,1,481,120.68a16.48,16.48,0,0,1,7.13,1.41,17.11,17.11,0,0,1,5.29,4V100.85h8v66.08Zm-15.48-5.83a12.85,12.85,0,0,0,6.85-1.8,19.57,19.57,0,0,0,5.4-5.07v-22a12.6,12.6,0,0,0-4.82-4.15,14,14,0,0,0-5.81-1.19q-6.37,0-9.78,4.53t-3.41,12.92a32.85,32.85,0,0,0,.76,7.61,14.57,14.57,0,0,0,2.25,5.2,8.77,8.77,0,0,0,3.63,3A12.35,12.35,0,0,0,481.15,161.1Z"/><path d="M533.19,120.77a23.32,23.32,0,0,1,9,1.66,18.87,18.87,0,0,1,6.82,4.71,20.74,20.74,0,0,1,4.3,7.38,31.75,31.75,0,0,1,0,19.35,20.73,20.73,0,0,1-4.3,7.36,18.7,18.7,0,0,1-6.82,4.69,25.49,25.49,0,0,1-18,0,18.78,18.78,0,0,1-6.84-4.69,20.68,20.68,0,0,1-4.35-7.36,31.36,31.36,0,0,1,0-19.35,20.68,20.68,0,0,1,4.35-7.38,19,19,0,0,1,6.84-4.71A23.23,23.23,0,0,1,533.19,120.77Zm0,40.55q6.73,0,10-4.51t3.32-12.58q0-8.11-3.32-12.65t-10-4.53a14.08,14.08,0,0,0-5.92,1.16,11.09,11.09,0,0,0-4.19,3.37,15.08,15.08,0,0,0-2.52,5.4,29.19,29.19,0,0,0-.83,7.25,28.83,28.83,0,0,0,.83,7.22,14.8,14.8,0,0,0,2.52,5.36,11.23,11.23,0,0,0,4.19,3.35A14.08,14.08,0,0,0,533.19,161.32Z"/><path d="M595.69,129.56a3.54,3.54,0,0,1-.72.76,1.71,1.71,0,0,1-1,.27,2.51,2.51,0,0,1-1.46-.56,23.23,23.23,0,0,0-2-1.23,17.22,17.22,0,0,0-2.94-1.24,14,14,0,0,0-4.24-.56,13.8,13.8,0,0,0-5.87,1.19,11.39,11.39,0,0,0-4.29,3.43,15.58,15.58,0,0,0-2.6,5.43,27.09,27.09,0,0,0-.87,7.13,26,26,0,0,0,.94,7.34,16,16,0,0,0,2.64,5.38,11.3,11.3,0,0,0,4.15,3.32,12.74,12.74,0,0,0,5.5,1.15,13.91,13.91,0,0,0,4.8-.7,14.35,14.35,0,0,0,3.14-1.55,20.75,20.75,0,0,0,2.06-1.54,2.47,2.47,0,0,1,1.62-.7,1.67,1.67,0,0,1,1.52.76l2.25,2.92a17.4,17.4,0,0,1-7.4,5.32,26.33,26.33,0,0,1-9.38,1.68,20,20,0,0,1-7.92-1.57,18.13,18.13,0,0,1-6.35-4.56A21.71,21.71,0,0,1,563,154.1a29.56,29.56,0,0,1-1.54-9.92,30,30,0,0,1,1.41-9.37,21.25,21.25,0,0,1,4.13-7.43,18.71,18.71,0,0,1,6.7-4.86,22.56,22.56,0,0,1,9.15-1.75,21.64,21.64,0,0,1,8.44,1.54,20.2,20.2,0,0,1,6.5,4.38Z"/><path class="cls-1" d="M163.55,110.14V191.5a8,8,0,0,1-8,8h-77a7.77,7.77,0,0,1-4.22-1.21l0,0a7.93,7.93,0,0,1-3.7-6.72V78.58a8,8,0,0,1,8-8h45.49a2.64,2.64,0,0,1,1.2.28h0l.13.06.19.1a1.78,1.78,0,0,1,.33.23l37,37a2.61,2.61,0,0,1,.39.64h0A3,3,0,0,1,163.55,110.14Z"/><path class="cls-2" d="M163.43,108.93h-35.5a2.83,2.83,0,0,1-2.52-2.81V70.92a2.67,2.67,0,0,1,.65.39l37,37A2.71,2.71,0,0,1,163.43,108.93Z"/><path class="cls-3" d="M89.26,146.37v7.87c0,1.32,28.62,3.55,47.28,7.87h0c9-2.09,15.69-4.67,15.69-7.87h0v-7.87c0-3.21-6.68-5.79-15.69-7.88h0c-18.66,4.33-47.28,6.55-47.28,7.88"/><path class="cls-3" d="M89.26,114.88v7.87c0,1.33,28.62,3.55,47.28,7.87h0c9-2.09,15.69-4.66,15.69-7.87h0v-7.87c0-3.21-6.68-5.79-15.69-7.87h0c-18.66,4.32-47.28,6.54-47.28,7.87"/><path class="cls-3" d="M89.26,133.51v23.62c0-2,63-5.91,63-15.75h0V117.77c0,9.84-63,13.77-63,15.74"/><path class="cls-3" d="M152.23,105.81v4.09c0,9.84-63,13.78-63,15.73V102c0-1.4,32.16-3.82,50.51-8.67Z"/><path class="cls-3" d="M89.26,165v23.62c0-2,63-5.91,63-15.75h0V149.26c0,9.84-63,13.77-63,15.74"/><path class="cls-4" d="M85.69,142.8v7.88c0,1.32,28.63,3.55,47.28,7.87h0c9-2.09,15.7-4.67,15.7-7.87h0V142.8c0-3.2-6.68-5.78-15.7-7.87h0c-18.65,4.33-47.28,6.55-47.28,7.87"/><path class="cls-5" d="M85.69,111.32v7.87c0,1.32,28.63,3.55,47.28,7.87h0c9-2.09,15.7-4.67,15.7-7.87h0v-7.87c0-3.21-6.68-5.79-15.7-7.88h0c-18.65,4.33-47.28,6.55-47.28,7.88"/><path class="cls-6" d="M85.69,130v23.62c0-2,63-5.91,63-15.75h0V114.21c0,9.84-63,13.77-63,15.74"/><path class="cls-6" d="M148.67,102.25v4.09c0,9.84-63,13.78-63,15.73V98.47c0-1.41,32.16-3.82,50.51-8.68Z"/><path class="cls-6" d="M85.69,161.44v23.61c0-2,63-5.9,63-15.74h0V145.69c0,9.84-63,13.78-63,15.75"/><path class="cls-7" d="M163.55,110.41v7.8l-1.47-1.74a5.48,5.48,0,0,0-5.71-1.75c-8,2.3-27.8,8-37.2,10.11a3.35,3.35,0,0,1-4.09-3.6l4.6-43.39a6.4,6.4,0,0,0-2.91-6.08l-1.85-1.13h9.15v36.69a3.09,3.09,0,0,0,3.09,3.09Z"/><path class="cls-8" d="M163.55,110.14v6.25a6,6,0,0,0-6-5.94h-31a3.12,3.12,0,0,1-2.19-1.11v0a2.91,2.91,0,0,1-.6-1.28,2.63,2.63,0,0,1-.08-.65V76.58a6,6,0,0,0-5.94-6H124a2.74,2.74,0,0,1,1.23.28h0l.13.06.19.1a1.78,1.78,0,0,1,.33.23l37,37a2.61,2.61,0,0,1,.39.64h0A3,3,0,0,1,163.55,110.14Z"/></svg>