<svg width="36" height="36" viewBox="0 0 36 36" fill="none" xmlns="http://www.w3.org/2000/svg">
<g clip-path="url(#clip0_570_15052)">
<path d="M18 1.25C8.74923 1.25 1.25 8.74923 1.25 18C1.25 27.2508 8.74923 34.75 18 34.75C27.2508 34.75 34.75 27.2508 34.75 18C34.75 8.74923 27.2508 1.25 18 1.25Z" fill="#A0A0A0" stroke="#161616" stroke-width="2"/>
<path d="M17.2305 24.5001H12.5898V11.4092H17.2688C18.5856 11.4092 19.7191 11.6713 20.6694 12.1954C21.6197 12.7153 22.3505 13.4632 22.8619 14.439C23.3775 15.4149 23.6353 16.5825 23.6353 17.9419C23.6353 19.3055 23.3775 20.4774 22.8619 21.4575C22.3505 22.4376 21.6154 23.1897 20.6566 23.7139C19.7021 24.238 18.56 24.5001 17.2305 24.5001ZM15.3576 22.1286H17.1154C17.9336 22.1286 18.6218 21.9838 19.18 21.694C19.7425 21.3999 20.1644 20.9461 20.4457 20.3325C20.7312 19.7146 20.8739 18.9177 20.8739 17.9419C20.8739 16.9745 20.7312 16.184 20.4457 15.5704C20.1644 14.9568 19.7447 14.5051 19.1864 14.2153C18.6282 13.9255 17.94 13.7806 17.1218 13.7806H15.3576V22.1286Z" fill="#161616"/>
</g>
<defs>
<clipPath id="clip0_570_15052">
<rect width="36" height="36" fill="white"/>
</clipPath>
</defs>
</svg>
