<svg width="16" height="16" viewBox="0 0 16 16" fill="none" xmlns="http://www.w3.org/2000/svg">
<path d="M1 8C1 4.13401 4.13401 1 8 1C11.866 1 15 4.13401 15 8C15 11.866 11.866 15 8 15C4.13401 15 1 11.866 1 8Z" fill="#6F6E77"/>
<path d="M7.6582 11.0001H5.5957V5.18188H7.67525C8.26048 5.18188 8.76426 5.29836 9.18661 5.53132C9.60896 5.76238 9.93377 6.09476 10.161 6.52848C10.3902 6.96219 10.5048 7.48113 10.5048 8.08529C10.5048 8.69135 10.3902 9.21219 10.161 9.64779C9.93377 10.0834 9.60707 10.4177 9.18093 10.6506C8.75669 10.8836 8.24911 11.0001 7.6582 11.0001ZM6.82582 9.94609H7.60707C7.9707 9.94609 8.27657 9.8817 8.52468 9.75291C8.77468 9.62223 8.96218 9.42052 9.08718 9.14779C9.21407 8.87317 9.27752 8.51901 9.27752 8.08529C9.27752 7.65537 9.21407 7.30404 9.08718 7.03132C8.96218 6.75859 8.77563 6.55783 8.52752 6.42904C8.27942 6.30026 7.97354 6.23586 7.60991 6.23586H6.82582V9.94609Z" fill="white"/>
</svg>
