<svg width="36" height="36" viewBox="0 0 36 36" fill="none" xmlns="http://www.w3.org/2000/svg">
<path d="M18 1.25C8.74923 1.25 1.25 8.74923 1.25 18C1.25 27.2508 8.74923 34.75 18 34.75C27.2508 34.75 34.75 27.2508 34.75 18C34.75 8.74923 27.2508 1.25 18 1.25Z" fill="#0078A1" stroke="white" stroke-width="2"/>
<path d="M19.0788 22.0711C19.0021 21.9304 18.9638 21.7344 18.9638 21.483V16.7273H20.8111V14.6819H18.9638V12.3296H16.2408V14.6819H14.8984V16.7273H16.2408V21.841C16.2365 22.4844 16.3707 23.0171 16.6435 23.439C16.9162 23.8608 17.2976 24.1719 17.7876 24.3722C18.282 24.5725 18.8572 24.6598 19.5135 24.6343C19.8672 24.6215 20.1676 24.5853 20.4148 24.5256C20.6619 24.4702 20.8537 24.4212 20.9901 24.3786L20.5618 22.3523C20.4936 22.3651 20.3956 22.3843 20.2678 22.4098C20.1399 22.4312 20.0121 22.4418 19.8842 22.4418C19.701 22.4418 19.5391 22.4141 19.3984 22.3587C19.2621 22.3033 19.1555 22.2074 19.0788 22.0711Z" fill="white"/>
</svg>
