<svg width="16" height="16" viewBox="0 0 16 16" fill="none" xmlns="http://www.w3.org/2000/svg">
<path d="M1 8C1 4.13401 4.13401 1 8 1C11.866 1 15 4.13401 15 8C15 11.866 11.866 15 8 15C4.13401 15 1 11.866 1 8Z" fill="#0078A1"/>
<path d="M8.47954 9.92037C8.44545 9.85787 8.4284 9.77074 8.4284 9.659V7.54537H9.24942V6.63627H8.4284V5.59082H7.21817V6.63627H6.62158V7.54537H7.21817V9.81809C7.21628 10.1041 7.27594 10.3408 7.39715 10.5283C7.51836 10.7158 7.68787 10.8541 7.90567 10.9431C8.12537 11.0321 8.38105 11.0709 8.67272 11.0596C8.82992 11.0539 8.96344 11.0378 9.07329 11.0113C9.18313 10.9867 9.26836 10.9649 9.32897 10.9459L9.13863 10.0454C9.10832 10.051 9.06476 10.0596 9.00795 10.0709C8.95113 10.0804 8.89431 10.0851 8.83749 10.0851C8.75605 10.0851 8.68408 10.0728 8.62158 10.0482C8.56098 10.0236 8.51363 9.98097 8.47954 9.92037Z" fill="white"/>
</svg>
