<svg width="16" height="16" viewBox="0 0 16 16" fill="none" xmlns="http://www.w3.org/2000/svg">
<path fill-rule="evenodd" clip-rule="evenodd" d="M8.00649 1C4.04373 1 0.830002 4.21331 0.830002 8.17738C0.830002 11.3479 2.88628 14.0382 5.73828 14.9877C6.09737 15.0534 6.22823 14.8318 6.22823 14.6414C6.22823 14.4709 6.22206 14.0197 6.21854 13.4209C4.22218 13.8545 3.80097 12.4587 3.80097 12.4587C3.47448 11.6295 3.00392 11.4087 3.00392 11.4087C2.35228 10.9637 3.05327 10.9725 3.05327 10.9725C3.77365 11.0232 4.15256 11.7123 4.15256 11.7123C4.79275 12.809 5.83257 12.4922 6.24145 12.3084C6.30666 11.8449 6.49215 11.5286 6.69703 11.3492C5.10338 11.1677 3.42778 10.5522 3.42778 7.80199C3.42778 7.01817 3.70756 6.37798 4.16667 5.87613C4.09265 5.69461 3.84635 4.96496 4.23716 3.97669C4.23716 3.97669 4.83946 3.78371 6.2106 4.71205C6.78294 4.55299 7.39714 4.47369 8.00737 4.4706C8.61716 4.47369 9.23091 4.55299 9.80413 4.71205C11.1744 3.78371 11.7758 3.97669 11.7758 3.97669C12.1675 4.96496 11.9212 5.69461 11.8476 5.87613C12.3076 6.37798 12.5852 7.01817 12.5852 7.80199C12.5852 10.5593 10.907 11.166 9.30846 11.3435C9.56577 11.5651 9.79532 12.0031 9.79532 12.6728C9.79532 13.632 9.78651 14.4061 9.78651 14.6414C9.78651 14.8335 9.91605 15.0569 10.28 14.9868C13.1298 14.0356 15.1843 11.3475 15.1843 8.17738C15.1843 4.21331 11.9706 1 8.00649 1Z" fill="#1A1523"/>
</svg>
